<?xml version="1.0" encoding="UTF-8" standalone="no"?>
<svg
   xmlns:dc="http://purl.org/dc/elements/1.1/"
   xmlns:cc="http://creativecommons.org/ns#"
   xmlns:rdf="http://www.w3.org/1999/02/22-rdf-syntax-ns#"
   xmlns:svg="http://www.w3.org/2000/svg"
   xmlns="http://www.w3.org/2000/svg"
   xmlns:sodipodi="http://sodipodi.sourceforge.net/DTD/sodipodi-0.dtd"
   xmlns:inkscape="http://www.inkscape.org/namespaces/inkscape"
   inkscape:export-ydpi="576"
   inkscape:export-xdpi="576"
   inkscape:export-filename="D:\Project Real\Februari 1\export\flat\png\07 - Banana.png"
   width="64pt"
   height="64pt"
   viewBox="0 0 22.577778 22.577778"
   version="1.1"
   id="svg831"
   inkscape:version="1.0 (4035a4fb49, 2020-05-01)"
   sodipodi:docname="09 - Mango.svg">
  <defs
     id="defs825">
    <pattern
       id="EMFhbasepattern"
       patternUnits="userSpaceOnUse"
       width="6"
       height="6"
       x="0"
       y="0" />
    <pattern
       id="EMFhbasepattern-9"
       patternUnits="userSpaceOnUse"
       width="6"
       height="6"
       x="0"
       y="0" />
    <pattern
       id="EMFhbasepattern-0"
       patternUnits="userSpaceOnUse"
       width="6"
       height="6"
       x="0"
       y="0" />
    <pattern
       id="EMFhbasepattern-7"
       patternUnits="userSpaceOnUse"
       width="6"
       height="6"
       x="0"
       y="0" />
    <pattern
       id="EMFhbasepattern-2"
       patternUnits="userSpaceOnUse"
       width="6"
       height="6"
       x="0"
       y="0" />
    <pattern
       id="EMFhbasepattern-98"
       patternUnits="userSpaceOnUse"
       width="6"
       height="6"
       x="0"
       y="0" />
    <pattern
       id="EMFhbasepattern-6"
       patternUnits="userSpaceOnUse"
       width="6"
       height="6"
       x="0"
       y="0" />
    <pattern
       id="EMFhbasepattern-01"
       patternUnits="userSpaceOnUse"
       width="6"
       height="6"
       x="0"
       y="0" />
    <pattern
       id="EMFhbasepattern-07"
       patternUnits="userSpaceOnUse"
       width="6"
       height="6"
       x="0"
       y="0" />
    <pattern
       id="EMFhbasepattern-8"
       patternUnits="userSpaceOnUse"
       width="6"
       height="6"
       x="0"
       y="0" />
    <pattern
       id="EMFhbasepattern-4"
       patternUnits="userSpaceOnUse"
       width="6"
       height="6"
       x="0"
       y="0" />
    <pattern
       id="EMFhbasepattern-40"
       patternUnits="userSpaceOnUse"
       width="6"
       height="6"
       x="0"
       y="0" />
    <pattern
       id="EMFhbasepattern-08"
       patternUnits="userSpaceOnUse"
       width="6"
       height="6"
       x="0"
       y="0" />
    <pattern
       id="EMFhbasepattern-04"
       patternUnits="userSpaceOnUse"
       width="6"
       height="6"
       x="0"
       y="0" />
    <pattern
       id="EMFhbasepattern-014"
       patternUnits="userSpaceOnUse"
       width="6"
       height="6"
       x="0"
       y="0" />
    <pattern
       id="EMFhbasepattern-27"
       patternUnits="userSpaceOnUse"
       width="6"
       height="6"
       x="0"
       y="0" />
    <pattern
       id="EMFhbasepattern-09"
       patternUnits="userSpaceOnUse"
       width="6"
       height="6"
       x="0"
       y="0" />
    <pattern
       id="EMFhbasepattern-5"
       patternUnits="userSpaceOnUse"
       width="6"
       height="6"
       x="0"
       y="0" />
    <pattern
       id="EMFhbasepattern-018"
       patternUnits="userSpaceOnUse"
       width="6"
       height="6"
       x="0"
       y="0" />
  </defs>
  <sodipodi:namedview
     id="base"
     pagecolor="#ffffff"
     bordercolor="#666666"
     borderopacity="1.0"
     inkscape:pageopacity="0.0"
     inkscape:pageshadow="2"
     inkscape:zoom="6.2578125"
     inkscape:cx="42.666667"
     inkscape:cy="42.666667"
     inkscape:document-units="pt"
     inkscape:current-layer="layer1"
     showgrid="false"
     units="pt"
     inkscape:window-width="1366"
     inkscape:window-height="705"
     inkscape:window-x="-8"
     inkscape:window-y="-8"
     inkscape:window-maximized="1"
     inkscape:pagecheckerboard="true"
     inkscape:showpageshadow="false"
     inkscape:object-paths="true"
     inkscape:snap-intersection-paths="true"
     inkscape:snap-smooth-nodes="true"
     inkscape:snap-midpoints="true"
     showguides="true"
     inkscape:snap-bbox="true"
     inkscape:bbox-nodes="true"
     inkscape:snap-nodes="false"
     inkscape:snap-global="true"
     inkscape:document-rotation="0">
    <inkscape:grid
       type="xygrid"
       id="grid1378" />
    <sodipodi:guide
       position="0.97013831,21.607643"
       orientation="78.000048,0"
       id="guide1380"
       inkscape:locked="false" />
    <sodipodi:guide
       position="0.97013831,0.97013129"
       orientation="0,78.000005"
       id="guide1382"
       inkscape:locked="false" />
    <sodipodi:guide
       position="21.607639,0.97013129"
       orientation="-78.000048,0"
       id="guide1384"
       inkscape:locked="false" />
    <sodipodi:guide
       position="21.607639,21.607643"
       orientation="0,-78.000005"
       id="guide1386"
       inkscape:locked="false" />
  </sodipodi:namedview>
  <metadata
     id="metadata828">
    <rdf:RDF>
      <cc:Work
         rdf:about="">
        <dc:format>image/svg+xml</dc:format>
        <dc:type
           rdf:resource="http://purl.org/dc/dcmitype/StillImage" />
        <dc:title></dc:title>
      </cc:Work>
    </rdf:RDF>
  </metadata>
  <g
     inkscape:label="Icon"
     inkscape:groupmode="layer"
     id="layer1"
     transform="translate(0,-274.42223)">
    <g
       transform="matrix(1.2582477,0,0,1.2582477,-76.127488,-38.959354)"
       style="display:inline;stroke-width:0.794756"
       id="g529">
      <path
         style="color:#000000;font-style:normal;font-variant:normal;font-weight:normal;font-stretch:normal;font-size:medium;line-height:normal;font-family:sans-serif;font-variant-ligatures:normal;font-variant-position:normal;font-variant-caps:normal;font-variant-numeric:normal;font-variant-alternates:normal;font-variant-east-asian:normal;font-feature-settings:normal;font-variation-settings:normal;text-indent:0;text-align:start;text-decoration:none;text-decoration-line:none;text-decoration-style:solid;text-decoration-color:#000000;letter-spacing:normal;word-spacing:normal;text-transform:none;writing-mode:lr-tb;direction:ltr;text-orientation:mixed;dominant-baseline:auto;baseline-shift:baseline;text-anchor:start;white-space:normal;shape-padding:0;shape-margin:0;inline-size:0;clip-rule:nonzero;display:inline;overflow:visible;visibility:visible;isolation:auto;mix-blend-mode:normal;color-interpolation:sRGB;color-interpolation-filters:linearRGB;solid-color:#000000;solid-opacity:1;vector-effect:none;fill:#50b86b;fill-opacity:1;fill-rule:nonzero;stroke:none;stroke-width:0.420559;stroke-linecap:round;stroke-linejoin:round;stroke-miterlimit:4;stroke-dasharray:none;stroke-dashoffset:0;stroke-opacity:1;color-rendering:auto;image-rendering:auto;shape-rendering:auto;text-rendering:auto;enable-background:accumulate;stop-color:#000000"
         d="m 69.255859,250.49805 c -0.08767,5.8e-4 -0.176178,0.007 -0.27539,0.0625 -0.09921,0.0554 -0.190896,0.20674 -0.185547,0.33203 0.04238,0.9927 0.375292,1.61234 0.822266,2.00586 0.446973,0.39352 0.972314,0.56772 1.390624,0.77734 a 0.26460996,0.26460996 0 0 0 0.263672,-0.0156 l 0.587891,-0.38282 a 0.26460996,0.26460996 0 0 0 0.113281,-0.28515 c -0.121357,-0.49776 -0.210644,-0.81439 -0.347656,-1.07813 -0.137012,-0.26374 -0.321871,-0.45271 -0.574219,-0.66797 -0.332039,-0.28805 -0.804733,-0.51321 -1.220703,-0.64257 -0.208643,-0.0649 -0.398874,-0.10664 -0.574219,-0.10547 z"
         id="path361" />
      <path
         style="color:#000000;font-style:normal;font-variant:normal;font-weight:normal;font-stretch:normal;font-size:medium;line-height:normal;font-family:sans-serif;font-variant-ligatures:normal;font-variant-position:normal;font-variant-caps:normal;font-variant-numeric:normal;font-variant-alternates:normal;font-variant-east-asian:normal;font-feature-settings:normal;font-variation-settings:normal;text-indent:0;text-align:start;text-decoration:none;text-decoration-line:none;text-decoration-style:solid;text-decoration-color:#000000;letter-spacing:normal;word-spacing:normal;text-transform:none;writing-mode:lr-tb;direction:ltr;text-orientation:mixed;dominant-baseline:auto;baseline-shift:baseline;text-anchor:start;white-space:normal;shape-padding:0;shape-margin:0;inline-size:0;clip-rule:nonzero;display:inline;overflow:visible;visibility:visible;isolation:auto;mix-blend-mode:normal;color-interpolation:sRGB;color-interpolation-filters:linearRGB;solid-color:#000000;solid-opacity:1;vector-effect:none;fill:#9a605a;fill-opacity:1;fill-rule:nonzero;stroke:none;stroke-width:0.420559;stroke-linecap:round;stroke-linejoin:round;stroke-miterlimit:4;stroke-dasharray:none;stroke-dashoffset:0;stroke-opacity:1;color-rendering:auto;image-rendering:auto;shape-rendering:auto;text-rendering:auto;enable-background:accumulate;stop-color:#000000"
         d="m 72.832031,252.48828 c -0.195158,-0.0129 -0.382407,0.0182 -0.533203,0.0586 -0.617901,0.16539 -1.177418,0.49908 -1.630859,0.94726 a 0.26460996,0.26460996 0 0 0 0.01758,0.39258 l 0.917969,0.75781 a 0.26460996,0.26460996 0 0 0 0.357422,-0.0195 c 0.376945,-0.37962 0.675185,-0.51647 1.199218,-0.64453 0.158207,-0.0387 0.266781,-0.16747 0.316406,-0.28125 0.04963,-0.11379 0.06415,-0.22579 0.06641,-0.33594 0.0045,-0.2203 -0.01291,-0.41227 -0.140625,-0.59766 -0.143001,-0.20761 -0.375154,-0.26444 -0.570313,-0.27734 z"
         id="path375" />
      <path
         id="path453"
         style="color:#000000;font-style:normal;font-variant:normal;font-weight:normal;font-stretch:normal;font-size:medium;line-height:normal;font-family:sans-serif;font-variant-ligatures:normal;font-variant-position:normal;font-variant-caps:normal;font-variant-numeric:normal;font-variant-alternates:normal;font-variant-east-asian:normal;font-feature-settings:normal;font-variation-settings:normal;text-indent:0;text-align:start;text-decoration:none;text-decoration-line:none;text-decoration-style:solid;text-decoration-color:#000000;letter-spacing:normal;word-spacing:normal;text-transform:none;writing-mode:lr-tb;direction:ltr;text-orientation:mixed;dominant-baseline:auto;baseline-shift:baseline;text-anchor:start;white-space:normal;shape-padding:0;shape-margin:0;inline-size:0;clip-rule:nonzero;display:inline;overflow:visible;visibility:visible;isolation:auto;mix-blend-mode:normal;color-interpolation:sRGB;color-interpolation-filters:linearRGB;solid-color:#000000;solid-opacity:1;vector-effect:none;fill:#349951;fill-opacity:1;fill-rule:nonzero;stroke:none;stroke-width:0.420559;stroke-linecap:round;stroke-linejoin:round;stroke-miterlimit:4;stroke-dasharray:none;stroke-dashoffset:0;stroke-opacity:1;color-rendering:auto;image-rendering:auto;shape-rendering:auto;text-rendering:auto;enable-background:accumulate;stop-color:#000000"
         d="m 69.222132,252.4301 c 0.115853,0.18296 0.248174,0.33909 0.394809,0.46819 0.446974,0.39352 0.97282,0.56811 1.391129,0.77773 a 0.26460996,0.26460996 0 0 0 0.263551,-0.016 l 0.473872,-0.30851 c -0.159743,-0.12656 -0.327642,-0.24228 -0.503328,-0.34364 -0.5657,-0.32638 -1.197411,-0.51634 -1.843815,-0.56793 v -5.3e-4 c -0.05864,-0.005 -0.117353,-0.007 -0.176218,-0.009 z" />
      <path
         id="path456"
         style="color:#000000;font-style:normal;font-variant:normal;font-weight:normal;font-stretch:normal;font-size:medium;line-height:normal;font-family:sans-serif;font-variant-ligatures:normal;font-variant-position:normal;font-variant-caps:normal;font-variant-numeric:normal;font-variant-alternates:normal;font-variant-east-asian:normal;font-feature-settings:normal;font-variation-settings:normal;text-indent:0;text-align:start;text-decoration:none;text-decoration-line:none;text-decoration-style:solid;text-decoration-color:#000000;letter-spacing:normal;word-spacing:normal;text-transform:none;writing-mode:lr-tb;direction:ltr;text-orientation:mixed;dominant-baseline:auto;baseline-shift:baseline;text-anchor:start;white-space:normal;shape-padding:0;shape-margin:0;inline-size:0;clip-rule:nonzero;display:inline;overflow:visible;visibility:visible;isolation:auto;mix-blend-mode:normal;color-interpolation:sRGB;color-interpolation-filters:linearRGB;solid-color:#000000;solid-opacity:1;vector-effect:none;fill:#66342d;fill-opacity:1;fill-rule:nonzero;stroke:none;stroke-width:0.420559;stroke-linecap:round;stroke-linejoin:round;stroke-miterlimit:4;stroke-dasharray:none;stroke-dashoffset:0;stroke-opacity:1;color-rendering:auto;image-rendering:auto;shape-rendering:auto;text-rendering:auto;enable-background:accumulate;stop-color:#000000"
         d="m 71.257667,253.01766 c -0.211119,0.13874 -0.40912,0.29805 -0.589626,0.47646 a 0.26460996,0.26460996 0 0 0 0.01757,0.39274 l 0.917773,0.75758 a 0.26460996,0.26460996 0 0 0 0.357603,-0.0196 c 0.200951,-0.20238 0.381593,-0.33321 0.583944,-0.43305 -0.34665,-0.48326 -0.786697,-0.88231 -1.287262,-1.17409 z" />
      <path
         style="color:#000000;font-style:normal;font-variant:normal;font-weight:normal;font-stretch:normal;font-size:medium;line-height:normal;font-family:sans-serif;font-variant-ligatures:normal;font-variant-position:normal;font-variant-caps:normal;font-variant-numeric:normal;font-variant-alternates:normal;font-variant-east-asian:normal;font-feature-settings:normal;font-variation-settings:normal;text-indent:0;text-align:start;text-decoration:none;text-decoration-line:none;text-decoration-style:solid;text-decoration-color:#000000;letter-spacing:normal;word-spacing:normal;text-transform:none;writing-mode:lr-tb;direction:ltr;text-orientation:mixed;dominant-baseline:auto;baseline-shift:baseline;text-anchor:start;white-space:normal;shape-padding:0;shape-margin:0;inline-size:0;clip-rule:nonzero;display:inline;overflow:visible;visibility:visible;isolation:auto;mix-blend-mode:normal;color-interpolation:sRGB;color-interpolation-filters:linearRGB;solid-color:#000000;solid-opacity:1;vector-effect:none;fill:#9ccc65;fill-opacity:1;fill-rule:nonzero;stroke:none;stroke-width:0.420559;stroke-linecap:round;stroke-linejoin:round;stroke-miterlimit:4;stroke-dasharray:none;stroke-dashoffset:0;stroke-opacity:1;color-rendering:auto;image-rendering:auto;shape-rendering:auto;text-rendering:auto;enable-background:accumulate;stop-color:#000000"
         d="m 69.357422,252.95117 c -0.572474,-0.0457 -1.157539,0.0328 -1.701172,0.2461 -1.087265,0.42667 -2.002418,1.40915 -2.289062,2.94531 l 0.002,-0.0117 c -0.304703,1.3309 -1.470158,2.01849 -2.884766,2.12891 a 0.26460996,0.26460996 0 0 0 -0.02344,0.004 c -0.559183,0.0968 -0.947156,0.40121 -1.09961,0.8086 -0.152454,0.40739 -0.09185,0.87129 0.07422,1.32812 0.332138,0.91365 1.09908,1.84851 1.947265,2.33399 0.981994,0.56205 2.528926,0.85051 4.1875,0.43359 a 0.26460996,0.26460996 0 0 0 0.0039,-0.002 c 2.515933,-0.67416 5.043595,-2.61729 5.271484,-6.13086 h -0.002 c 0.112142,-1.64752 -0.701056,-2.91486 -1.857422,-3.58204 -0.497116,-0.28681 -1.056433,-0.45626 -1.628906,-0.50195 z"
         id="path389" />
      <path
         id="path508"
         style="color:#000000;font-style:normal;font-variant:normal;font-weight:normal;font-stretch:normal;font-size:medium;line-height:normal;font-family:sans-serif;font-variant-ligatures:normal;font-variant-position:normal;font-variant-caps:normal;font-variant-numeric:normal;font-variant-alternates:normal;font-variant-east-asian:normal;font-feature-settings:normal;font-variation-settings:normal;text-indent:0;text-align:start;text-decoration:none;text-decoration-line:none;text-decoration-style:solid;text-decoration-color:#000000;letter-spacing:normal;word-spacing:normal;text-transform:none;writing-mode:lr-tb;direction:ltr;text-orientation:mixed;dominant-baseline:auto;baseline-shift:baseline;text-anchor:start;white-space:normal;shape-padding:0;shape-margin:0;inline-size:0;clip-rule:nonzero;display:inline;overflow:visible;visibility:visible;isolation:auto;mix-blend-mode:normal;color-interpolation:sRGB;color-interpolation-filters:linearRGB;solid-color:#000000;solid-opacity:1;vector-effect:none;fill:#74a838;fill-opacity:1;fill-rule:nonzero;stroke:none;stroke-width:0.420559;stroke-linecap:round;stroke-linejoin:round;stroke-miterlimit:4;stroke-dasharray:none;stroke-dashoffset:0;stroke-opacity:1;color-rendering:auto;image-rendering:auto;shape-rendering:auto;text-rendering:auto;enable-background:accumulate;stop-color:#000000"
         d="m 72.844645,256.47017 c -7.23e-4,0.012 -2.12e-4,0.0236 -0.001,0.0357 h 0.0021 c -0.227891,3.51357 -2.75558,5.45674 -5.271513,6.1309 a 0.26460996,0.26460996 0 0 1 -0.0036,0.002 c -1.658575,0.41692 -3.205867,0.12849 -4.18786,-0.43356 -0.848185,-0.48548 -1.61503,-1.42006 -1.947166,-2.33371 -0.06577,-0.18093 -0.114041,-0.36289 -0.140044,-0.54209 -0.05546,0.34028 0.008,0.70795 0.140044,1.07126 0.332136,0.91365 1.098981,1.84822 1.947166,2.3337 0.981993,0.56205 2.529285,0.85049 4.18786,0.43357 a 0.26460996,0.26460996 0 0 0 0.0036,-0.002 c 2.515933,-0.67416 5.043622,-2.61732 5.271513,-6.13089 h -0.0021 c 0.0132,-0.19386 0.01251,-0.38185 0.001,-0.56482 z" />
      <path
         id="path470"
         style="color:#000000;font-style:normal;font-variant:normal;font-weight:normal;font-stretch:normal;font-size:medium;line-height:normal;font-family:sans-serif;font-variant-ligatures:normal;font-variant-position:normal;font-variant-caps:normal;font-variant-numeric:normal;font-variant-alternates:normal;font-variant-east-asian:normal;font-feature-settings:normal;font-variation-settings:normal;text-indent:0;text-align:start;text-decoration:none;text-decoration-line:none;text-decoration-style:solid;text-decoration-color:#000000;letter-spacing:normal;word-spacing:normal;text-transform:none;writing-mode:lr-tb;direction:ltr;text-orientation:mixed;dominant-baseline:auto;baseline-shift:baseline;text-anchor:start;white-space:normal;shape-padding:0;shape-margin:0;inline-size:0;clip-rule:nonzero;display:inline;overflow:visible;visibility:visible;isolation:auto;mix-blend-mode:normal;color-interpolation:sRGB;color-interpolation-filters:linearRGB;solid-color:#000000;solid-opacity:1;vector-effect:none;fill:#74a838;fill-opacity:1;fill-rule:nonzero;stroke:none;stroke-width:0.420559;stroke-linecap:round;stroke-linejoin:round;stroke-miterlimit:4;stroke-dasharray:none;stroke-dashoffset:0;stroke-opacity:1;color-rendering:auto;image-rendering:auto;shape-rendering:auto;text-rendering:auto;enable-background:accumulate;stop-color:#000000"
         d="m 72.847234,256.92285 c -0.247645,0.16605 -0.49394,0.33579 -0.626317,0.42892 -0.374666,0.26366 -0.462155,0.68092 -0.472839,0.94878 -0.01008,0.25321 0.02681,0.47271 0.05271,0.6506 0.0013,0.008 7.94e-4,0.009 0.0021,0.0176 -0.04162,-0.007 -0.05945,-0.007 -0.103871,-0.0155 -0.185121,-0.0339 -0.403182,-0.0778 -0.652155,-0.0842 -0.243054,-0.006 -0.636408,0.0264 -0.943097,0.32453 a 0.51357494,0.51357494 0 0 0 0,0.002 c -0.195305,0.19028 -0.315743,0.33468 -0.400492,0.45114 -0.08106,0.1114 -0.114099,0.16599 -0.250113,0.32401 -0.282014,0.32756 -0.285686,0.72644 -0.248047,0.9803 0.0218,0.14711 0.06294,0.25048 0.09974,0.36742 -0.07356,-0.015 -0.112665,-0.0398 -0.19947,-0.045 -0.350604,-0.0212 -0.762336,0.0969 -1.005623,0.51573 -0.241622,0.41581 -0.555582,1.06276 -0.757578,1.4304 0.07596,-0.0163 0.151934,-0.0325 0.228412,-0.0517 a 0.26460996,0.26460996 0 0 0 0.0036,-0.002 c 2.515934,-0.67416 5.043623,-2.61732 5.271514,-6.13089 h -0.0021 c 0.0026,-0.0379 0.0021,-0.0746 0.0036,-0.11214 z" />
      <path
         style="color:#000000;font-style:normal;font-variant:normal;font-weight:normal;font-stretch:normal;font-size:medium;line-height:normal;font-family:sans-serif;font-variant-ligatures:normal;font-variant-position:normal;font-variant-caps:normal;font-variant-numeric:normal;font-variant-alternates:normal;font-variant-east-asian:normal;font-feature-settings:normal;font-variation-settings:normal;text-indent:0;text-align:start;text-decoration:none;text-decoration-line:none;text-decoration-style:solid;text-decoration-color:#000000;letter-spacing:normal;word-spacing:normal;text-transform:none;writing-mode:lr-tb;direction:ltr;text-orientation:mixed;dominant-baseline:auto;baseline-shift:baseline;text-anchor:start;white-space:normal;shape-padding:0;shape-margin:0;inline-size:0;clip-rule:nonzero;display:inline;overflow:visible;visibility:visible;isolation:auto;mix-blend-mode:normal;color-interpolation:sRGB;color-interpolation-filters:linearRGB;solid-color:#000000;solid-opacity:1;vector-effect:none;fill:#fca311;fill-opacity:1;fill-rule:nonzero;stroke:none;stroke-width:0.420559;stroke-linecap:round;stroke-linejoin:round;stroke-miterlimit:4;stroke-dasharray:none;stroke-dashoffset:0;stroke-opacity:1;color-rendering:auto;image-rendering:auto;shape-rendering:auto;text-rendering:auto;enable-background:accumulate;stop-color:#000000"
         d="m 75.927734,255.51562 a 0.26460996,0.26460996 0 0 0 -0.167968,0.0781 c -0.13292,0.13616 -0.425008,0.33674 -0.720704,0.53711 -0.185489,0.12569 -0.226407,0.30083 -0.265624,0.4707 -0.03922,0.16987 -0.05706,0.35384 -0.07422,0.53125 -0.01651,0.17073 -0.03186,0.33155 -0.05078,0.44922 -0.06981,-0.0497 -0.147865,-0.10812 -0.240235,-0.18164 -0.116331,-0.0926 -0.236511,-0.19024 -0.371094,-0.26367 -0.06729,-0.0367 -0.138976,-0.0683 -0.226562,-0.084 -0.08759,-0.0157 -0.203472,-0.0103 -0.302735,0.0508 -0.282274,0.17383 -0.791497,0.52677 -0.992187,0.66796 -0.193562,0.13621 -0.246398,0.3606 -0.253906,0.54883 -0.0075,0.18823 0.02077,0.3774 0.04687,0.55664 0.0261,0.17925 0.05095,0.3494 0.04883,0.46875 -0.0021,0.11935 -0.02821,0.1557 -0.03125,0.15821 -0.0082,0.007 -0.08122,0.0335 -0.216797,0.0273 -0.135573,-0.006 -0.314575,-0.038 -0.501953,-0.0723 -0.187378,-0.0343 -0.382251,-0.0713 -0.574219,-0.0762 -0.191967,-0.005 -0.406029,0.0181 -0.572265,0.17969 -0.178174,0.17359 -0.268157,0.28552 -0.341797,0.38672 -0.07364,0.1012 -0.128817,0.18486 -0.277344,0.35742 -0.147388,0.17119 -0.155463,0.38924 -0.128906,0.56836 0.02656,0.17912 0.08504,0.34827 0.140625,0.50977 0.05558,0.16149 0.107616,0.31465 0.126953,0.42773 0.01934,0.11308 0.0042,0.16359 -0.0059,0.17773 -0.0074,0.0104 0.01298,0.009 -0.06641,0.002 -0.07939,-0.007 -0.214246,-0.0487 -0.359375,-0.0957 -0.145129,-0.0469 -0.298936,-0.10073 -0.474609,-0.11132 -0.175673,-0.0106 -0.417043,0.0651 -0.53125,0.26172 -0.263955,0.45424 -0.656355,1.30588 -0.890625,1.6621 a 0.26460996,0.26460996 0 0 0 0.04492,0.34375 c 0.379472,0.33764 0.86092,0.52739 1.396484,0.60938 a 0.26460996,0.26460996 0 0 0 0.0098,0.002 c 0.992669,0.10981 1.927753,-0.16919 2.820312,-0.57031 a 0.26460996,0.26460996 0 0 0 0.01563,-0.006 c 1.025756,-0.5376 1.983861,-1.19571 2.796875,-2.08203 a 0.26460996,0.26460996 0 0 0 0.0098,-0.01 c 0.701906,-0.84272 1.351861,-1.72006 1.683594,-2.71875 v -0.002 c 0.204701,-0.60035 0.370582,-1.21229 0.36914,-1.83203 -0.0014,-0.62038 -0.181074,-1.24774 -0.642578,-1.82813 a 0.26460996,0.26460996 0 0 0 -0.228516,-0.0996 z"
         id="path417" />
      <path
         style="color:#000000;font-style:normal;font-variant:normal;font-weight:normal;font-stretch:normal;font-size:medium;line-height:normal;font-family:sans-serif;font-variant-ligatures:normal;font-variant-position:normal;font-variant-caps:normal;font-variant-numeric:normal;font-variant-alternates:normal;font-variant-east-asian:normal;font-feature-settings:normal;font-variation-settings:normal;text-indent:0;text-align:start;text-decoration:none;text-decoration-line:none;text-decoration-style:solid;text-decoration-color:#000000;letter-spacing:normal;word-spacing:normal;text-transform:none;writing-mode:lr-tb;direction:ltr;text-orientation:mixed;dominant-baseline:auto;baseline-shift:baseline;text-anchor:start;white-space:normal;shape-padding:0;shape-margin:0;inline-size:0;clip-rule:nonzero;display:inline;overflow:visible;visibility:visible;isolation:auto;mix-blend-mode:normal;color-interpolation:sRGB;color-interpolation-filters:linearRGB;solid-color:#000000;solid-opacity:1;vector-effect:none;fill:#ca7d02;fill-opacity:1;fill-rule:nonzero;stroke:none;stroke-width:0.420559;stroke-linecap:round;stroke-linejoin:round;stroke-miterlimit:4;stroke-dasharray:none;stroke-dashoffset:0;stroke-opacity:1;color-rendering:auto;image-rendering:auto;shape-rendering:auto;text-rendering:auto;enable-background:accumulate;stop-color:#000000"
         d="m 76.5,256.81445 a 0.2645835,0.2645835 0 0 0 -0.177734,0.0762 l -7.375,7.32227 a 0.2645835,0.2645835 0 0 0 -0.002,0.375 0.2645835,0.2645835 0 0 0 0.375,0 l 7.375,-7.32031 a 0.2645835,0.2645835 0 0 0 0,-0.375 A 0.2645835,0.2645835 0 0 0 76.5,256.81445 Z"
         id="path433" />
      <path
         id="path441"
         style="color:#000000;font-style:normal;font-variant:normal;font-weight:normal;font-stretch:normal;font-size:medium;line-height:normal;font-family:sans-serif;font-variant-ligatures:normal;font-variant-position:normal;font-variant-caps:normal;font-variant-numeric:normal;font-variant-alternates:normal;font-variant-east-asian:normal;font-feature-settings:normal;font-variation-settings:normal;text-indent:0;text-align:start;text-decoration:none;text-decoration-line:none;text-decoration-style:solid;text-decoration-color:#000000;letter-spacing:normal;word-spacing:normal;text-transform:none;writing-mode:lr-tb;direction:ltr;text-orientation:mixed;dominant-baseline:auto;baseline-shift:baseline;text-anchor:start;white-space:normal;shape-padding:0;shape-margin:0;inline-size:0;clip-rule:nonzero;display:inline;overflow:visible;visibility:visible;isolation:auto;mix-blend-mode:normal;color-interpolation:sRGB;color-interpolation-filters:linearRGB;solid-color:#000000;solid-opacity:1;vector-effect:none;fill:#ca7d02;fill-opacity:1;fill-rule:nonzero;stroke:none;stroke-width:0.420559;stroke-linecap:round;stroke-linejoin:round;stroke-miterlimit:4;stroke-dasharray:none;stroke-dashoffset:0;stroke-opacity:1;color-rendering:auto;image-rendering:auto;shape-rendering:auto;text-rendering:auto;enable-background:accumulate;stop-color:#000000"
         d="m 69.892377,261.50138 c 0.03888,0.11621 0.07338,0.22648 0.08785,0.3111 0.01934,0.11308 0.0044,0.16362 -0.0057,0.17776 -0.0074,0.0104 0.01326,0.009 -0.06614,0.002 -0.07939,-0.007 -0.214538,-0.0491 -0.359667,-0.0961 -0.0047,-0.002 -0.0098,-0.003 -0.01447,-0.005 l 2.092897,2.1456 a 0.2645835,0.2645835 0 0 0 0.279569,0.0636 c 0.0056,-0.003 0.0114,-0.005 0.01707,-0.007 a 0.26460996,0.26460996 0 0 0 0.0088,-0.003 0.2645835,0.2645835 0 0 0 0.0021,-0.001 0.2645835,0.2645835 0 0 0 0.06563,-0.0465 0.2645835,0.2645835 0 0 0 0.0057,-0.37465 z" />
      <path
         id="path437"
         style="color:#000000;font-style:normal;font-variant:normal;font-weight:normal;font-stretch:normal;font-size:medium;line-height:normal;font-family:sans-serif;font-variant-ligatures:normal;font-variant-position:normal;font-variant-caps:normal;font-variant-numeric:normal;font-variant-alternates:normal;font-variant-east-asian:normal;font-feature-settings:normal;font-variation-settings:normal;text-indent:0;text-align:start;text-decoration:none;text-decoration-line:none;text-decoration-style:solid;text-decoration-color:#000000;letter-spacing:normal;word-spacing:normal;text-transform:none;writing-mode:lr-tb;direction:ltr;text-orientation:mixed;dominant-baseline:auto;baseline-shift:baseline;text-anchor:start;white-space:normal;shape-padding:0;shape-margin:0;inline-size:0;clip-rule:nonzero;display:inline;overflow:visible;visibility:visible;isolation:auto;mix-blend-mode:normal;color-interpolation:sRGB;color-interpolation-filters:linearRGB;solid-color:#000000;solid-opacity:1;vector-effect:none;fill:#ca7d02;fill-opacity:1;fill-rule:nonzero;stroke:none;stroke-width:0.420559;stroke-linecap:round;stroke-linejoin:round;stroke-miterlimit:4;stroke-dasharray:none;stroke-dashoffset:0;stroke-opacity:1;color-rendering:auto;image-rendering:auto;shape-rendering:auto;text-rendering:auto;enable-background:accumulate;stop-color:#000000"
         d="m 72.34184,259.12323 c 0.0099,0.0837 0.01662,0.16013 0.0155,0.22221 -0.0021,0.11935 -0.02797,0.15614 -0.031,0.15865 -0.0082,0.007 -0.08147,0.0331 -0.217043,0.0269 -0.03541,-0.002 -0.08021,-0.009 -0.120922,-0.0134 l 2.361097,2.49028 a 0.2645835,0.2645835 0 0 0 0.375171,0.01 0.2645835,0.2645835 0 0 0 0.01188,-0.0119 0.26460996,0.26460996 0 0 0 0.0036,-0.004 0.2645835,0.2645835 0 0 0 -0.0057,-0.35708 l -2.369365,-2.50011 a 0.2645835,0.2645835 0 0 0 -0.02326,-0.0212 z" />
      <path
         id="path429"
         style="color:#000000;font-style:normal;font-variant:normal;font-weight:normal;font-stretch:normal;font-size:medium;line-height:normal;font-family:sans-serif;font-variant-ligatures:normal;font-variant-position:normal;font-variant-caps:normal;font-variant-numeric:normal;font-variant-alternates:normal;font-variant-east-asian:normal;font-feature-settings:normal;font-variation-settings:normal;text-indent:0;text-align:start;text-decoration:none;text-decoration-line:none;text-decoration-style:solid;text-decoration-color:#000000;letter-spacing:normal;word-spacing:normal;text-transform:none;writing-mode:lr-tb;direction:ltr;text-orientation:mixed;dominant-baseline:auto;baseline-shift:baseline;text-anchor:start;white-space:normal;shape-padding:0;shape-margin:0;inline-size:0;clip-rule:nonzero;display:inline;overflow:visible;visibility:visible;isolation:auto;mix-blend-mode:normal;color-interpolation:sRGB;color-interpolation-filters:linearRGB;solid-color:#000000;solid-opacity:1;vector-effect:none;fill:#ca7d02;fill-opacity:1;fill-rule:nonzero;stroke:none;stroke-width:0.420559;stroke-linecap:round;stroke-linejoin:round;stroke-miterlimit:4;stroke-dasharray:none;stroke-dashoffset:0;stroke-opacity:1;color-rendering:auto;image-rendering:auto;shape-rendering:auto;text-rendering:auto;enable-background:accumulate;stop-color:#000000"
         d="m 74.712755,257.01019 c -0.0042,0.0409 -0.0095,0.0819 -0.01344,0.12247 -0.01651,0.17073 -0.03172,0.33191 -0.05064,0.44958 -0.06981,-0.0497 -0.147926,-0.10838 -0.240295,-0.1819 -0.05381,-0.0428 -0.108862,-0.0866 -0.165364,-0.12867 l 1.731677,2.08979 a 0.2645835,0.2645835 0 0 0 0.373102,0.0351 0.2645835,0.2645835 0 0 0 0.07596,-0.10335 c 5.3e-4,-10e-4 0.0011,-0.002 0.0016,-0.004 a 0.2645835,0.2645835 0 0 0 0.0047,-0.0129 v -0.002 c 0.0019,-0.005 0.0034,-0.0103 0.0052,-0.0155 a 0.2645835,0.2645835 0 0 0 -0.05219,-0.23616 z" />
      <path
         style="color:#000000;font-style:normal;font-variant:normal;font-weight:normal;font-stretch:normal;font-size:medium;line-height:normal;font-family:sans-serif;font-variant-ligatures:normal;font-variant-position:normal;font-variant-caps:normal;font-variant-numeric:normal;font-variant-alternates:normal;font-variant-east-asian:normal;font-feature-settings:normal;font-variation-settings:normal;text-indent:0;text-align:start;text-decoration:none;text-decoration-line:none;text-decoration-style:solid;text-decoration-color:#000000;letter-spacing:normal;word-spacing:normal;text-transform:none;writing-mode:lr-tb;direction:ltr;text-orientation:mixed;dominant-baseline:auto;baseline-shift:baseline;text-anchor:start;white-space:normal;shape-padding:0;shape-margin:0;inline-size:0;clip-rule:nonzero;display:inline;overflow:visible;visibility:visible;isolation:auto;mix-blend-mode:normal;color-interpolation:sRGB;color-interpolation-filters:linearRGB;solid-color:#000000;solid-opacity:1;vector-effect:none;fill:#9ccc65;fill-opacity:1;fill-rule:nonzero;stroke:none;stroke-width:0.420559;stroke-linecap:round;stroke-linejoin:round;stroke-miterlimit:4;stroke-dasharray:none;stroke-dashoffset:0;stroke-opacity:1;color-rendering:auto;image-rendering:auto;shape-rendering:auto;text-rendering:auto;enable-background:accumulate;stop-color:#000000"
         d="m 75.914062,255.48828 a 0.26460996,0.26460996 0 0 0 -0.177734,0.44727 v 0.002 c 0.564301,0.56229 0.674935,1.52814 0.365234,2.64844 -0.3097,1.1203 -1.036025,2.35829 -2.044921,3.36718 -0.977537,0.97755 -2.210293,1.71337 -3.335938,2.03516 -1.125645,0.32179 -2.106136,0.2278 -2.685547,-0.34961 a 0.26460996,0.26460996 0 0 0 -0.375,0.37305 c 1.366931,1.36453 2.826169,1.74161 4.173828,1.48047 1.34766,-0.26115 2.574164,-1.12494 3.605469,-2.15625 1.062924,-1.06293 1.917773,-2.29855 2.166016,-3.64258 0.248242,-1.34403 -0.143781,-2.78292 -1.494141,-4.13086 a 0.26460996,0.26460996 0 0 0 -0.197266,-0.0742 z"
         id="path403" />
      <path
         style="color:#000000;font-style:normal;font-variant:normal;font-weight:normal;font-stretch:normal;font-size:medium;line-height:normal;font-family:sans-serif;font-variant-ligatures:normal;font-variant-position:normal;font-variant-caps:normal;font-variant-numeric:normal;font-variant-alternates:normal;font-variant-east-asian:normal;font-feature-settings:normal;font-variation-settings:normal;text-indent:0;text-align:start;text-decoration:none;text-decoration-line:none;text-decoration-style:solid;text-decoration-color:#000000;letter-spacing:normal;word-spacing:normal;text-transform:none;writing-mode:lr-tb;direction:ltr;text-orientation:mixed;dominant-baseline:auto;baseline-shift:baseline;text-anchor:start;white-space:normal;shape-padding:0;shape-margin:0;inline-size:0;clip-rule:nonzero;display:inline;overflow:visible;visibility:visible;isolation:auto;mix-blend-mode:normal;color-interpolation:sRGB;color-interpolation-filters:linearRGB;solid-color:#000000;solid-opacity:1;vector-effect:none;fill:#badb94;fill-opacity:1;fill-rule:nonzero;stroke:none;stroke-width:0.420559;stroke-linecap:round;stroke-linejoin:round;stroke-miterlimit:4;stroke-dasharray:none;stroke-dashoffset:0;stroke-opacity:1;color-rendering:auto;image-rendering:auto;shape-rendering:auto;text-rendering:auto;enable-background:accumulate;stop-color:#000000"
         d="m 68.689453,253.89453 c -0.428786,-0.0445 -0.799652,0.13648 -1.089844,0.39258 a 0.2645835,0.2645835 0 0 0 -0.02344,0.37305 0.2645835,0.2645835 0 0 0 0.373047,0.0234 c 0.223582,-0.19731 0.425623,-0.29061 0.685547,-0.26367 a 0.2645835,0.2645835 0 0 0 0.291015,-0.23633 0.2645835,0.2645835 0 0 0 -0.236328,-0.28906 z"
         id="path351" />
      <path
         style="color:#000000;font-style:normal;font-variant:normal;font-weight:normal;font-stretch:normal;font-size:medium;line-height:normal;font-family:sans-serif;font-variant-ligatures:normal;font-variant-position:normal;font-variant-caps:normal;font-variant-numeric:normal;font-variant-alternates:normal;font-variant-east-asian:normal;font-feature-settings:normal;font-variation-settings:normal;text-indent:0;text-align:start;text-decoration:none;text-decoration-line:none;text-decoration-style:solid;text-decoration-color:#000000;letter-spacing:normal;word-spacing:normal;text-transform:none;writing-mode:lr-tb;direction:ltr;text-orientation:mixed;dominant-baseline:auto;baseline-shift:baseline;text-anchor:start;white-space:normal;shape-padding:0;shape-margin:0;inline-size:0;clip-rule:nonzero;display:inline;overflow:visible;visibility:visible;isolation:auto;mix-blend-mode:normal;color-interpolation:sRGB;color-interpolation-filters:linearRGB;solid-color:#000000;solid-opacity:1;vector-effect:none;fill:#badb94;fill-opacity:1;fill-rule:nonzero;stroke:none;stroke-width:0.420559;stroke-linecap:round;stroke-linejoin:round;stroke-miterlimit:4;stroke-dasharray:none;stroke-dashoffset:0;stroke-opacity:1;color-rendering:auto;image-rendering:auto;shape-rendering:auto;text-rendering:auto;enable-background:accumulate;stop-color:#000000"
         d="m 67.148438,254.87891 a 0.2645835,0.2645835 0 0 0 -0.208985,0.10547 c -0.195196,0.25844 -0.427889,0.5907 -0.542969,1.23046 a 0.2645835,0.2645835 0 0 0 0.212891,0.30664 0.2645835,0.2645835 0 0 0 0.308594,-0.21289 c 0.10047,-0.55854 0.25154,-0.75188 0.443359,-1.00586 a 0.2645835,0.2645835 0 0 0 -0.05273,-0.37109 0.2645835,0.2645835 0 0 0 -0.160156,-0.0527 z"
         id="path355" />
      <path
         id="path465"
         style="color:#000000;font-style:normal;font-variant:normal;font-weight:normal;font-stretch:normal;font-size:medium;line-height:normal;font-family:sans-serif;font-variant-ligatures:normal;font-variant-position:normal;font-variant-caps:normal;font-variant-numeric:normal;font-variant-alternates:normal;font-variant-east-asian:normal;font-feature-settings:normal;font-variation-settings:normal;text-indent:0;text-align:start;text-decoration:none;text-decoration-line:none;text-decoration-style:solid;text-decoration-color:#000000;letter-spacing:normal;word-spacing:normal;text-transform:none;writing-mode:lr-tb;direction:ltr;text-orientation:mixed;dominant-baseline:auto;baseline-shift:baseline;text-anchor:start;white-space:normal;shape-padding:0;shape-margin:0;inline-size:0;clip-rule:nonzero;display:inline;overflow:visible;visibility:visible;isolation:auto;mix-blend-mode:normal;color-interpolation:sRGB;color-interpolation-filters:linearRGB;solid-color:#000000;solid-opacity:1;vector-effect:none;fill:#74a838;fill-opacity:1;fill-rule:nonzero;stroke:none;stroke-width:0.420559;stroke-linecap:round;stroke-linejoin:round;stroke-miterlimit:4;stroke-dasharray:none;stroke-dashoffset:0;stroke-opacity:1;color-rendering:auto;image-rendering:auto;shape-rendering:auto;text-rendering:auto;enable-background:accumulate;stop-color:#000000"
         d="m 75.930764,255.48782 c -0.0055,0 -0.01103,1.7e-4 -0.01654,5.1e-4 -0.106906,0.005 -0.200117,0.0744 -0.236162,0.17518 1.270694,1.3188 1.640449,2.71904 1.398366,4.02973 -0.248243,1.34403 -1.103352,2.57974 -2.166276,3.64267 -1.031307,1.03131 -2.257806,1.89531 -3.605464,2.15646 -0.175033,0.0339 -0.351854,0.0566 -0.530202,0.0682 0.358204,0.0233 0.712473,-9.9e-4 1.059368,-0.0682 1.347658,-0.26115 2.574158,-1.12515 3.605464,-2.15646 1.062924,-1.06293 1.918034,-2.29864 2.166276,-3.64267 0.248243,-1.34403 -0.144121,-2.78255 -1.494483,-4.13049 -0.04837,-0.047 -0.112882,-0.0738 -0.18035,-0.0749 z"
         sodipodi:nodetypes="cccsscccssccc" />
    </g>
  </g>
</svg>
