<?xml version="1.0" encoding="UTF-8" standalone="no"?>
<!-- Created with Inkscape (http://www.inkscape.org/) -->

<svg
   width="64pt"
   height="64pt"
   viewBox="0 0 22.577778 22.577778"
   version="1.1"
   id="svg831"
   inkscape:version="1.1.1 (3bf5ae0d25, 2021-09-20)"
   sodipodi:docname="Export - Unblash - 64px.svg"
   inkscape:export-filename="C:\Users\User\Desktop\CARLOS PROJECT\2. FEBRUARI 1\DONE\26 - Soursop.png"
   inkscape:export-xdpi="576"
   inkscape:export-ydpi="576"
   xmlns:inkscape="http://www.inkscape.org/namespaces/inkscape"
   xmlns:sodipodi="http://sodipodi.sourceforge.net/DTD/sodipodi-0.dtd"
   xmlns="http://www.w3.org/2000/svg"
   xmlns:svg="http://www.w3.org/2000/svg"
   xmlns:rdf="http://www.w3.org/1999/02/22-rdf-syntax-ns#"
   xmlns:cc="http://creativecommons.org/ns#"
   xmlns:dc="http://purl.org/dc/elements/1.1/">
  <defs
     id="defs825">
    <pattern
       id="EMFhbasepattern"
       patternUnits="userSpaceOnUse"
       width="6"
       height="6"
       x="0"
       y="0" />
    <pattern
       id="EMFhbasepattern-9"
       patternUnits="userSpaceOnUse"
       width="6"
       height="6"
       x="0"
       y="0" />
    <pattern
       id="EMFhbasepattern-0"
       patternUnits="userSpaceOnUse"
       width="6"
       height="6"
       x="0"
       y="0" />
    <pattern
       id="EMFhbasepattern-7"
       patternUnits="userSpaceOnUse"
       width="6"
       height="6"
       x="0"
       y="0" />
    <pattern
       id="EMFhbasepattern-2"
       patternUnits="userSpaceOnUse"
       width="6"
       height="6"
       x="0"
       y="0" />
    <pattern
       id="EMFhbasepattern-98"
       patternUnits="userSpaceOnUse"
       width="6"
       height="6"
       x="0"
       y="0" />
    <pattern
       id="EMFhbasepattern-6"
       patternUnits="userSpaceOnUse"
       width="6"
       height="6"
       x="0"
       y="0" />
    <pattern
       id="EMFhbasepattern-01"
       patternUnits="userSpaceOnUse"
       width="6"
       height="6"
       x="0"
       y="0" />
    <pattern
       id="EMFhbasepattern-07"
       patternUnits="userSpaceOnUse"
       width="6"
       height="6"
       x="0"
       y="0" />
    <pattern
       id="EMFhbasepattern-8"
       patternUnits="userSpaceOnUse"
       width="6"
       height="6"
       x="0"
       y="0" />
    <pattern
       id="EMFhbasepattern-4"
       patternUnits="userSpaceOnUse"
       width="6"
       height="6"
       x="0"
       y="0" />
    <pattern
       id="EMFhbasepattern-40"
       patternUnits="userSpaceOnUse"
       width="6"
       height="6"
       x="0"
       y="0" />
    <pattern
       id="EMFhbasepattern-08"
       patternUnits="userSpaceOnUse"
       width="6"
       height="6"
       x="0"
       y="0" />
    <pattern
       id="EMFhbasepattern-04"
       patternUnits="userSpaceOnUse"
       width="6"
       height="6"
       x="0"
       y="0" />
    <pattern
       id="EMFhbasepattern-014"
       patternUnits="userSpaceOnUse"
       width="6"
       height="6"
       x="0"
       y="0" />
    <pattern
       id="EMFhbasepattern-27"
       patternUnits="userSpaceOnUse"
       width="6"
       height="6"
       x="0"
       y="0" />
    <pattern
       id="EMFhbasepattern-09"
       patternUnits="userSpaceOnUse"
       width="6"
       height="6"
       x="0"
       y="0" />
    <pattern
       id="EMFhbasepattern-5"
       patternUnits="userSpaceOnUse"
       width="6"
       height="6"
       x="0"
       y="0" />
    <pattern
       id="EMFhbasepattern-018"
       patternUnits="userSpaceOnUse"
       width="6"
       height="6"
       x="0"
       y="0" />
  </defs>
  <sodipodi:namedview
     id="base"
     pagecolor="#ffffff"
     bordercolor="#666666"
     borderopacity="1.0"
     inkscape:pageopacity="0.0"
     inkscape:pageshadow="2"
     inkscape:zoom="9.1757813"
     inkscape:cx="42.612175"
     inkscape:cy="42.666667"
     inkscape:document-units="pt"
     inkscape:current-layer="svg831"
     showgrid="false"
     units="pt"
     inkscape:window-width="1920"
     inkscape:window-height="1001"
     inkscape:window-x="-9"
     inkscape:window-y="41"
     inkscape:window-maximized="1"
     inkscape:pagecheckerboard="true"
     inkscape:showpageshadow="false"
     inkscape:object-paths="true"
     inkscape:snap-intersection-paths="true"
     inkscape:snap-smooth-nodes="true"
     inkscape:snap-midpoints="true"
     showguides="true"
     inkscape:snap-bbox="true"
     inkscape:bbox-nodes="true"
     inkscape:snap-nodes="false"
     inkscape:snap-global="true">
    <inkscape:grid
       type="xygrid"
       id="grid1378" />
    <sodipodi:guide
       position="0.97013831,21.607643"
       orientation="78.000048,0"
       id="guide1380"
       inkscape:locked="false" />
    <sodipodi:guide
       position="0.97013831,0.97013129"
       orientation="0,78.000005"
       id="guide1382"
       inkscape:locked="false" />
    <sodipodi:guide
       position="21.607639,0.97013129"
       orientation="-78.000048,0"
       id="guide1384"
       inkscape:locked="false" />
    <sodipodi:guide
       position="21.607639,21.607643"
       orientation="0,-78.000005"
       id="guide1386"
       inkscape:locked="false" />
  </sodipodi:namedview>
  <metadata
     id="metadata828">
    <rdf:RDF>
      <cc:Work
         rdf:about="">
        <dc:format>image/svg+xml</dc:format>
        <dc:type
           rdf:resource="http://purl.org/dc/dcmitype/StillImage" />
      </cc:Work>
    </rdf:RDF>
  </metadata>
  <g
     inkscape:label="Icon"
     inkscape:groupmode="layer"
     id="layer1"
     transform="translate(0,-274.42223)" />
  <g
     id="g457074"
     style="display:inline;stroke-width:0.794909"
     transform="matrix(1.2580055,0,0,1.2580055,-37.735221,-391.62997)">
    <g
       id="g133305"
       style="stroke-width:0.794909">
      <path
         style="color:#000000;fill:#359a53;stroke-width:0.794909;stroke-linecap:round;stroke-linejoin:round;-inkscape-stroke:none"
         d="m 34.425781,315.58203 c -1.263375,0.83629 -2.544424,1.44298 -3.548828,2.53906 a 0.26460996,0.26460996 0 0 0 0.01172,0.36719 c 0,0 1.386522,1.35927 3.283203,1.71289 a 0.26460996,0.26460996 0 0 0 0.117187,-0.004 l 3.841797,-1.02344 a 0.26460996,0.26460996 0 0 0 0.107422,-0.45117 l -3.490234,-3.11914 a 0.26460996,0.26460996 0 0 0 -0.322266,-0.0215 z"
         id="path615141" />
      <path
         id="path87074"
         style="color:#000000;fill:#26783f;fill-opacity:1;stroke-width:0.794909;stroke-linecap:round;stroke-linejoin:round;-inkscape-stroke:none"
         d="m 34.463015,320.15063 c -1.773542,-0.41612 -3.045292,-1.66243 -3.045292,-1.66243 -0.101799,-0.0994 -0.106822,-0.26143 -0.01137,-0.36691 0.969026,-1.05747 2.195053,-1.66047 3.414778,-2.45256 l -0.395324,-0.087 c -1.263375,0.83629 -2.544217,1.4433 -3.548621,2.53937 -0.09545,0.10548 -0.09043,0.26755 0.01137,0.36691 0,0 1.386839,1.35945 3.28352,1.71307 z"
         sodipodi:nodetypes="ccccccccc" />
      <path
         style="color:#000000;fill:#032927;fill-opacity:1;stroke-width:0.794909;stroke-linecap:round;stroke-linejoin:round;-inkscape-stroke:none"
         d="m 35.033203,318.10937 -1.851562,0.0566 c -0.146983,0.004 -0.262775,0.12649 -0.257813,0.27343 0.0047,0.14621 0.127232,0.26083 0.273438,0.25586 l 1.851562,-0.0566 z"
         id="path16388"
         sodipodi:nodetypes="cccccc" />
      <path
         style="color:#000000;fill:#50b86b;stroke-width:0.794909;stroke-linecap:round;stroke-linejoin:round;-inkscape-stroke:none"
         d="m 31.515625,314.21289 c -0.132569,0.0459 -0.206264,0.1873 -0.167969,0.32227 0,0 0.681134,2.46572 2.699219,3.63086 0.617449,0.35648 1.2353,0.6142 1.816406,0.7871 l 0.900391,0.54102 c 0.11769,0.07 0.269332,0.0386 0.349609,-0.0723 l 3.103516,-4.2539 c 0.118718,-0.16439 0.01601,-0.39574 -0.185547,-0.41794 -2.879114,-0.13169 -5.783933,-1.15178 -8.515625,-0.53711 z"
         id="path615333"
         sodipodi:nodetypes="ccscccccc" />
      <path
         id="path85078"
         style="color:#000000;fill:#359a53;fill-opacity:1;stroke-width:0.794909;stroke-linecap:round;stroke-linejoin:round;-inkscape-stroke:none"
         d="m 35.49603,314.08992 c -1.320846,-0.14569 -2.722113,-0.29493 -3.98064,0.12298 -0.132654,0.0459 -0.206362,0.18744 -0.167948,0.32246 0,0 0.02723,0.0964 0.08423,0.25683 0.02456,-0.0217 0.05295,-0.0387 0.08372,-0.0501 1.332768,-0.40092 2.722869,-0.27856 3.980636,-0.12299 z"
         sodipodi:nodetypes="ccccccc" />
      <path
         id="path15462"
         style="color:#000000;fill:#032927;fill-opacity:1;stroke-width:3.00438;stroke-linecap:round;stroke-linejoin:round;-inkscape-stroke:none"
         d="m 125.63281,133.41211 c -0.32319,0.44626 -0.22449,1.06988 0.22071,1.39453 1.53002,1.11317 2.99776,2.02109 4.40429,2.76367 l -0.45508,0.26367 c -0.47612,0.27773 -0.63772,0.88835 -0.36132,1.36524 0.27772,0.47611 0.88834,0.63772 1.36523,0.36133 l 1.63477,-0.94336 c 0.49944,0.21557 0.98978,0.41183 1.47265,0.58984 0.51998,0.19117 1.09628,-0.0768 1.28516,-0.59765 0.19194,-0.51776 -0.0721,-1.0931 -0.58984,-1.28516 -2.73899,-1.03047 -5.54467,-2.66213 -7.58204,-4.13281 -0.589,-0.35732 -1.08149,-0.15148 -1.39453,0.2207 z"
         transform="matrix(0.26458334,0,0,0.26458334,0,280.06666)"
         sodipodi:nodetypes="cccccccccccc" />
      <path
         style="color:#000000;fill:#50b86b;stroke-width:0.794909;stroke-linecap:round;stroke-linejoin:round;-inkscape-stroke:none"
         d="m 35.115234,312.0918 a 0.26460996,0.26460996 0 0 0 -0.330078,0.18945 c 0,0 -0.643653,2.47606 0.521485,4.49414 0.290238,0.50271 0.602074,0.94339 0.939453,1.32422 a 0.26460996,0.26460996 0 0 0 0.33789,0.0488 l 3.105469,-1.94922 a 0.26460996,0.26460996 0 0 0 0.06055,-0.3945 c -0.834903,-0.98467 -1.369916,-1.72669 -2.017578,-2.32617 -0.647663,-0.59948 -1.405493,-1.03791 -2.617188,-1.38672 z"
         id="path615525" />
      <path
         id="path80043"
         style="color:#000000;fill:#359a53;fill-opacity:1;stroke-width:0.794909;stroke-linecap:round;stroke-linejoin:round;-inkscape-stroke:none"
         d="m 34.784958,312.28123 c -0.271478,1.70832 -0.484805,3.60235 1.460893,5.81825 0.04359,0.0485 0.10359,0.0793 0.168465,0.0863 -1.178962,-1.50038 -1.501251,-3.46894 -1.100191,-5.37538 0.03653,-0.1453 0.1863,-0.23132 0.330212,-0.18965 1.168134,0.33626 1.914686,0.75606 2.547131,1.32291 -0.150339,-0.16436 -0.301141,-0.31907 -0.458886,-0.46509 -0.647663,-0.59947 -1.405717,-1.03818 -2.617412,-1.38699 -0.16343,-0.0405 -0.302909,0.0669 -0.330212,0.18965 z"
         sodipodi:nodetypes="ccccccccc" />
      <path
         id="path13577"
         style="color:#000000;fill:#032927;fill-opacity:1;stroke-width:3.00438;stroke-linecap:round;stroke-linejoin:round;-inkscape-stroke:none"
         d="m 136.0332,128.08984 c -0.50242,0.22348 -0.73014,0.81068 -0.50976,1.31446 0.76865,1.72947 1.58853,3.2498 2.4375,4.59765 h -0.52539 c -0.55,0.002 -0.99503,0.44805 -0.9961,0.99805 -0.002,0.55229 0.44381,1.00176 0.9961,1.00391 h 1.89648 c 0.14998,0.20127 0.30022,0.39755 0.45117,0.58984 0.343,0.43108 0.97005,0.50357 1.40235,0.16211 0.43357,-0.34066 0.50959,-0.96799 0.16992,-1.40234 -1.39649,-1.77888 -2.75611,-3.96295 -4,-6.76172 -0.38063,-0.61214 -0.81873,-0.68252 -1.32227,-0.50196 z"
         transform="matrix(0.26458334,0,0,0.26458334,0,280.06666)"
         sodipodi:nodetypes="cccccccccccc" />
      <path
         style="color:#000000;fill:#032927;stroke-width:0.794909;stroke-linecap:round;stroke-linejoin:round;-inkscape-stroke:none"
         d="m 40.603516,312.1992 c -0.08071,0.12236 -0.04655,0.28703 0.07617,0.36719 0.400842,0.26468 0.550318,0.42329 0.628907,0.63086 0.07859,0.20756 0.08594,0.52839 0.08594,1.08007 4.98e-4,0.14618 0.119445,0.26426 0.265625,0.26368 0.145417,-5e-4 0.263176,-0.11826 0.263672,-0.26368 0,-0.55168 0.0092,-0.92344 -0.121094,-1.26757 -0.130293,-0.34414 -0.397347,-0.59774 -0.832031,-0.88477 -0.151943,-0.0807 -0.283232,-0.04 -0.367189,0.0742 z"
         id="path2035"
         sodipodi:nodetypes="ccscccscc" />
      <path
         style="color:#000000;fill:#983471;stroke-width:0.794909;stroke-linecap:round;stroke-linejoin:round;-inkscape-stroke:none"
         d="m 41.574219,313.18555 c -2.853246,0 -5.187719,2.39246 -5.517578,5.44531 a 0.26460996,0.26460996 0 0 0 0.04883,0.18359 c 0.951618,1.31442 1.730617,3.25489 2.787109,4.71289 0.528246,0.72901 1.133865,1.34457 1.890625,1.68164 0.756761,0.33708 1.657552,0.37604 2.697266,-0.008 a 0.26460996,0.26460996 0 0 0 0.0078,-0.004 c 2.138284,-0.8748 3.642578,-3.15767 3.642578,-5.81836 1e-6,-3.40298 -2.47388,-6.19336 -5.55664,-6.19336 z"
         id="path615717" />
      <path
         id="path78476"
         style="color:#000000;fill:#812c5f;fill-opacity:1;stroke-width:0.794909;stroke-linecap:round;stroke-linejoin:round;-inkscape-stroke:none"
         d="m 36.585881,319.15988 c 0.329859,-3.05285 2.664249,-5.44514 5.517494,-5.44514 v -5.2e-4 c 1.298895,0 2.489661,0.49559 3.432866,1.32343 -1.005911,-1.1415 -2.406216,-1.8526 -3.962033,-1.8526 v 5.2e-4 c -2.853246,0 -5.187636,2.3923 -5.517494,5.44515 1.048083,1.62783 0.82454,1.64772 0.529167,0.52916 z"
         sodipodi:nodetypes="cccccccc" />
      <path
         id="path77141"
         style="fill:#812c5f;fill-opacity:1;stroke-width:3.00438;stroke-linecap:round;stroke-linejoin:round"
         d="m 137.10742,141.49023 c -0.39151,1.37203 -0.67167,2.79763 -0.83008,4.26368 3.88239,6.06169 7.01253,13.28395 10.71875,18.50781 1.99652,2.75531 4.28434,5.0815 7.14453,6.35547 2.79995,1.24716 6.12405,1.40986 9.94922,0.0547 5.75403,-20.4245 -10.18813,-31.62578 -26.98242,-29.18165 z"
         transform="matrix(0.26458334,0,0,0.26458334,0,280.06666)"
         sodipodi:nodetypes="cccsccc" />
      <path
         style="color:#000000;fill:#983471;stroke-width:0.794909;stroke-linecap:round;stroke-linejoin:round;-inkscape-stroke:none"
         d="m 37.6875,318.23047 c -2.788571,0 -5.113009,2.29467 -5.128906,5.12695 -0.0159,2.8331 2.300411,5.12891 5.128906,5.12891 2.828677,0 5.126952,-2.30023 5.126953,-5.12891 -10e-7,-2.83145 -2.338196,-5.12695 -5.126953,-5.12695 z"
         id="path608497" />
      <path
         style="color:#000000;fill:#e8cf76;fill-opacity:1;stroke-width:0.794909;stroke-linecap:round;stroke-linejoin:round;-inkscape-stroke:none"
         d="m 37.6875,319.38867 c -2.188746,0 -3.96875,1.78001 -3.96875,3.96875 0,2.18875 1.780004,3.96875 3.96875,3.96875 2.188745,0 3.96875,-1.78 3.96875,-3.96875 0,-2.18874 -1.780005,-3.96875 -3.96875,-3.96875 z"
         id="path608689" />
      <path
         style="color:#000000;fill:#e8cf76;fill-opacity:1;stroke-width:0.794909;stroke-linecap:round;stroke-linejoin:round;-inkscape-stroke:none"
         d="m 37.6875,319.91797 c 1.902763,0 3.439453,1.53669 3.439453,3.43945 0,1.90276 -1.53669,3.43945 -3.439453,3.43945 -1.902763,0 -3.439453,-1.53669 -3.439453,-3.43945 0,-1.90276 1.53669,-3.43945 3.439453,-3.43945 z"
         id="path608695" />
      <path
         style="color:#000000;fill:#fee881;fill-opacity:1;stroke-width:0.794909;stroke-linecap:round;stroke-linejoin:round;-inkscape-stroke:none"
         d="m 37.6875,326.79687 c -1.902763,0 -3.439453,-1.53669 -3.439453,-3.43945 0,-0.55574 0.131089,-1.08026 0.363977,-1.54413 0.179812,-0.35816 0.644833,-0.82273 1.003055,-1.00242 0.463763,-0.23263 0.987934,-0.36373 1.543378,-0.36373 1.902762,0 3.439584,1.53683 3.439584,3.43959 0,0.55549 -0.131241,1.07961 -0.364191,1.54352 -0.179842,0.35815 -0.64451,0.82304 -1.002687,1.00281 -0.463915,0.23285 -0.98819,0.36381 -1.543663,0.36381 z"
         id="path127736"
         sodipodi:nodetypes="sscsscs" />
      <path
         id="path12684"
         style="color:#000000;fill:#3a4d5c;fill-opacity:1;stroke-width:3.00438;stroke-linecap:round;stroke-linejoin:round;-inkscape-stroke:none"
         d="m 142.94336,153.61914 a 1.0000006,1.0000006 0 0 0 -1.00391,1.00391 1.0000006,1.0000006 0 0 0 1.00391,0.99609 1.0000006,1.0000006 0 0 0 0.99609,-0.99609 1.0000006,1.0000006 0 0 0 -0.99609,-1.00391 z m -4.5,0.38086 a 1.0000006,1.0000006 0 0 0 -1.00391,1.00391 1.0000006,1.0000006 0 0 0 1.00391,0.99609 1.0000006,1.0000006 0 0 0 0.99609,-0.99609 A 1.0000006,1.0000006 0 0 0 138.44336,154 Z m 10.5,3 a 1.0000006,1.0000006 0 0 0 -1.00391,1.00391 1.0000006,1.0000006 0 0 0 1.00391,0.99609 1.0000006,1.0000006 0 0 0 0.99609,-0.99609 A 1.0000006,1.0000006 0 0 0 148.94336,157 Z m -14,0.61914 a 1.0000006,1.0000006 0 0 0 -1.00391,1.00391 1.0000006,1.0000006 0 0 0 1.00391,0.99609 1.0000006,1.0000006 0 0 0 0.99609,-0.99609 1.0000006,1.0000006 0 0 0 -0.99609,-1.00391 z m 8,2 a 1.0000006,1.0000006 0 0 0 -1.00391,1.00391 1.0000006,1.0000006 0 0 0 1.00391,0.99609 1.0000006,1.0000006 0 0 0 0.99609,-0.99609 1.0000006,1.0000006 0 0 0 -0.99609,-1.00391 z m 8,2 a 1.0000006,1.0000006 0 0 0 -1.00391,1.00391 1.0000006,1.0000006 0 0 0 1.00391,0.99609 1.0000006,1.0000006 0 0 0 0.99609,-0.99609 1.0000006,1.0000006 0 0 0 -0.99609,-1.00391 z m -18,2 a 1.0000006,1.0000006 0 0 0 -1.00391,1.00391 1.0000006,1.0000006 0 0 0 1.00391,0.99609 1.0000006,1.0000006 0 0 0 0.99609,-0.99609 1.0000006,1.0000006 0 0 0 -0.99609,-1.00391 z m 6,0 a 1.0000006,1.0000006 0 0 0 -1.00391,1.00391 1.0000006,1.0000006 0 0 0 1.00391,0.99609 1.0000006,1.0000006 0 0 0 0.99609,-0.99609 1.0000006,1.0000006 0 0 0 -0.99609,-1.00391 z m 8,0 a 1.0000006,1.0000006 0 0 0 -1.00391,1.00391 1.0000006,1.0000006 0 0 0 1.00391,0.99609 1.0000006,1.0000006 0 0 0 0.99609,-0.99609 1.0000006,1.0000006 0 0 0 -0.99609,-1.00391 z m 4.99805,3.00391 a 1.0000006,1.0000006 0 0 0 -1.00391,1.0039 1.0000006,1.0000006 0 0 0 1.00391,0.9961 1.0000006,1.0000006 0 0 0 0.99609,-0.9961 1.0000006,1.0000006 0 0 0 -0.99609,-1.0039 z m -15.9961,0.99609 a 1.0000006,1.0000006 0 0 0 -1.0039,1.00391 1.0000006,1.0000006 0 0 0 1.0039,0.99609 1.0000006,1.0000006 0 0 0 0.9961,-0.99609 1.0000006,1.0000006 0 0 0 -0.9961,-1.00391 z m 6.99805,0 a 1.0000006,1.0000006 0 0 0 -1.00391,1.00391 1.0000006,1.0000006 0 0 0 1.00391,0.99609 1.0000006,1.0000006 0 0 0 0.99609,-0.99609 1.0000006,1.0000006 0 0 0 -0.99609,-1.00391 z m 5.00195,0 a 1.0000006,1.0000006 0 0 0 -1.0039,1.00391 1.0000006,1.0000006 0 0 0 1.0039,0.99609 1.0000006,1.0000006 0 0 0 0.9961,-0.99609 1.0000006,1.0000006 0 0 0 -0.9961,-1.00391 z m -3.00195,4 a 1.0000006,1.0000006 0 0 0 -1.00391,1.00391 1.0000006,1.0000006 0 0 0 1.00391,0.99609 1.0000006,1.0000006 0 0 0 0.99609,-0.99609 1.0000006,1.0000006 0 0 0 -0.99609,-1.00391 z m -6.00195,0.002 a 1.0000006,1.0000006 0 0 0 -1.00391,1.00391 1.0000006,1.0000006 0 0 0 1.00391,0.99805 1.0000006,1.0000006 0 0 0 0.99609,-0.99805 1.0000006,1.0000006 0 0 0 -0.99609,-1.00391 z"
         transform="matrix(0.26458334,0,0,0.26458334,0,280.06666)" />
      <path
         style="color:#000000;fill:#812c5f;fill-opacity:1;stroke-width:0.794909;stroke-linecap:round;stroke-linejoin:round;-inkscape-stroke:none"
         d="m 43.277344,314.95117 a 0.2645835,0.2645835 0 0 0 -0.357422,0.11328 0.2645835,0.2645835 0 0 0 0.111328,0.35547 c 0.975006,0.50782 1.676898,1.34825 2.037109,2.2832 a 0.2645835,0.2645835 0 0 0 0.341797,0.15235 0.2645835,0.2645835 0 0 0 0.152344,-0.3418 c -0.404797,-1.05068 -1.190544,-1.99238 -2.285156,-2.5625 z m 2.357422,4.16406 a 0.2645835,0.2645835 0 0 0 -0.265625,0.26368 c 0,0.59651 -0.106527,1.16497 -0.300782,1.67968 a 0.2645835,0.2645835 0 0 0 0.154297,0.33985 0.2645835,0.2645835 0 0 0 0.339844,-0.1543 c 0.216743,-0.5743 0.335938,-1.20493 0.335937,-1.86523 a 0.2645835,0.2645835 0 0 0 -0.263671,-0.26368 z"
         id="path2875" />
    </g>
  </g>
</svg>
