<?xml version="1.0" encoding="UTF-8" standalone="no"?>
<!-- Created with Inkscape (http://www.inkscape.org/) -->

<svg
   width="64pt"
   height="64pt"
   viewBox="0 0 22.577778 22.577778"
   version="1.1"
   id="svg831"
   inkscape:version="1.1.1 (3bf5ae0d25, 2021-09-20)"
   sodipodi:docname="Export - Unblash - 64px.svg"
   inkscape:export-filename="C:\Users\User\Desktop\CARLOS PROJECT\2. FEBRUARI 1\DONE\14 - Grape.png"
   inkscape:export-xdpi="576"
   inkscape:export-ydpi="576"
   xmlns:inkscape="http://www.inkscape.org/namespaces/inkscape"
   xmlns:sodipodi="http://sodipodi.sourceforge.net/DTD/sodipodi-0.dtd"
   xmlns="http://www.w3.org/2000/svg"
   xmlns:svg="http://www.w3.org/2000/svg"
   xmlns:rdf="http://www.w3.org/1999/02/22-rdf-syntax-ns#"
   xmlns:cc="http://creativecommons.org/ns#"
   xmlns:dc="http://purl.org/dc/elements/1.1/">
  <defs
     id="defs825">
    <pattern
       id="EMFhbasepattern"
       patternUnits="userSpaceOnUse"
       width="6"
       height="6"
       x="0"
       y="0" />
    <pattern
       id="EMFhbasepattern-9"
       patternUnits="userSpaceOnUse"
       width="6"
       height="6"
       x="0"
       y="0" />
    <pattern
       id="EMFhbasepattern-0"
       patternUnits="userSpaceOnUse"
       width="6"
       height="6"
       x="0"
       y="0" />
    <pattern
       id="EMFhbasepattern-7"
       patternUnits="userSpaceOnUse"
       width="6"
       height="6"
       x="0"
       y="0" />
    <pattern
       id="EMFhbasepattern-2"
       patternUnits="userSpaceOnUse"
       width="6"
       height="6"
       x="0"
       y="0" />
    <pattern
       id="EMFhbasepattern-98"
       patternUnits="userSpaceOnUse"
       width="6"
       height="6"
       x="0"
       y="0" />
    <pattern
       id="EMFhbasepattern-6"
       patternUnits="userSpaceOnUse"
       width="6"
       height="6"
       x="0"
       y="0" />
    <pattern
       id="EMFhbasepattern-01"
       patternUnits="userSpaceOnUse"
       width="6"
       height="6"
       x="0"
       y="0" />
    <pattern
       id="EMFhbasepattern-07"
       patternUnits="userSpaceOnUse"
       width="6"
       height="6"
       x="0"
       y="0" />
    <pattern
       id="EMFhbasepattern-8"
       patternUnits="userSpaceOnUse"
       width="6"
       height="6"
       x="0"
       y="0" />
    <pattern
       id="EMFhbasepattern-4"
       patternUnits="userSpaceOnUse"
       width="6"
       height="6"
       x="0"
       y="0" />
    <pattern
       id="EMFhbasepattern-40"
       patternUnits="userSpaceOnUse"
       width="6"
       height="6"
       x="0"
       y="0" />
    <pattern
       id="EMFhbasepattern-08"
       patternUnits="userSpaceOnUse"
       width="6"
       height="6"
       x="0"
       y="0" />
    <pattern
       id="EMFhbasepattern-04"
       patternUnits="userSpaceOnUse"
       width="6"
       height="6"
       x="0"
       y="0" />
    <pattern
       id="EMFhbasepattern-014"
       patternUnits="userSpaceOnUse"
       width="6"
       height="6"
       x="0"
       y="0" />
    <pattern
       id="EMFhbasepattern-27"
       patternUnits="userSpaceOnUse"
       width="6"
       height="6"
       x="0"
       y="0" />
    <pattern
       id="EMFhbasepattern-09"
       patternUnits="userSpaceOnUse"
       width="6"
       height="6"
       x="0"
       y="0" />
    <pattern
       id="EMFhbasepattern-5"
       patternUnits="userSpaceOnUse"
       width="6"
       height="6"
       x="0"
       y="0" />
    <pattern
       id="EMFhbasepattern-018"
       patternUnits="userSpaceOnUse"
       width="6"
       height="6"
       x="0"
       y="0" />
  </defs>
  <sodipodi:namedview
     id="base"
     pagecolor="#ffffff"
     bordercolor="#666666"
     borderopacity="1.0"
     inkscape:pageopacity="0.0"
     inkscape:pageshadow="2"
     inkscape:zoom="9.1757813"
     inkscape:cx="42.612175"
     inkscape:cy="42.666667"
     inkscape:document-units="pt"
     inkscape:current-layer="svg831"
     showgrid="false"
     units="pt"
     inkscape:window-width="1920"
     inkscape:window-height="1001"
     inkscape:window-x="-9"
     inkscape:window-y="41"
     inkscape:window-maximized="1"
     inkscape:pagecheckerboard="true"
     inkscape:showpageshadow="false"
     inkscape:object-paths="true"
     inkscape:snap-intersection-paths="true"
     inkscape:snap-smooth-nodes="true"
     inkscape:snap-midpoints="true"
     showguides="true"
     inkscape:snap-bbox="true"
     inkscape:bbox-nodes="true"
     inkscape:snap-nodes="false"
     inkscape:snap-global="true">
    <inkscape:grid
       type="xygrid"
       id="grid1378" />
    <sodipodi:guide
       position="0.97013831,21.607643"
       orientation="78.000048,0"
       id="guide1380"
       inkscape:locked="false" />
    <sodipodi:guide
       position="0.97013831,0.97013129"
       orientation="0,78.000005"
       id="guide1382"
       inkscape:locked="false" />
    <sodipodi:guide
       position="21.607639,0.97013129"
       orientation="-78.000048,0"
       id="guide1384"
       inkscape:locked="false" />
    <sodipodi:guide
       position="21.607639,21.607643"
       orientation="0,-78.000005"
       id="guide1386"
       inkscape:locked="false" />
  </sodipodi:namedview>
  <metadata
     id="metadata828">
    <rdf:RDF>
      <cc:Work
         rdf:about="">
        <dc:format>image/svg+xml</dc:format>
        <dc:type
           rdf:resource="http://purl.org/dc/dcmitype/StillImage" />
      </cc:Work>
    </rdf:RDF>
  </metadata>
  <g
     inkscape:label="Icon"
     inkscape:groupmode="layer"
     id="layer1"
     transform="translate(0,-274.42223)" />
  <g
     id="g2229"
     style="display:inline;stroke-width:0.794676"
     transform="matrix(1.2583737,0,0,1.2583737,0.63440756,-351.79766)">
    <path
       style="color:#000000;fill:#ec7523;stroke-width:0.794676;stroke-linecap:round;stroke-linejoin:round;-inkscape-stroke:none"
       d="m 4.7304687,284.15234 c -2.4448332,0 -4.36523495,2.46073 -4.36523432,5.42383 3.95e-6,2.9631 1.92040402,5.42383 4.36523432,5.42383 0.5272415,0 1.0355054,-0.116 1.4960938,-0.33203 a 0.26460996,0.26460996 0 0 0 -0.00391,-0.48047 c -1.4660215,-0.67068 -2.5507784,-2.471 -2.5507812,-4.61133 -5e-7,-2.14972 1.0960251,-3.95643 2.5605469,-4.61523 a 0.26460996,0.26460996 0 0 0 0,-0.48242 C 5.7645598,284.26936 5.2576391,284.15234 4.730465,284.15234 Z"
       id="path208746" />
    <path
       id="path210107"
       style="color:#000000;fill:#e05e10;fill-opacity:1;stroke-width:0.794676;stroke-linecap:round;stroke-linejoin:round;-inkscape-stroke:none"
       d="m 4.7304605,284.1522 c -2.4448332,0 -4.36510918,2.46086 -4.36510838,5.42396 2.7e-6,1.85 0.74838798,3.5043 1.90582688,4.48603 -0.8510718,-0.99474 -1.37665808,-2.40696 -1.37666018,-3.95687 -8e-7,-2.9631 1.92027518,-5.42395 4.36510838,-5.42395 0.3765772,0 0.7428712,0.0602 1.091923,0.17053 0.078485,-0.13534 0.023046,-0.30886 -0.1193723,-0.37362 -0.4678585,-0.20916 -0.9745433,-0.32608 -1.5017174,-0.32608 z"
       sodipodi:nodetypes="scccsccs" />
    <path
       id="path28359"
       style="color:#000000;fill:#e05e10;stroke-width:3.0035;stroke-linecap:round;stroke-linejoin:round;-inkscape-stroke:none"
       d="m 9.6484375,23.701172 c -3.2100472,3.869329 -4.2675793,8.36214 -4.2675781,13.52539 0.00215,0.549997 0.4480463,0.995024 0.9980468,0.996094 0.5522865,0.0022 1.001753,-0.443808 1.0039063,-0.996094 -1.1e-6,-4.898192 0.9389595,-8.789023 3.8085935,-12.248046 0.353613,-0.425806 0.294085,-1.057861 -0.132812,-1.410157 -0.465254,-0.322013 -1.029521,-0.252369 -1.4101565,0.132813 z m -2.265625,16.304687 c -0.5553401,-0.0022 -1.0060799,0.448567 -1.0039063,1.003907 0.00215,0.552286 0.4516202,0.998254 1.0039063,0.996093 0.5492375,-0.0021 0.9939517,-0.446855 0.9960937,-0.996093 0.00216,-0.552287 -0.4438071,-1.001753 -0.9960937,-1.003907 z"
       transform="matrix(0.26458334,0,0,0.26458334,0,280.06666)"
       sodipodi:nodetypes="cccccccsssss" />
    <path
       style="color:#000000;fill:#50b86b;stroke-width:0.794676;stroke-linecap:round;stroke-linejoin:round;-inkscape-stroke:none"
       d="m 1.296875,281.08594 c -0.1058995,0.0738 -0.1430428,0.21335 -0.087891,0.33008 0,0 0.7526103,1.66947 2.2558594,2.07226 0.7067884,0.18939 1.3879391,0.21366 1.9433593,0.0879 0.5554202,-0.12576 1.0206783,-0.41827 1.1503906,-0.90234 0.1297111,-0.48408 -0.1267961,-0.9708 -0.5449218,-1.35742 -1.3737145,-1.15116 -3.0673848,-1.29861 -4.7167965,-0.23048 z"
       id="path209143"
       sodipodi:nodetypes="cccsccc" />
    <path
       style="color:#000000;fill:#032927;fill-opacity:1;stroke-width:0.794676;stroke-linecap:round;stroke-linejoin:round;-inkscape-stroke:none"
       d="m 7.0214844,281.07031 c -1.1422624,0.95072 -1.1638964,2.37528 -1.1640625,3.65039 -5.79e-4,0.14618 0.1174932,0.26513 0.2636718,0.26563 0.146942,5.8e-4 0.2662073,-0.11869 0.265625,-0.26563 -0.012864,-1.16969 0.069196,-2.54475 0.9511719,-3.22656 0.3233993,-0.2284 -0.055083,-0.62516 -0.3164062,-0.42383 z"
       id="path20445"
       sodipodi:nodetypes="cccccc" />
    <path
       style="color:#000000;fill:#50b86b;stroke-width:0.794676;stroke-linecap:round;stroke-linejoin:round;-inkscape-stroke:none"
       d="m 12.746094,284.86523 c -0.751465,0.43386 -1.314725,1.00484 -1.583985,1.58399 -0.09086,0.96334 -0.09593,1.97414 -0.132812,2.95312 -0.0075,0.21911 0.239396,0.3518 0.417969,0.22461 0.975875,-0.61912 1.891377,-1.46897 2.886718,-2.01172 1.347778,-0.77813 1.642579,-2.58398 1.642579,-2.58398 0.02353,-0.12719 -0.04833,-0.25275 -0.169922,-0.29688 -1.083542,-0.30571 -2.21628,-0.33771 -3.060547,0.13086 z"
       id="path209339"
       sodipodi:nodetypes="cccccccc" />
    <path
       id="path213670"
       style="fill:#349951;fill-opacity:1;stroke-width:3.0035;stroke-linecap:round;stroke-linejoin:round"
       d="m 47.708984,23.878906 c -2.133947,0 -3.611216,0.817332 -4.708984,1.447266 -0.280434,-0.160337 -0.531492,-0.333794 -0.865235,-0.501953 l -0.449218,10.460937 c -0.02758,0.82787 0.905587,1.328479 1.580078,0.847656 l 9.980469,-7.101562 c 1.179613,-0.582357 2.35152,-1.420533 3.191406,-2.279297 -2.515938,-1.814972 -5.482865,-2.873047 -8.728516,-2.873047 z"
       transform="matrix(0.26458334,0,0,0.26458334,0,280.06666)"
       sodipodi:nodetypes="sccccccs" />
    <path
       style="color:#000000;fill:#032927;fill-opacity:1;stroke-width:0.794676;stroke-linecap:round;stroke-linejoin:round;-inkscape-stroke:none"
       d="m 14.03125,285.6875 c -1.155591,0.31866 -1.914493,1.04176 -2.820312,1.79492 -0.113529,0.0926 -0.130167,0.25988 -0.03711,0.37305 0.09322,0.1129 0.260405,0.12863 0.373047,0.0351 0.816126,-0.6353 1.577668,-1.46188 2.589844,-1.68359 0.143626,-0.0289 0.236438,-0.16898 0.207031,-0.3125 -0.04212,-0.15355 -0.172183,-0.22459 -0.3125,-0.20698 z"
       id="path26909"
       sodipodi:nodetypes="ccccccc" />
    <path
       style="color:#000000;fill:#e05e10;stroke-width:0.794676;stroke-linecap:round;stroke-linejoin:round;-inkscape-stroke:none"
       d="m 7.5078125,284.15234 c -2.4448332,0 -4.365235,2.46073 -4.3652344,5.42383 3.8e-6,2.84957 1.7695196,5.23095 4.0859375,5.41211 a 0.26460996,0.26460996 0 0 0 0.2695313,-0.16992 c 0.491721,-1.31494 1.9876107,-2.70945 2.9941411,-4.23438 0.503264,-0.76246 0.887669,-1.57212 0.923828,-2.44921 0.03616,-0.8771 -0.291055,-1.80196 -1.126953,-2.74219 a 0.26460996,0.26460996 0 0 0 -0.0078,-0.008 c -0.7469036,-0.76325 -1.7162786,-1.23243 -2.7734375,-1.23243 z"
       id="path208938" />
    <path
       id="path213791"
       style="fill:#ce4b27;fill-opacity:1;stroke-width:3.0035;stroke-linecap:round;stroke-linejoin:round"
       d="m 38.289062,23.878906 c -9.786106,0 -17.037116,9.611344 -17.037109,20.625 -3e-6,4.062298 0.988271,7.934294 2.724609,11.203125 1.071555,0.364195 2.189795,0.599206 3.34375,0.689453 a 1.0001006,1.0001006 0 0 0 1.019532,-0.642578 C 30.198317,50.784054 35.852041,45.513515 39.65625,39.75 c 1.9021,-2.881739 3.35357,-5.940874 3.490234,-9.255859 0.07644,-1.854254 -0.277199,-3.765156 -1.15625,-5.710938 -0.961614,-0.474874 -2.157089,-0.904297 -3.701172,-0.904297 z"
       transform="matrix(0.26458334,0,0,0.26458334,0,280.06666)" />
    <path
       style="color:#000000;fill:#032927;fill-opacity:1;stroke-width:0.794676;stroke-linecap:round;stroke-linejoin:round;-inkscape-stroke:none"
       d="m 12.474609,283.98437 c -0.0699,-0.0101 -0.140925,0.008 -0.197265,0.0508 -1.142724,0.95117 -1.163897,2.37614 -1.164063,3.65234 5.04e-4,0.14618 0.119449,0.26425 0.265625,0.26367 0.145414,-5e-4 0.263171,-0.11826 0.263672,-0.26367 -0.01159,-1.16909 0.07166,-2.54695 0.953125,-3.22852 0.117271,-0.0878 0.140913,-0.25412 0.05274,-0.37109 -0.04194,-0.0562 -0.10446,-0.0934 -0.173829,-0.10352 z"
       id="path26578"
       sodipodi:nodetypes="ccccccccc" />
    <path
       style="color:#000000;fill:#ec7523;stroke-width:0.794676;stroke-linecap:round;stroke-linejoin:round;-inkscape-stroke:none"
       d="m 10.130859,286.94727 c -2.2125284,0 -3.9453132,2.22368 -3.9453121,4.89453 -1.1e-6,2.67085 1.7327837,4.89453 3.9453121,4.89453 0.513388,0 0.910205,-0.28697 1.248047,-0.45703 0.337277,0.17045 0.731771,0.45703 1.244141,0.45703 2.212527,0 3.945312,-2.22368 3.945312,-4.89453 0,-2.67085 -1.732785,-4.89453 -3.945312,-4.89453 -0.512367,0 -0.906857,0.28657 -1.244141,0.45703 -0.337842,-0.17007 -0.734659,-0.45703 -1.248047,-0.45703 z"
       id="path209535" />
    <path
       style="color:#000000;fill:#032927;fill-opacity:1;stroke-width:0.794676;stroke-linecap:round;stroke-linejoin:round;-inkscape-stroke:none"
       d="m 3.2753906,281.54687 a 0.2645835,0.2645835 0 0 0 -0.265625,0.26368 0.2645835,0.2645835 0 0 0 0.265625,0.26562 c 1.0201612,0 2.2823618,0.50952 2.9101563,0.79688 A 0.2645835,0.2645835 0 0 0 6.5371094,282.74219 0.2645835,0.2645835 0 0 0 6.40625,282.39258 c -0.6506855,-0.29784 -1.9417084,-0.84571 -3.1308594,-0.84571 z"
       id="path21279" />
    <path
       style="color:#000000;fill:#ffccbc;stroke-width:0.794676;stroke-linecap:round;stroke-linejoin:round;-inkscape-stroke:none"
       d="m 11.455078,288.53516 c -0.316387,0 -0.588797,0.1749 -0.84375,0.40625 -0.254953,0.23135 -0.495887,0.53508 -0.7089842,0.86914 -0.4261944,0.66811 -0.751942,1.43154 -0.7519532,2.03125 1.12e-5,0.5997 0.3257588,1.36314 0.7519532,2.03125 0.2130972,0.33405 0.4540312,0.63974 0.7089842,0.87109 0.254953,0.23135 0.527363,0.40625 0.84375,0.40625 0.316387,0 0.588797,-0.1749 0.84375,-0.40625 0.254953,-0.23135 0.495888,-0.53704 0.708985,-0.87109 0.426193,-0.66811 0.751942,-1.43155 0.751953,-2.03125 -1.1e-5,-0.59971 -0.32576,-1.36314 -0.751953,-2.03125 -0.213097,-0.33406 -0.454032,-0.63779 -0.708985,-0.86914 -0.254953,-0.23135 -0.527363,-0.40625 -0.84375,-0.40625 z"
       id="path209919" />
    <path
       id="path237598"
       style="color:#000000;fill:#f2bbaa;fill-opacity:1;stroke-width:0.794676;stroke-linecap:round;stroke-linejoin:round;-inkscape-stroke:none"
       d="m 11.190532,288.57669 c 0.208203,0.0649 0.398206,0.20052 0.579293,0.36484 0.254953,0.23135 0.495903,0.53514 0.709,0.8692 0.426193,0.66811 0.751881,1.43117 0.751892,2.03088 -1.1e-5,0.5997 -0.325699,1.36329 -0.751892,2.0314 -0.213097,0.33405 -0.454047,0.63991 -0.709,0.87126 -0.181102,0.16434 -0.37107,0.29993 -0.579293,0.36484 0.468356,0.16069 0.84544,-0.12924 1.108459,-0.36488 0.254953,-0.23135 0.495904,-0.53721 0.709001,-0.87126 0.426193,-0.66811 0.751881,-1.4317 0.751892,-2.0314 -1.1e-5,-0.59971 -0.325699,-1.36277 -0.751892,-2.03088 -0.213097,-0.33406 -0.454048,-0.63785 -0.709001,-0.8692 -0.387427,-0.36704 -0.70873,-0.48305 -1.108459,-0.3648 z"
       sodipodi:nodetypes="csccssccccscc" />
    <path
       style="color:#000000;fill:#734845;fill-opacity:1;stroke-width:0.794676;stroke-linecap:round;stroke-linejoin:round;-inkscape-stroke:none"
       d="m 11.455078,289.80273 c -1.251284,0 -2.3046661,0.89406 -2.3046874,2.03907 -9e-7,1.14502 1.0533884,2.04101 2.3046874,2.04101 1.251298,0 2.304689,-0.89599 2.304688,-2.04101 -2.2e-5,-1.14501 -1.053405,-2.03906 -2.304688,-2.03907 z"
       id="path209727" />
    <path
       id="path212025"
       style="color:#000000;fill:#ce4b27;fill-opacity:1;stroke-width:0.794676;stroke-linecap:round;stroke-linejoin:round;-inkscape-stroke:none"
       d="m 7.5080687,284.1522 c -2.4448334,0 -4.3656261,2.46086 -4.3656251,5.42396 2.7e-6,1.84858 0.7450664,3.49973 1.9006593,4.48138 -0.8486299,-0.99402 -1.3714905,-2.40398 -1.3714926,-3.95222 -1.1e-6,-2.9631 1.920792,-5.42395 4.3656251,-5.42395 0.8958842,0 1.7280467,0.33701 2.4158736,0.90433 -0.366944,-0.52621 -1.4132717,-1.4335 -2.9450403,-1.4335 z"
       sodipodi:nodetypes="ccccscc" />
    <path
       id="path226666"
       style="color:#000000;fill:#349951;fill-opacity:1;stroke-width:0.794676;stroke-linecap:round;stroke-linejoin:round;-inkscape-stroke:none"
       d="m 1.2970785,281.08572 c -0.1059514,0.0739 -0.1430843,0.21345 -0.08785,0.33021 0,0 0.3842592,0.85259 1.1523846,1.48622 -0.415281,-0.4959 -0.6232181,-0.95705 -0.6232181,-0.95705 -0.055234,-0.11676 -0.018101,-0.25633 0.08785,-0.33021 0,0 1.486741,-1.06839 2.9899984,-0.6656 0.589387,0.15793 1.1055587,0.40694 1.5032675,0.70952 -0.086302,-0.12041 -0.1899773,-0.2354 -0.3059245,-0.34261 -0.4181257,-0.38663 -1.0197175,-0.70668 -1.7265097,-0.89607 -1.0155376,-0.25381 -2.0833744,0.0974 -2.9899982,0.66559 z"
       sodipodi:nodetypes="cccccccccc" />
    <path
       id="path234571"
       style="color:#000000;fill:#e05e10;fill-opacity:1;stroke-width:0.794676;stroke-linecap:round;stroke-linejoin:round;-inkscape-stroke:none"
       d="m 9.8097373,286.96338 c 0.4147697,0.0621 1.0143787,0.4372 1.3051027,0.58355 0.08413,-0.0425 0.171877,-0.0919 0.264066,-0.14263 -0.278344,-0.15256 -0.73138,-0.45694 -1.04397,-0.45693 -0.31259,1e-5 -0.4193417,0.006 -0.5251987,0.016 z m 2.6055257,0 c 2.056669,0.20303 3.624067,2.33817 3.624067,4.87825 0,2.53946 -1.566602,4.67483 -3.622517,4.87877 3.19727,0.0156 4.151684,-2.96139 4.151684,-4.87879 0,-2.4647 -1.381242,-5.09173 -4.153234,-4.87823 z m -1.299907,9.1728 c -0.2911,0.14653 -0.891655,0.52248 -1.3071687,0.58424 0.106352,0.0106 0.2136377,0.016 0.3224607,0.016 0.512203,0 0.970061,-0.30466 1.248258,-0.45712 z"
       sodipodi:nodetypes="ccccccccccccsccc" />
    <path
       id="path239156"
       style="color:#000000;fill:#66342d;fill-opacity:1;stroke-width:3.0035;stroke-linecap:round;stroke-linejoin:round;-inkscape-stroke:none"
       d="m 47.824219,37.923828 c 1.274372,2.23673 2.181605,4.63572 2.18164,6.580078 -3.5e-5,1.947189 -0.910165,4.349883 -2.1875,6.589844 3.011997,-1.72673 4.11416,-3.821398 4.1875,-6.589844 0.07334,-2.768446 -1.903716,-5.468492 -4.18164,-6.580078 z"
       transform="matrix(0.26458334,0,0,0.26458334,0,280.06666)"
       sodipodi:nodetypes="ccczc" />
  </g>
</svg>
