<?xml version="1.0" encoding="utf-8"?>
<!-- Generator: Adobe Illustrator 16.0.0, SVG Export Plug-In . SVG Version: 6.00 Build 0)  -->
<!DOCTYPE svg PUBLIC "-//W3C//DTD SVG 1.1//EN" "http://www.w3.org/Graphics/SVG/1.1/DTD/svg11.dtd">
<svg version="1.1" id="Layer_1" xmlns="http://www.w3.org/2000/svg" xmlns:xlink="http://www.w3.org/1999/xlink" x="0px" y="0px"
	 width="66px" height="66px" viewBox="0 0 66 66" enable-background="new 0 0 66 66" xml:space="preserve">
<g>
	<g>
		<path fill="#123866" d="M4.268,18.479c-0.453,0.453-1.143,0.499-1.539,0.103l0,0c-0.397-0.397-0.354-1.086,0.102-1.54
			l10.131-10.13c0.455-0.454,1.143-0.5,1.54-0.104l0,0c0.397,0.397,0.351,1.087-0.103,1.541L4.268,18.479z"/>
		<path fill="#123866" d="M7.553,21.765c-0.453,0.454-1.188,0.454-1.643,0l0,0c-0.453-0.453-0.453-1.188,0-1.643l10.131-10.13
			c0.453-0.454,1.188-0.454,1.643,0l0,0c0.454,0.454,0.454,1.189,0,1.643L7.553,21.765z"/>
		<path fill="#123866" d="M10.633,24.846c-0.453,0.454-1.188,0.453-1.641,0l0,0c-0.454-0.454-0.455-1.188-0.002-1.644L19.941,12.25
			c0.455-0.453,1.189-0.452,1.645,0.001l0,0c0.453,0.453,0.454,1.188,0,1.644L10.633,24.846z"/>
		<path fill="#123866" d="M13.715,27.926c-0.455,0.454-1.19,0.452-1.645,0l0,0c-0.453-0.453-0.453-1.188,0-1.644l11.773-11.773
			c0.455-0.453,1.191-0.452,1.644,0l0,0c0.452,0.454,0.454,1.189,0,1.644L13.715,27.926z"/>
		<path fill="#123866" d="M16.794,31.007c-0.454,0.453-1.189,0.453-1.643,0l0,0c-0.453-0.455-0.453-1.189,0-1.644L26.924,17.59
			c0.455-0.453,1.191-0.453,1.643,0l0,0c0.455,0.453,0.455,1.189,0,1.644L16.794,31.007z"/>
		<path fill="#123866" d="M19.874,34.085c-0.453,0.456-1.19,0.455-1.643,0.002l0,0c-0.452-0.453-0.454-1.188,0-1.644L30.006,20.67
			c0.453-0.454,1.188-0.452,1.643,0l0,0c0.453,0.453,0.453,1.189,0,1.643L19.874,34.085z"/>
		<path fill="#123866" d="M22.955,37.166c-0.455,0.455-1.19,0.453-1.645,0l0,0c-0.451-0.453-0.453-1.188,0-1.643L33.084,23.75
			c0.455-0.454,1.191-0.453,1.645,0l0,0c0.453,0.453,0.453,1.188,0,1.643L22.955,37.166z"/>
		<path fill="#123866" d="M26.035,40.246c-0.454,0.455-1.189,0.455-1.643,0l0,0c-0.453-0.453-0.453-1.189,0-1.643l11.771-11.772
			c0.455-0.453,1.189-0.453,1.645,0l0,0c0.453,0.453,0.453,1.188,0,1.643L26.035,40.246z"/>
		<path fill="#123866" d="M29.114,43.326c-0.452,0.455-1.188,0.453-1.642,0.002l0,0c-0.453-0.455-0.453-1.191,0-1.645l11.773-11.771
			c0.454-0.455,1.189-0.454,1.643,0l0,0c0.453,0.452,0.455,1.188,0,1.642L29.114,43.326z"/>
		<path fill="#123866" d="M32.744,46.955c-0.455,0.453-1.314,0.33-1.918-0.275l0,0c-0.604-0.604-0.729-1.463-0.273-1.916
			l11.772-11.772c0.454-0.453,1.312-0.33,1.917,0.273l0,0c0.605,0.605,0.729,1.462,0.273,1.917L32.744,46.955z"/>
		<path fill="#123866" d="M46.838,42.02c0.439-0.902,0.529-1.973,0.145-2.986c-0.74-1.971-2.939-2.967-4.908-2.225
			c-1.436,0.539-2.342,1.854-2.447,3.287c0.377-0.383,0.83-0.701,1.366-0.9c1.738-0.656,3.646,0.041,4.584,1.564L46.838,42.02z"/>
	</g>
	<path fill="#00233F" d="M35.24,28.78c23.012,24.095,22.199,36.202,27.437,28.677c1.718-2.469,3.401-4.301-21.571-29.273
		C27.066,14.145,13.969,4.497,11.832,6.613C10.67,7.764,13.484,5.994,35.24,28.78z"/>
	<path fill="#123866" d="M35.24,28.78c23.012,24.095,22.199,36.202,27.437,28.677"/>
	<g>
		<circle fill="#DD7B19" cx="59.679" cy="54.586" r="1.597"/>
		<path fill="#DB5B1B" d="M61.276,54.586c-0.001,0.881-0.717,1.598-1.599,1.598c-0.881,0-1.596-0.715-1.597-1.598"/>
	</g>
</g>
</svg>
