<?xml version="1.0" encoding="UTF-8" standalone="no"?>
<!-- Created with Inkscape (http://www.inkscape.org/) -->

<svg
   width="64pt"
   height="64pt"
   viewBox="0 0 22.577778 22.577778"
   version="1.1"
   id="svg831"
   inkscape:version="1.1.1 (3bf5ae0d25, 2021-09-20)"
   sodipodi:docname="Export - Unblash - 64px.svg"
   inkscape:export-filename="C:\Users\User\Desktop\CARLOS PROJECT\2. FEBRUARI 1\DONE\6 - Pomegranate.png"
   inkscape:export-xdpi="576"
   inkscape:export-ydpi="576"
   xmlns:inkscape="http://www.inkscape.org/namespaces/inkscape"
   xmlns:sodipodi="http://sodipodi.sourceforge.net/DTD/sodipodi-0.dtd"
   xmlns="http://www.w3.org/2000/svg"
   xmlns:svg="http://www.w3.org/2000/svg"
   xmlns:rdf="http://www.w3.org/1999/02/22-rdf-syntax-ns#"
   xmlns:cc="http://creativecommons.org/ns#"
   xmlns:dc="http://purl.org/dc/elements/1.1/">
  <defs
     id="defs825">
    <pattern
       id="EMFhbasepattern"
       patternUnits="userSpaceOnUse"
       width="6"
       height="6"
       x="0"
       y="0" />
    <pattern
       id="EMFhbasepattern-9"
       patternUnits="userSpaceOnUse"
       width="6"
       height="6"
       x="0"
       y="0" />
    <pattern
       id="EMFhbasepattern-0"
       patternUnits="userSpaceOnUse"
       width="6"
       height="6"
       x="0"
       y="0" />
    <pattern
       id="EMFhbasepattern-7"
       patternUnits="userSpaceOnUse"
       width="6"
       height="6"
       x="0"
       y="0" />
    <pattern
       id="EMFhbasepattern-2"
       patternUnits="userSpaceOnUse"
       width="6"
       height="6"
       x="0"
       y="0" />
    <pattern
       id="EMFhbasepattern-98"
       patternUnits="userSpaceOnUse"
       width="6"
       height="6"
       x="0"
       y="0" />
    <pattern
       id="EMFhbasepattern-6"
       patternUnits="userSpaceOnUse"
       width="6"
       height="6"
       x="0"
       y="0" />
    <pattern
       id="EMFhbasepattern-01"
       patternUnits="userSpaceOnUse"
       width="6"
       height="6"
       x="0"
       y="0" />
    <pattern
       id="EMFhbasepattern-07"
       patternUnits="userSpaceOnUse"
       width="6"
       height="6"
       x="0"
       y="0" />
    <pattern
       id="EMFhbasepattern-8"
       patternUnits="userSpaceOnUse"
       width="6"
       height="6"
       x="0"
       y="0" />
    <pattern
       id="EMFhbasepattern-4"
       patternUnits="userSpaceOnUse"
       width="6"
       height="6"
       x="0"
       y="0" />
    <pattern
       id="EMFhbasepattern-40"
       patternUnits="userSpaceOnUse"
       width="6"
       height="6"
       x="0"
       y="0" />
    <pattern
       id="EMFhbasepattern-08"
       patternUnits="userSpaceOnUse"
       width="6"
       height="6"
       x="0"
       y="0" />
    <pattern
       id="EMFhbasepattern-04"
       patternUnits="userSpaceOnUse"
       width="6"
       height="6"
       x="0"
       y="0" />
    <pattern
       id="EMFhbasepattern-014"
       patternUnits="userSpaceOnUse"
       width="6"
       height="6"
       x="0"
       y="0" />
    <pattern
       id="EMFhbasepattern-27"
       patternUnits="userSpaceOnUse"
       width="6"
       height="6"
       x="0"
       y="0" />
    <pattern
       id="EMFhbasepattern-09"
       patternUnits="userSpaceOnUse"
       width="6"
       height="6"
       x="0"
       y="0" />
    <pattern
       id="EMFhbasepattern-5"
       patternUnits="userSpaceOnUse"
       width="6"
       height="6"
       x="0"
       y="0" />
    <pattern
       id="EMFhbasepattern-018"
       patternUnits="userSpaceOnUse"
       width="6"
       height="6"
       x="0"
       y="0" />
  </defs>
  <sodipodi:namedview
     id="base"
     pagecolor="#ffffff"
     bordercolor="#666666"
     borderopacity="1.0"
     inkscape:pageopacity="0.0"
     inkscape:pageshadow="2"
     inkscape:zoom="9.1757813"
     inkscape:cx="37.925926"
     inkscape:cy="42.666666"
     inkscape:document-units="pt"
     inkscape:current-layer="svg831"
     showgrid="false"
     units="pt"
     inkscape:window-width="1920"
     inkscape:window-height="1001"
     inkscape:window-x="-9"
     inkscape:window-y="41"
     inkscape:window-maximized="1"
     inkscape:pagecheckerboard="true"
     inkscape:showpageshadow="false"
     inkscape:object-paths="true"
     inkscape:snap-intersection-paths="true"
     inkscape:snap-smooth-nodes="true"
     inkscape:snap-midpoints="true"
     showguides="true"
     inkscape:snap-bbox="true"
     inkscape:bbox-nodes="true"
     inkscape:snap-nodes="false"
     inkscape:snap-global="true">
    <inkscape:grid
       type="xygrid"
       id="grid1378" />
    <sodipodi:guide
       position="0.97013831,21.607643"
       orientation="78.000048,0"
       id="guide1380"
       inkscape:locked="false" />
    <sodipodi:guide
       position="0.97013831,0.97013129"
       orientation="0,78.000005"
       id="guide1382"
       inkscape:locked="false" />
    <sodipodi:guide
       position="21.607639,0.97013129"
       orientation="-78.000048,0"
       id="guide1384"
       inkscape:locked="false" />
    <sodipodi:guide
       position="21.607639,21.607643"
       orientation="0,-78.000005"
       id="guide1386"
       inkscape:locked="false" />
  </sodipodi:namedview>
  <metadata
     id="metadata828">
    <rdf:RDF>
      <cc:Work
         rdf:about="">
        <dc:format>image/svg+xml</dc:format>
        <dc:type
           rdf:resource="http://purl.org/dc/dcmitype/StillImage" />
      </cc:Work>
    </rdf:RDF>
  </metadata>
  <g
     inkscape:label="Icon"
     inkscape:groupmode="layer"
     id="layer1"
     transform="translate(0,-274.42223)" />
  <g
     id="g442821"
     style="display:inline;stroke-width:0.795484"
     transform="matrix(1.2570969,0,0,1.2570969,0.63292222,-313.07594)">
    <path
       style="color:#000000;fill:#b01d47;stroke-width:0.795484;stroke-linecap:round;stroke-linejoin:round;-inkscape-stroke:none"
       d="m 3.4609375,249.83398 c -0.1013303,0.027 -0.1771703,0.11125 -0.1933594,0.21485 l -0.2578125,1.6914 c -0.2572464,-0.0962 -0.5096275,-0.21264 -0.8066406,-0.1875 -0.4264872,0.0361 -0.8719501,0.23355 -1.26367187,0.63868 -0.13080047,0.13515 -0.0828103,0.35978 0.0917969,0.42968 0.5778401,0.23194 1.1220622,0.61404 1.3417969,0.98047 0.2482165,0.47049 -0.028583,0.86439 -0.34375,1.11133 -2.18616441,3.02179 -1.79706472,6.59374 0.6093784,7.65828 0.6817234,0.23758 1.415634,0.21433 2.1640625,0.0234 1.496857,-0.38178 3.0887495,-1.41921 4.6933594,-2.52734 0.062334,-0.0436 0.1028932,-0.1119 0.1113281,-0.1875 0.044261,-0.38516 0.2721345,-0.8017 0.5468747,-1.23828 0.27474,-0.43659 0.592079,-0.88795 0.761719,-1.39258 0.169639,-0.50463 0.16563,-1.08441 -0.203125,-1.64063 -0.368756,-0.55621 -1.0629652,-1.09194 -2.2421875,-1.66211 -0.4100634,-0.1962 -0.8546757,-0.33308 -1.3261719,-0.40234 -0.4923159,-0.0975 -0.8403083,-0.39597 -0.8554725,-0.79102 0.00708,-0.4272 0.2874187,-1.02974 0.671875,-1.51953 0.1161956,-0.14827 0.044639,-0.36703 -0.1367188,-0.41797 -0.9085063,-0.25988 -1.5666669,0.12643 -2.0058593,0.63868 l -1.0820313,-1.33204 c -0.066267,-0.0813 -0.1742858,-0.11576 -0.2753906,-0.0879 z"
       id="path179098"
       sodipodi:nodetypes="cccscccccccccscccccccccc" />
    <path
       id="path186427"
       style="color:#000000;fill:#801231;fill-opacity:1;stroke-width:3.00655;stroke-linecap:round;stroke-linejoin:round;-inkscape-stroke:none"
       d="M 40.490234,-93.197266 C 39.202791,-95.13917 36.862023,-97.014861 33,-98.988281 c -6.280518,2.162033 -11.049527,7.349912 -13.453125,13.984375 -1.882504,5.682485 -0.16584,12.545436 2.515625,16.867187 4.4848,-1.897216 9.142447,-4.971142 13.828125,-8.207031 z"
       transform="matrix(0.26458334,0,0,0.26458334,0,280.06666)"
       sodipodi:nodetypes="cccccc" />
    <path
       id="path179866"
       style="color:#000000;fill:#801231;fill-opacity:1;stroke-width:0.795484;stroke-linecap:round;stroke-linejoin:round;-inkscape-stroke:none"
       d="m 3.2675002,250.04855 -0.2577346,1.69168 0.5038453,0.16743 c 0.1012528,-0.62994 0.1835237,-1.27301 0.294942,-1.89731 l -0.072347,-0.0889 c -0.1426781,-0.17806 -0.4231957,-0.0949 -0.4687057,0.1271 z m 1.5508588,1.2054 0.2356448,0.28991 c 0.2928655,-0.34159 0.814426,-0.86567 1.7702145,-0.92859 -0.757481,-0.22179 -1.4394367,-0.024 -2.0058593,0.63868 z m -3.87888198,0.93731 c -0.13106272,0.13522 -0.0829315,0.36019 0.091984,0.42995 0.5778399,0.23193 1.1217854,0.61387 1.34152,0.9803 0.2481467,0.47035 -0.02862,0.86421 -0.3436482,1.11104 -1.62469599,1.14386 -1.94066181,3.34525 -1.67948646,4.97069 0.26006016,1.1679 1.18792036,2.28651 2.28874986,2.68774 0.4252753,0.14821 0.8708189,0.19497 1.3275675,0.16278 -0.2722716,-0.02 -0.5391518,-0.0724 -0.7984009,-0.16278 -1.254951,-0.59481 -1.9842074,-1.45492 -2.28874988,-2.68774 -0.3499848,-1.9678 0.20918108,-3.8069 1.67741648,-4.96869 0.4044146,-0.33909 0.521586,-0.69125 0.3457182,-1.11304 -0.2197346,-0.36643 -0.7636801,-0.74837 -1.3415201,-0.9803 -0.1749156,-0.0698 -0.2230467,-0.29473 -0.091984,-0.42995 0.3330176,-0.34442 0.7047161,-0.53813 1.0707357,-0.61082 -0.5827881,-0.14819 -1.275112,0.24996 -1.59990218,0.61082 z"
       sodipodi:nodetypes="ccccccccccccccccccccccccc" />
    <path
       style="color:#000000;fill:#26783f;stroke-width:0.795484;stroke-linecap:round;stroke-linejoin:round;-inkscape-stroke:none"
       d="m 4.984375,259.04687 c -0.4218014,-7.9e-4 -0.8715158,0.11994 -1.3125,0.34375 -0.8819684,0.44763 -1.7632695,1.30395 -2.4472656,2.50586 a 0.26460996,0.26460996 0 0 0 0.095703,0.35938 c 0.9194412,0.53849 1.8375563,0.84107 2.6621094,0.92773 a 0.26460996,0.26460996 0 0 0 0.1464843,-0.0273 l 3.0039063,-1.50195 a 0.26460996,0.26460996 0 0 0 0.1074219,-0.3711 l -1.0566407,-1.77929 a 0.26460996,0.26460996 0 0 0 -0.060547,-0.0703 C 5.799427,259.17066 5.4061764,259.04767 4.984375,259.04687 Z"
       id="path179294" />
    <path
       id="path3367"
       style="color:#000000;fill:#032927;stroke-width:3.00655;stroke-linecap:round;stroke-linejoin:round;-inkscape-stroke:none"
       d="m 23.011719,-74.017578 c -1.368472,0.344606 -2.56344,0.572347 -3.472657,0.492187 -0.910544,-0.08013 -1.540552,-0.361629 -2.199218,-1.291015 -0.482502,-0.523051 -1.05028,-0.46036 -1.394532,-0.236328 -0.450421,0.319784 -0.556239,0.944201 -0.236328,1.394531 0.384227,0.542204 0.832089,0.973471 1.31836,1.302734 l -5.363282,1.488281 c -0.532543,0.148046 -0.843975,0.700051 -0.695312,1.232422 0.148876,0.532739 0.701967,0.843415 1.234375,0.69336 l 11.5,-3.195313 z"
       transform="matrix(0.26458334,0,0,0.26458334,0,280.06666)"
       sodipodi:nodetypes="ccccccccccc" />
    <path
       id="path186438"
       style="color:#000000;fill:#1f5b31;fill-opacity:1;stroke-width:3.00655;stroke-linecap:round;stroke-linejoin:round;-inkscape-stroke:none"
       d="m 18.753906,-79.443359 c -0.01773,4.368333 1.360698,8.574245 3.808594,12.050781 l 4.396484,-2.197266 c 0.515305,-0.26215 0.701634,-0.905343 0.40625,-1.402344 l -3.99414,-6.724609 c -0.05995,-0.1013 -0.137306,-0.191221 -0.228516,-0.265625 -1.351235,-1.126215 -2.971841,-1.445666 -4.388672,-1.460937 z"
       transform="matrix(0.26458334,0,0,0.26458334,0,280.06666)"
       sodipodi:nodetypes="ccccccc" />
    <path
       style="color:#000000;fill:#50b86b;stroke-width:0.795484;stroke-linecap:round;stroke-linejoin:round;-inkscape-stroke:none"
       d="m 6.3984375,260.92773 c -0.5133559,-0.17206 -1.0147826,-0.13332 -1.4335938,0.0859 -0.4188111,0.21926 -0.7490698,0.60494 -0.9804687,1.09375 -0.4627979,0.97763 -0.5511231,2.38317 -0.1269531,3.92774 a 0.26460996,0.26460996 0 0 0 0.3222656,0.18554 c 1.1282352,-0.2948 2.0554257,-0.79074 2.7148437,-1.3789 0.6594181,-0.58817 1.0605106,-1.27468 1.0800782,-1.96485 l -0.00781,0.0547 0.2792969,-1.125 a 0.26460996,0.26460996 0 0 0 -0.1738282,-0.31445 l -1.671875,-0.56446 a 0.26460996,0.26460996 0 0 0 -0.00195,0 z"
       id="path179486" />
    <path
       id="path186433"
       style="color:#000000;fill:#26783f;fill-opacity:1;stroke-width:3.00655;stroke-linecap:round;stroke-linejoin:round;-inkscape-stroke:none"
       d="m 24.183594,-72.335938 c -0.848856,-0.284508 -1.688823,-0.417141 -2.498047,-0.40625 -0.603482,0.0081 -1.190281,0.09668 -1.75,0.259766 1.62913,4.616943 4.863639,8.607093 9.208984,11.113281 0.594863,-1.137784 0.938608,-2.311738 0.990235,-3.490234 z"
       transform="matrix(0.26458334,0,0,0.26458334,0,280.06666)"
       sodipodi:nodetypes="cscccc" />
    <path
       id="path3197"
       style="color:#000000;fill:#032927;stroke-width:3.00655;stroke-linecap:round;stroke-linejoin:round;-inkscape-stroke:none"
       d="m 24.175781,-70.253906 c -0.833324,1.443364 -1.526521,2.590858 -2.236328,3.224609 -0.709807,0.633751 -1.356532,0.888792 -2.708984,0.658203 -0.546868,-0.09668 -1.067764,0.270751 -1.160157,0.81836 -0.09181,0.544761 0.275515,1.060757 0.820313,1.152343 0.673989,0.11498 1.306273,0.119132 1.890625,0.0293 l -2.769531,4.798828 c -0.275083,0.478932 -0.10981,1.090183 0.36914,1.365235 0.478932,0.275083 1.090183,0.109809 1.365235,-0.369141 l 1.933594,-3.349609 c 0.0979,0.61461 0.274236,1.237364 0.546874,1.865234 0.2205,0.505437 0.808541,0.736984 1.314454,0.517578 0.50468,-0.221247 0.735269,-0.809073 0.515625,-1.314453 -0.645068,-1.485543 -0.589758,-2.793985 -0.183594,-4.169922 0.330008,-1.117949 0.91811,-2.259199 1.574219,-3.421875 z"
       transform="matrix(0.26458334,0,0,0.26458334,0,280.06666)"
       sodipodi:nodetypes="cscccccccccccscc" />
    <path
       style="color:#000000;fill:#b01d47;stroke-width:0.795484;stroke-linecap:round;stroke-linejoin:round;-inkscape-stroke:none"
       d="m 13.197266,250.93746 -1.082032,1.33203 c -0.439169,-0.51241 -1.097178,-0.90056 -2.005859,-0.64062 -0.1813495,0.0509 -0.2529039,0.26969 -0.1367187,0.41796 0.3844567,0.48979 0.6647967,1.09233 0.6718747,1.51954 -0.01999,0.40491 -0.46553,0.73005 -0.8554654,0.79301 -1.8524242,0.27202 -3.2566984,1.58374 -3.9375,3.4629 -0.00225,0.007 -0.00421,0.0143 -0.00586,0.0215 -0.6799544,2.5376 0.8295842,5.15208 3.3671875,5.83203 l 1.5332029,0.41211 c 2.141228,0.50295 5.146195,-0.90496 5.837931,-3.39059 0.349985,-1.9678 -0.209498,-3.80502 -1.677734,-4.9668 -0.415909,-0.34524 -0.529707,-0.74499 -0.34575,-1.11333 0.219735,-0.36644 0.763957,-0.74854 1.341797,-0.98047 0.174617,-0.0699 0.222611,-0.29454 0.0918,-0.42969 -0.391722,-0.40513 -0.837185,-0.60452 -1.263672,-0.64062 -0.297062,-0.0251 -0.549361,0.0932 -0.806641,0.18945 l -0.259765,-1.69141 c -0.136356,-0.27043 -0.238311,-0.23893 -0.466796,-0.127 z"
       id="path179678"
       sodipodi:nodetypes="ccccccccccccccccccc" />
    <path
       id="path7841"
       style="color:#000000;fill:#032927;fill-opacity:1;stroke-width:0.795484;stroke-linecap:round;stroke-linejoin:round;-inkscape-stroke:none"
       d="m 8.5044183,259.16614 c 0.103563,0.15857 0.262831,0.28143 0.45837,0.33383 0.420413,0.11265 0.858353,-0.14027 0.971001,-0.56069 0.03183,-0.11881 0.03395,-0.2389 0.01188,-0.35295 0.0876,0.0761 0.1932587,0.13403 0.3121257,0.16588 0.420412,0.11265 0.859903,-0.14028 0.97255,-0.56069 0.05248,-0.19588 0.02571,-0.39614 -0.06046,-0.56534 0.158761,-0.10357 0.281496,-0.26306 0.33383,-0.45837 0.05241,-0.19561 0.02594,-0.39468 -0.05994,-0.56327 0.158648,-0.10311 0.281419,-0.26225 0.33383,-0.45786 0.112645,-0.42041 -0.140282,-0.86041 -0.56069,-0.97306 -0.57297,-0.13462 -0.877605,0.2414 -0.972579,0.56274 -0.03183,0.1188 -0.03418,0.23912 -0.01189,0.35295 -0.08782,-0.0761 -0.193779,-0.13351 -0.3126417,-0.16536 -0.420408,-0.11265 -0.85783,0.13977 -0.970483,0.56017 -0.03183,0.1188 -0.03447,0.23941 -0.0124,0.35347 -0.0876,-0.0761 -0.19325,-0.13403 -0.312126,-0.16589 -0.420407,-0.11264 -0.859896,0.14029 -0.97255,0.56069 -0.05233,0.19531 -0.02562,0.39491 0.05994,0.56379 -0.158395,0.10312 -0.280957,0.26247 -0.333313,0.45786 -0.03657,0.13648 -0.03473,0.2749 -0.001,0.40359 -0.249652,0.08 -0.455817,0.2815 -0.528133,0.55139 -0.112645,0.42041 0.140282,0.8599 0.560689,0.97255 0.420413,0.11265 0.859904,-0.14183 0.972551,-0.56224 0.03651,-0.13628 0.03434,-0.27507 5.17e-4,-0.40359 z m 2.5755267,-3.48024 c 0.144172,0.0386 0.226215,0.17983 0.187585,0.32401 -0.03863,0.14417 -0.179837,0.22622 -0.324011,0.18759 -0.144172,-0.0386 -0.226214,-0.17985 -0.187585,-0.32402 0.0479,-0.15853 0.185935,-0.21907 0.324011,-0.18758 z m 1.209227,0.59725 c -0.05249,0.19588 -0.02571,0.39614 0.06046,0.56534 -0.158761,0.10357 -0.281493,0.26306 -0.33383,0.45837 -0.05241,0.1956 -0.02594,0.39467 0.05994,0.56327 -0.158648,0.10311 -0.280903,0.26225 -0.333313,0.45785 -0.112646,0.42041 0.139765,0.86042 0.560172,0.97307 0.118803,0.0318 0.239411,0.0337 0.353467,0.0114 -0.0763,0.0878 -0.13403,0.19378 -0.165881,0.31264 -0.112654,0.42041 0.140275,0.85784 0.560689,0.97049 0.195486,0.0524 0.394807,0.0258 0.56379,-0.06 0.02374,0.0366 0.05067,0.0715 0.0801,0.10387 -0.09333,0.0943 -0.164014,0.21264 -0.200504,0.34882 -0.112655,0.42041 0.139757,0.8599 0.560172,0.97255 0.420412,0.11265 0.860421,-0.13976 0.973068,-0.56017 0.07236,-0.27007 -0.0061,-0.54845 -0.182935,-0.74259 0.09306,-0.0946 0.164016,-0.21316 0.200505,-0.34934 0.05237,-0.19546 0.02579,-0.39475 -0.05994,-0.56327 0.159314,-0.1031 0.28292,-0.26259 0.33538,-0.45837 0.112644,-0.42041 -0.142347,-0.8599 -0.562756,-0.97255 -0.118786,-0.0318 -0.238909,-0.0342 -0.352951,-0.0119 0.07607,-0.0878 0.133516,-0.19325 0.165365,-0.31212 0.112644,-0.42041 -0.139763,-0.86042 -0.560172,-0.97307 -0.118067,-0.0316 -0.237973,-0.0343 -0.3514,-0.0124 0.07524,-0.0871 0.132264,-0.19179 0.163814,-0.30954 0.112644,-0.42041 -0.140279,-0.86043 -0.560689,-0.97307 -0.546435,-0.12822 -0.877756,0.24013 -0.972551,0.56072 z m 0.83561,-0.0484 c 0.144173,0.0386 0.226216,0.17778 0.187586,0.32195 -0.03863,0.14417 -0.179838,0.22621 -0.324011,0.18758 -0.0045,-10e-4 -0.0089,-0.002 -0.01344,-0.004 -0.135847,-0.0435 -0.211576,-0.18071 -0.17415,-0.32039 0.0475,-0.16037 0.181268,-0.21748 0.324015,-0.18514 z m -3.3413977,0.19847 c 0.14417,0.0386 0.2256947,0.18035 0.187069,0.32452 -0.03863,0.14418 -0.179838,0.2257 -0.324012,0.18707 -0.144171,-0.0386 -0.226215,-0.17983 -0.187585,-0.32401 0.051694,-0.17577 0.1882214,-0.21524 0.324528,-0.18758 z m 1.0231927,0.27337 c 0.144172,0.0386 0.224147,0.18035 0.185518,0.32452 -0.03863,0.14417 -0.177771,0.22622 -0.321944,0.18759 -0.144175,-0.0386 -0.226219,-0.18035 -0.187586,-0.32453 0.05343,-0.17034 0.196946,-0.21521 0.324012,-0.18758 z m -2.3182057,0.47539 c 0.144169,0.0386 0.224145,0.17984 0.185518,0.32401 -0.03863,0.14418 -0.180353,0.22622 -0.324528,0.18759 -0.144174,-0.0386 -0.224151,-0.17984 -0.185518,-0.32401 0.064041,-0.18386 0.1825115,-0.2178 0.324528,-0.18759 z m 4.3614917,0.0734 c 0.139664,0.0374 0.22086,0.17169 0.190686,0.31109 -0.0013,0.004 -0.0024,0.009 -0.0036,0.0134 -0.03863,0.14417 -0.179838,0.22621 -0.324012,0.18758 -0.144172,-0.0386 -0.224148,-0.18036 -0.185518,-0.32453 0.05677,-0.16045 0.190556,-0.21609 0.322444,-0.18754 z m -3.3398537,0.20202 c 0.1810589,0.0428 0.2152627,0.20854 0.187086,0.32397 -0.03863,0.14417 -0.1850429,0.23196 -0.324012,0.18552 -0.1575836,-0.0588 -0.2334027,-0.19548 -0.187589,-0.32439 0.063475,-0.15554 0.1812327,-0.21743 0.324515,-0.1851 z m 4.3630477,0.0724 c 0.144172,0.0386 0.226214,0.17984 0.187586,0.32402 -0.03863,0.14416 -0.180355,0.22621 -0.324528,0.18758 -0.144174,-0.0386 -0.225702,-0.18036 -0.187069,-0.32453 0.05465,-0.16361 0.18152,-0.21603 0.324011,-0.18707 z m -3.34192,0.20102 c 0.144172,0.0386 0.226216,0.17984 0.187586,0.32401 -0.03863,0.14417 -0.179838,0.22621 -0.324012,0.18758 -0.144174,-0.0386 -0.224151,-0.17984 -0.185518,-0.32401 0.05351,-0.15219 0.180495,-0.22229 0.321944,-0.18758 z m -2.3181997,0.4739 c 0.14417,0.0386 0.226212,0.18036 0.187586,0.32453 -0.03863,0.14417 -0.180355,0.22415 -0.324528,0.18552 -0.144172,-0.0386 -0.225699,-0.17829 -0.187069,-0.32246 0.049348,-0.14207 0.1788608,-0.21878 0.324011,-0.18759 z m 4.3630407,0.0723 c 0.144172,0.0386 0.226215,0.17984 0.187585,0.32401 -0.03863,0.14418 -0.179837,0.22622 -0.324011,0.18759 -0.144172,-0.0386 -0.226216,-0.17983 -0.187586,-0.32401 0.05195,-0.14728 0.197078,-0.21618 0.324012,-0.18759 z m -3.3398477,0.20102 c 0.144172,0.0386 0.226215,0.18036 0.187585,0.32453 -0.03863,0.14418 -0.179838,0.22623 -0.324011,0.18759 -0.144174,-0.0386 -0.226219,-0.18036 -0.187585,-0.32453 0.044141,-0.16029 0.1814605,-0.21618 0.324011,-0.18759 z m 4.3635577,0.0749 c 0.144173,0.0386 0.224148,0.17984 0.185518,0.32401 -0.03863,0.14418 -0.178287,0.22415 -0.322461,0.18552 -0.144175,-0.0386 -0.226218,-0.17983 -0.187585,-0.32401 0.04999,-0.16008 0.194912,-0.21246 0.324528,-0.18552 z m 1.021647,0.27288 c 0.144172,0.0386 0.225697,0.18035 0.187069,0.32452 -0.03863,0.14417 -0.179838,0.2257 -0.324012,0.18707 -0.144174,-0.0386 -0.226218,-0.17983 -0.187585,-0.32401 0.04854,-0.1628 0.173637,-0.21614 0.324528,-0.18758 z m -6.9375647,0.33277 c 0.144172,0.0386 0.225698,0.17985 0.187068,0.32402 -0.03863,0.14418 -0.179837,0.22621 -0.324011,0.18758 -0.144172,-0.0386 -0.226215,-0.18035 -0.187585,-0.32453 0.054756,-0.16873 0.1898047,-0.22126 0.324528,-0.18707 z m 2.5564317,0.68504 c -0.03188,0.11898 -0.03457,0.23949 -0.0124,0.35347 -0.08754,-0.076 -0.192855,-0.13406 -0.3116077,-0.16588 -0.420407,-0.11265 -0.860414,0.14028 -0.973068,0.56069 -0.02674,0.0998 -0.03263,0.20034 -0.02067,0.29766 -0.348315,0.002 -0.670263,0.23613 -0.764295,0.58704 -0.112654,0.42042 0.142342,0.8599 0.562757,0.97255 0.195881,0.0525 0.395042,0.0257 0.56379,-0.0605 0.103121,0.15876 0.262019,0.28149 0.457336,0.33383 0.195247,0.0523 0.3949377,0.0261 0.5637897,-0.0594 0.103119,0.15835 0.262505,0.28045 0.457853,0.3328 0.195368,0.0523 0.394872,0.0257 0.56379,-0.06 0.10354,0.15961 0.263372,0.28286 0.459403,0.33538 0.420414,0.11265 0.860421,-0.14182 0.973068,-0.56224 0.09405,-0.35099 -0.06824,-0.71401 -0.36897,-0.88987 0.05895,-0.0782 0.104005,-0.16841 0.130741,-0.2682 0.112645,-0.42041 -0.14028,-0.86041 -0.560689,-0.97306 -0.118802,-0.0318 -0.239411,-0.034 -0.353467,-0.0119 0.0763,-0.0876 0.134032,-0.19326 0.165882,-0.31212 0.112644,-0.42041 -0.140282,-0.85991 -0.56069,-0.97256 -0.548262,-0.11817 -0.87769,0.24142 -0.972553,0.56231 z m 3.08405,-0.26905 c 0.144172,0.0386 0.226215,0.17984 0.187586,0.32401 -0.03863,0.14417 -0.180354,0.22622 -0.324528,0.18759 -0.144174,-0.0386 -0.225702,-0.17984 -0.187069,-0.32401 0.05353,-0.17353 0.189859,-0.21257 0.324011,-0.18759 z m -2.249991,0.21811 c 0.144171,0.0386 0.226214,0.17984 0.187585,0.32401 -0.03863,0.14417 -0.180354,0.22622 -0.324528,0.18759 -0.144174,-0.0386 -0.225702,-0.17984 -0.187069,-0.32401 0.06757,-0.18371 0.19968,-0.20837 0.324012,-0.18759 z m 3.273181,0.0553 c 0.14417,0.0386 0.226212,0.17984 0.187585,0.32401 -0.03863,0.14418 -0.179838,0.22623 -0.324011,0.18759 -0.144172,-0.0386 -0.226215,-0.17985 -0.187586,-0.32402 0.05594,-0.17308 0.174743,-0.22043 0.324012,-0.18758 z m -4.5681917,0.6935 c 0.144172,0.0386 0.2262147,0.17984 0.187585,0.32401 -0.03863,0.14418 -0.179837,0.22622 -0.324011,0.18758 -0.144174,-0.0386 -0.226218,-0.18035 -0.187585,-0.32453 0.059858,-0.15841 0.1867168,-0.20822 0.324011,-0.18706 z m 1.0082017,0.26937 c 0.15853,0.0268 0.231189,0.18425 0.201026,0.32802 -0.03863,0.14418 -0.180356,0.22621 -0.324528,0.18758 -0.144175,-0.0386 -0.22622,-0.17983 -0.187586,-0.32401 0.04996,-0.15929 0.195016,-0.21604 0.311088,-0.19159 z m 3.540874,0.12905 c 0.144172,0.0386 0.225699,0.17984 0.187069,0.32401 -0.03863,0.14418 -0.179837,0.22415 -0.324011,0.18552 -0.144174,-0.0386 -0.226219,-0.17828 -0.187586,-0.32246 0.05996,-0.16873 0.195003,-0.21346 0.324528,-0.18707 z m -2.50424,0.15038 c 0.144172,0.0386 0.224148,0.17984 0.185519,0.32401 -0.03863,0.14418 -0.179837,0.22415 -0.324011,0.18552 -0.144172,-0.0386 -0.224149,-0.17828 -0.185519,-0.32246 0.0524,-0.16149 0.184195,-0.21388 0.324011,-0.18707 z m -2.8298017,0.33697 c 0.144172,0.0386 0.226215,0.17829 0.187585,0.32246 -0.03863,0.14417 -0.180354,0.22621 -0.324528,0.18758 -0.144174,-0.0386 -0.226218,-0.17983 -0.187585,-0.32401 0.052124,-0.15834 0.1954986,-0.21792 0.324528,-0.18603 z m 1.0211267,0.27436 c 0.144172,0.0386 0.226216,0.17984 0.187586,0.32401 -0.03863,0.14417 -0.179838,0.22415 -0.3240086,0.18552 -0.144175,-0.0386 -0.226219,-0.17828 -0.187586,-0.32246 0.051676,-0.18209 0.1951584,-0.21506 0.3240086,-0.18707 z m 1.023709,0.27337 c 0.144172,0.0386 0.224149,0.17984 0.185519,0.32401 -0.03863,0.14417 -0.179838,0.22622 -0.324011,0.18759 -0.144172,-0.0386 -0.224665,-0.17984 -0.186035,-0.32401 0.05801,-0.17632 0.191397,-0.21683 0.324527,-0.18759 z m 1.021647,0.27289 c 0.144172,0.0386 0.225699,0.17983 0.187069,0.32401 -0.03863,0.14417 -0.179837,0.22622 -0.324011,0.18759 -0.144174,-0.0386 -0.226219,-0.17985 -0.187585,-0.32402 0.05189,-0.17803 0.202451,-0.21516 0.324527,-0.18758 z"
       sodipodi:nodetypes="ccscsccscscccssccccscssccccscccccscsccscccssscsccccsccscccscccccsccccsccccsccccccccccccccccccccsccccsccccsccccsccccsccccsccccscccccssccccccccccccccccccsccccsccccsccccscccccccccsccccsccccsccccsccccsccccsccc" />
    <path
       style="color:#000000;fill:#801231;stroke-width:0.795484;stroke-linecap:round;stroke-linejoin:round;-inkscape-stroke:none"
       d="m 3.1875,255.38281 a 0.2645835,0.2645835 0 0 0 -0.1953125,0.0566 c -0.7004476,0.56036 -1.1515853,1.25329 -1.3730469,2.04688 a 0.2645835,0.2645835 0 0 0 0.1835938,0.32617 0.2645835,0.2645835 0 0 0 0.3261719,-0.18359 c 0.1934644,-0.69327 0.5708917,-1.27937 1.1933593,-1.77735 a 0.2645835,0.2645835 0 0 0 0.041016,-0.37109 0.2645835,0.2645835 0 0 0 -0.1757813,-0.0977 z m -1.4707031,3.10156 a 0.2645835,0.2645835 0 0 0 -0.2675782,0.26172 c -0.00255,0.22147 0.00616,0.4492 0.027344,0.68164 a 0.2645835,0.2645835 0 0 0 0.2871094,0.24024 0.2645835,0.2645835 0 0 0 0.2402344,-0.28906 c -0.01969,-0.21604 -0.027717,-0.42518 -0.025391,-0.62696 a 0.2645835,0.2645835 0 0 0 -0.2617186,-0.26758 z"
       id="path13146" />
    <path
       id="path205533"
       style="color:#000000;fill:#801231;fill-opacity:1;stroke-width:0.795484;stroke-linecap:round;stroke-linejoin:round;-inkscape-stroke:none"
       d="m 13.197128,250.93767 -1.082105,1.3317 c -0.439169,-0.51241 -1.096881,-0.90021 -2.005562,-0.64027 -0.1810968,0.0509 -0.2527006,0.26926 -0.1369428,0.41755 0.033358,0.0425 0.065473,0.0862 0.097152,0.13022 0.744451,-0.33449 1.603228,0.12084 2.045352,0.62168 l 1.082105,-1.33171 c 0.154663,-0.20302 0.438944,-0.15568 0.466638,0.12662 l 0.259932,1.69137 c 0.25728,-0.0962 0.509607,-0.21424 0.806669,-0.18913 0.391011,0.0331 0.797914,0.20383 1.164787,0.54415 0.0024,-9.8e-4 0.0048,-0.002 0.0072,-0.003 0.174734,-0.07 0.222581,-0.29489 0.09147,-0.42995 -0.391722,-0.40513 -0.837002,-0.60417 -1.263489,-0.64027 -0.297062,-0.0251 -0.549389,0.0929 -0.806669,0.18913 l -0.259932,-1.69136 c -0.07017,-0.28128 -0.328381,-0.26563 -0.466605,-0.12673 z"
       sodipodi:nodetypes="ccccccccccccccccc" />
  </g>
</svg>
