<?xml version="1.0" encoding="UTF-8" standalone="no"?>
<!-- Created with Inkscape (http://www.inkscape.org/) -->

<svg
   width="64pt"
   height="64pt"
   viewBox="0 0 22.577778 22.577778"
   version="1.1"
   id="svg831"
   inkscape:version="1.1.1 (3bf5ae0d25, 2021-09-20)"
   sodipodi:docname="Export - Unblash - 64px.svg"
   inkscape:export-filename="C:\Users\User\Desktop\CARLOS PROJECT\2. FEBRUARI 1\DONE\8 - Peach.png"
   inkscape:export-xdpi="576"
   inkscape:export-ydpi="576"
   xmlns:inkscape="http://www.inkscape.org/namespaces/inkscape"
   xmlns:sodipodi="http://sodipodi.sourceforge.net/DTD/sodipodi-0.dtd"
   xmlns="http://www.w3.org/2000/svg"
   xmlns:svg="http://www.w3.org/2000/svg"
   xmlns:rdf="http://www.w3.org/1999/02/22-rdf-syntax-ns#"
   xmlns:cc="http://creativecommons.org/ns#"
   xmlns:dc="http://purl.org/dc/elements/1.1/">
  <defs
     id="defs825">
    <pattern
       id="EMFhbasepattern"
       patternUnits="userSpaceOnUse"
       width="6"
       height="6"
       x="0"
       y="0" />
    <pattern
       id="EMFhbasepattern-9"
       patternUnits="userSpaceOnUse"
       width="6"
       height="6"
       x="0"
       y="0" />
    <pattern
       id="EMFhbasepattern-0"
       patternUnits="userSpaceOnUse"
       width="6"
       height="6"
       x="0"
       y="0" />
    <pattern
       id="EMFhbasepattern-7"
       patternUnits="userSpaceOnUse"
       width="6"
       height="6"
       x="0"
       y="0" />
    <pattern
       id="EMFhbasepattern-2"
       patternUnits="userSpaceOnUse"
       width="6"
       height="6"
       x="0"
       y="0" />
    <pattern
       id="EMFhbasepattern-98"
       patternUnits="userSpaceOnUse"
       width="6"
       height="6"
       x="0"
       y="0" />
    <pattern
       id="EMFhbasepattern-6"
       patternUnits="userSpaceOnUse"
       width="6"
       height="6"
       x="0"
       y="0" />
    <pattern
       id="EMFhbasepattern-01"
       patternUnits="userSpaceOnUse"
       width="6"
       height="6"
       x="0"
       y="0" />
    <pattern
       id="EMFhbasepattern-07"
       patternUnits="userSpaceOnUse"
       width="6"
       height="6"
       x="0"
       y="0" />
    <pattern
       id="EMFhbasepattern-8"
       patternUnits="userSpaceOnUse"
       width="6"
       height="6"
       x="0"
       y="0" />
    <pattern
       id="EMFhbasepattern-4"
       patternUnits="userSpaceOnUse"
       width="6"
       height="6"
       x="0"
       y="0" />
    <pattern
       id="EMFhbasepattern-40"
       patternUnits="userSpaceOnUse"
       width="6"
       height="6"
       x="0"
       y="0" />
    <pattern
       id="EMFhbasepattern-08"
       patternUnits="userSpaceOnUse"
       width="6"
       height="6"
       x="0"
       y="0" />
    <pattern
       id="EMFhbasepattern-04"
       patternUnits="userSpaceOnUse"
       width="6"
       height="6"
       x="0"
       y="0" />
    <pattern
       id="EMFhbasepattern-014"
       patternUnits="userSpaceOnUse"
       width="6"
       height="6"
       x="0"
       y="0" />
    <pattern
       id="EMFhbasepattern-27"
       patternUnits="userSpaceOnUse"
       width="6"
       height="6"
       x="0"
       y="0" />
    <pattern
       id="EMFhbasepattern-09"
       patternUnits="userSpaceOnUse"
       width="6"
       height="6"
       x="0"
       y="0" />
    <pattern
       id="EMFhbasepattern-5"
       patternUnits="userSpaceOnUse"
       width="6"
       height="6"
       x="0"
       y="0" />
    <pattern
       id="EMFhbasepattern-018"
       patternUnits="userSpaceOnUse"
       width="6"
       height="6"
       x="0"
       y="0" />
  </defs>
  <sodipodi:namedview
     id="base"
     pagecolor="#ffffff"
     bordercolor="#666666"
     borderopacity="1.0"
     inkscape:pageopacity="0.0"
     inkscape:pageshadow="2"
     inkscape:zoom="9.1757813"
     inkscape:cx="37.925926"
     inkscape:cy="42.666666"
     inkscape:document-units="pt"
     inkscape:current-layer="svg831"
     showgrid="false"
     units="pt"
     inkscape:window-width="1920"
     inkscape:window-height="1001"
     inkscape:window-x="-9"
     inkscape:window-y="41"
     inkscape:window-maximized="1"
     inkscape:pagecheckerboard="true"
     inkscape:showpageshadow="false"
     inkscape:object-paths="true"
     inkscape:snap-intersection-paths="true"
     inkscape:snap-smooth-nodes="true"
     inkscape:snap-midpoints="true"
     showguides="true"
     inkscape:snap-bbox="true"
     inkscape:bbox-nodes="true"
     inkscape:snap-nodes="false"
     inkscape:snap-global="true">
    <inkscape:grid
       type="xygrid"
       id="grid1378" />
    <sodipodi:guide
       position="0.97013831,21.607643"
       orientation="78.000048,0"
       id="guide1380"
       inkscape:locked="false" />
    <sodipodi:guide
       position="0.97013831,0.97013129"
       orientation="0,78.000005"
       id="guide1382"
       inkscape:locked="false" />
    <sodipodi:guide
       position="21.607639,0.97013129"
       orientation="-78.000048,0"
       id="guide1384"
       inkscape:locked="false" />
    <sodipodi:guide
       position="21.607639,21.607643"
       orientation="0,-78.000005"
       id="guide1386"
       inkscape:locked="false" />
  </sodipodi:namedview>
  <metadata
     id="metadata828">
    <rdf:RDF>
      <cc:Work
         rdf:about="">
        <dc:format>image/svg+xml</dc:format>
        <dc:type
           rdf:resource="http://purl.org/dc/dcmitype/StillImage" />
      </cc:Work>
    </rdf:RDF>
  </metadata>
  <g
     inkscape:label="Icon"
     inkscape:groupmode="layer"
     id="layer1"
     transform="translate(0,-274.42223)" />
  <g
     id="g1887"
     style="display:inline;stroke-width:0.795367"
     transform="matrix(1.2572809,0,0,1.2572809,-76.057576,-313.10319)">
    <g
       id="g12516"
       style="stroke-width:0.795367">
      <path
         style="color:#000000;fill:#f03866;fill-opacity:1;stroke-width:0.795367;stroke-linecap:round;stroke-linejoin:round;-inkscape-stroke:none"
         d="m 66.138605,258.83602 c 0,0.65567 0.537533,1.19321 1.193208,1.19321 0.655672,0 1.191657,-0.53754 1.191659,-1.19321 -2e-6,-0.65568 -0.535987,-1.1932 -1.191659,-1.1932 z"
         id="path1132770"
         sodipodi:nodetypes="csscc" />
      <path
         id="path46059"
         style="color:#000000;fill:#dc1c5c;fill-opacity:1;stroke-width:0.795367;stroke-linecap:round;stroke-linejoin:round;-inkscape-stroke:none"
         d="m 67.087381,257.67791 c 0.519218,0.12877 0.90692,0.60047 0.906923,1.15806 -3e-6,0.56477 -0.397788,1.04231 -0.927077,1.16376 0.08525,0.0195 0.173678,0.0294 0.264584,0.0294 0.655672,0 1.191657,-0.53754 1.191659,-1.19321 -2e-6,-0.65568 -0.535987,-1.1932 -1.191659,-1.1932 z"
         sodipodi:nodetypes="cscsscc" />
      <g
         id="g42882"
         transform="matrix(-1,0,0,1,131.41345,-1.8750029e-8)"
         style="stroke-width:0.795367">
        <path
           style="color:#000000;fill:#f03866;fill-opacity:1;stroke-width:0.795367;stroke-linecap:round;stroke-linejoin:round;-inkscape-stroke:none"
           d="m 63.39813,256.03133 -1.115234,0.98047 c -0.05725,0.0504 -0.09,0.12297 -0.08984,0.19922 2e-6,0.29626 0.06772,0.60288 0.283203,0.83594 0.215484,0.23306 0.555876,0.35742 0.992184,0.35742 l 1.429685,-1.11328 z"
           id="path42876"
           sodipodi:nodetypes="cccsccc" />
        <path
           id="path42878"
           style="color:#000000;fill:#dc1c5c;fill-opacity:1;stroke-width:0.795367;stroke-linecap:round;stroke-linejoin:round;-inkscape-stroke:none"
           d="m 63.423501,258.31446 c -0.168706,-0.0603 -0.309243,-0.15027 -0.418048,-0.26794 -0.215482,-0.23307 -0.283186,-0.53935 -0.283186,-0.83561 l -0.529166,3.4e-4 c 0,0.29626 0.0677,0.60254 0.283187,0.83561 0.215484,0.23305 0.555879,0.3576 0.992187,0.3576 z"
           sodipodi:nodetypes="ccccscc" />
      </g>
      <path
         id="path49429"
         style="color:#000000;fill:#dc1c5c;fill-opacity:1;stroke-width:0.795367;stroke-linecap:round;stroke-linejoin:round;-inkscape-stroke:none"
         d="m 67.825836,255.96476 a 0.26460996,0.26460996 0 0 0 -0.181385,0.0863 l -1.12913,1.24024 a 0.26460996,0.26460996 0 0 0 0.07028,0.40979 l 1.234548,0.67025 a 0.26460996,0.26460996 0 0 0 0.125058,0.0331 c 0.141621,0 0.272841,-0.0131 0.393258,-0.0388 l -1.223698,-0.66456 a 0.26460996,0.26460996 0 0 1 -0.07028,-0.40979 l 1.068671,-1.17409 -0.09767,-0.0858 a 0.26460996,0.26460996 0 0 0 -0.189654,-0.0667 z" />
      <path
         style="color:#000000;fill:#b01d47;stroke-width:0.795367;stroke-linecap:round;stroke-linejoin:round;-inkscape-stroke:none"
         d="m 69.294615,255.48054 c 0.182924,-0.36012 0.213139,-0.7802 0.002,-1.17773 -0.0407,-0.0781 -0.117579,-0.13079 -0.205078,-0.14063 l -1.460985,-0.15819 c -0.08865,-0.009 -0.17601,0.0267 -0.232422,0.0957 -0.300949,0.36645 -0.382776,0.82312 -0.248046,1.20899 z"
         id="path1057588"
         sodipodi:nodetypes="ccccccc" />
      <path
         style="color:#000000;fill:#f03866;fill-opacity:1;stroke-width:0.795367;stroke-linecap:round;stroke-linejoin:round;-inkscape-stroke:none"
         d="m 68.954771,255.08993 c -0.655674,0 -1.191404,0.53768 -1.191406,1.19336 2e-6,0.65568 0.535732,1.19336 1.191406,1.19336 0.655674,0 1.193357,-0.53769 1.193359,-1.19336 -2e-6,-0.65568 -0.537685,-1.19336 -1.193359,-1.19336 z"
         id="path1057590" />
      <path
         style="color:#000000;fill:#b01d47;fill-opacity:1;stroke-width:0.795367;stroke-linecap:round;stroke-linejoin:round;-inkscape-stroke:none"
         d="m 63.294615,253.40829 0.476562,1.86132 c 0.0079,0.0323 0.02182,0.0628 0.04102,0.0899 0.216687,0.29801 0.571747,0.49219 0.966797,0.49219 0.400913,0 0.704579,-0.23529 0.927734,-0.53711 0.223178,0.30153 0.52705,0.53711 0.927735,0.53711 0.395049,0 0.748156,-0.19418 0.964843,-0.49219 0.02319,-0.0313 0.0392,-0.0673 0.04687,-0.10547 l 0.38086,-1.95117 z"
         id="path1057580"
         sodipodi:nodetypes="cccscscccc" />
      <path
         style="color:#000000;fill:#b01d47;stroke-width:0.795367;stroke-linecap:round;stroke-linejoin:round;-inkscape-stroke:none"
         d="m 64.284851,255.27344 c 0.121766,-0.38645 0.01578,-0.82144 -0.269531,-1.17187 -0.05638,-0.0704 -0.144707,-0.10719 -0.234375,-0.0977 l -2e-6,1.2e-4 -1.460938,0.16016 c -0.0875,0.01 -0.164372,0.0625 -0.205078,0.14062 -0.201113,0.3799 -0.233583,0.82264 0.01758,1.20313 z"
         id="path1057582"
         sodipodi:nodetypes="cccccccc" />
      <path
         id="path1098057"
         style="fill:#f03866;stroke-width:0.795367;stroke-linecap:round;stroke-linejoin:round"
         d="m 64.082031,257.64258 c -0.655672,0 -1.193359,0.53768 -1.193359,1.19336 0,0.65567 0.537687,1.19336 1.193359,1.19336 0.655674,0 1.193357,-0.53769 1.19336,-1.19336 z"
         sodipodi:nodetypes="csscc" />
      <path
         id="path42964"
         style="color:#000000;fill:#dc1c5c;fill-opacity:1;stroke-width:0.795367;stroke-linecap:round;stroke-linejoin:round;-inkscape-stroke:none"
         d="m 64.081879,257.64271 c -0.655672,0 -1.19321,0.53752 -1.19321,1.1932 0,0.65567 0.537538,1.19321 1.19321,1.19321 0.09073,0 0.179482,-0.01 0.264583,-0.0294 -0.52964,-0.12148 -0.928627,-0.59899 -0.928627,-1.16376 0,-0.55762 0.388856,-1.02979 0.908474,-1.15858 z"
         sodipodi:nodetypes="csscscc" />
      <path
         style="color:#000000;fill:#f03866;fill-opacity:1;stroke-width:0.795367;stroke-linecap:round;stroke-linejoin:round;-inkscape-stroke:none"
         d="m 64.831724,257.52743 c -0.145408,5.1e-4 -0.263156,0.11826 -0.263672,0.26367 v 1.58789 c 0.182703,0.50724 0.722151,0.87083 1.138677,0.88082 0.575772,-0.12588 0.974364,-0.40181 1.138677,-0.85552 l 0.142578,-1.58984 c 0.01312,-0.15369 -0.107471,-0.28598 -0.261719,-0.28711 z"
         id="path1057564"
         sodipodi:nodetypes="cccccccc" />
      <path
         id="path50965"
         style="color:#000000;fill:#dc1c5c;fill-opacity:1;stroke-width:0.795367;stroke-linecap:round;stroke-linejoin:round;-inkscape-stroke:none"
         d="m 66.196995,257.52747 c 0.154225,9.8e-4 0.274935,0.13312 0.261998,0.2868 l -0.142626,1.59008 c -0.04995,0.56935 -0.534064,0.74154 -0.874364,0.82579 0.08526,0.0194 0.173651,0.0295 0.264583,0.0295 0.670951,-0.0221 1.101904,-0.42478 1.138948,-0.85525 l 0.142626,-1.59008 c 0.01294,-0.15368 -0.107773,-0.28582 -0.261998,-0.2868 z"
         sodipodi:nodetypes="ccccccccc" />
      <path
         id="path44648"
         style="color:#000000;fill:#dc1c5c;fill-opacity:1;stroke-width:0.795367;stroke-linecap:round;stroke-linejoin:round;-inkscape-stroke:none"
         d="m 64.831702,257.52747 c -0.145313,5.8e-4 -0.262967,0.11824 -0.263548,0.26355 v 1.58801 c 0.02823,0.61888 0.722092,0.88091 1.138428,0.88055 0.09082,0 0.179422,-0.0101 0.264584,-0.0295 -0.596359,-0.0889 -0.836607,-0.36859 -0.873846,-0.85109 v -1.58801 c 5.81e-4,-0.14531 0.118236,-0.26297 0.263549,-0.26355 z"
         sodipodi:nodetypes="ccccccccc" />
      <path
         style="color:#000000;fill:#f03866;fill-opacity:1;stroke-width:0.795367;stroke-linecap:round;stroke-linejoin:round;-inkscape-stroke:none"
         d="m 62.282896,257.0118 c -0.05725,0.0504 -0.09,0.12297 -0.08984,0.19922 2e-6,0.29626 0.06772,0.60288 0.283203,0.83594 0.215484,0.23306 0.555876,0.35742 0.992184,0.35742 0.464426,-0.16157 0.916482,-0.46276 1.359375,-0.70313 0.150797,-0.0816 0.185307,-0.28295 0.07031,-0.41015 l -1.128906,-1.24024 c -0.569497,-0.21088 -1.055355,0.58205 -1.486326,0.96094 z"
         id="path1057560"
         sodipodi:nodetypes="ccsccccc" />
      <path
         id="path47784"
         style="color:#000000;fill:#dc1c5c;fill-opacity:1;stroke-width:0.795367;stroke-linecap:round;stroke-linejoin:round;-inkscape-stroke:none"
         d="m 64.298398,257.70115 -1.223182,0.66456 c 0.120282,0.0256 0.251833,0.0388 0.393258,0.0388 0.04378,-5.2e-4 0.08675,-0.0119 0.125058,-0.0331 l 1.234033,-0.67024 z"
         sodipodi:nodetypes="cccccc" />
      <path
         id="path27178"
         style="color:#000000;fill:#dc1c5c;fill-opacity:1;stroke-width:0.795367;stroke-linecap:round;stroke-linejoin:round;-inkscape-stroke:none"
         d="m 62.193101,257.21125 c 0,0.29626 0.0677,0.60254 0.283187,0.83561 0.215484,0.23305 0.555879,0.3576 0.992187,0.3576 0.04378,-5.2e-4 0.08675,-0.0119 0.125058,-0.0331 l 0.01085,-0.006 c -0.250799,-0.0534 -0.453292,-0.16133 -0.59893,-0.31884 -0.215482,-0.23307 -0.283186,-0.53935 -0.283186,-0.83561 z"
         sodipodi:nodetypes="cscscccc" />
      <path
         style="color:#000000;fill:#f03866;fill-opacity:1;stroke-width:0.795367;stroke-linecap:round;stroke-linejoin:round;-inkscape-stroke:none"
         d="m 65.002523,256.25923 c -0.655674,0 -1.191404,0.53768 -1.191406,1.19336 2e-6,0.65568 0.535732,1.19336 1.191406,1.19336 0.655674,0 1.193357,-0.53769 1.193359,-1.19336 -2e-6,-0.65568 -0.537685,-1.19336 -1.193359,-1.19336 z"
         id="path361877" />
      <path
         id="path36508"
         style="color:#000000;fill:#dc1c5c;fill-opacity:1;stroke-width:0.795367;stroke-linecap:round;stroke-linejoin:round;-inkscape-stroke:none"
         d="m 64.73817,256.28873 c 0.529637,0.12147 0.928624,0.59898 0.928624,1.16376 0,0.56476 -0.398987,1.04227 -0.928624,1.16375 0.08503,0.0195 0.173852,0.0294 0.264583,0.0294 0.655675,0 1.193207,-0.53753 1.193207,-1.1932 0,-0.65568 -0.537532,-1.19321 -1.193207,-1.19321 z"
         sodipodi:nodetypes="cscsscc" />
      <path
         id="path30199"
         style="color:#000000;fill:#dc1c5c;fill-opacity:1;stroke-width:0.795367;stroke-linecap:round;stroke-linejoin:round;-inkscape-stroke:none"
         d="m 65.002753,256.25933 c -0.655675,0 -1.191657,0.53753 -1.19166,1.19321 3e-6,0.65568 0.535985,1.1932 1.19166,1.1932 0.0909,0 0.179332,-0.01 0.264583,-0.0294 -0.529484,-0.12129 -0.927073,-0.5988 -0.927076,-1.16375 3e-6,-0.56495 0.397592,-1.04247 0.927076,-1.16376 z"
         sodipodi:nodetypes="csscscc" />
      <path
         style="color:#000000;fill:#f03866;fill-opacity:1;stroke-width:0.795367;stroke-linecap:round;stroke-linejoin:round;-inkscape-stroke:none"
         d="m 66.417381,256.23585 c -0.655674,0 -1.191404,0.53768 -1.191406,1.19336 2e-6,0.65568 0.535732,1.19336 1.191406,1.19336 0.655674,0 1.193357,-0.53769 1.193359,-1.19336 -2e-6,-0.65568 -0.537685,-1.19336 -1.193359,-1.19336 z"
         id="path361879" />
      <path
         id="path38940"
         style="color:#000000;fill:#dc1c5c;fill-opacity:1;stroke-width:0.795367;stroke-linecap:round;stroke-linejoin:round;-inkscape-stroke:none"
         d="m 66.153069,256.26557 c 0.52964,0.12147 0.928624,0.59898 0.928626,1.16375 -2e-6,0.56477 -0.398986,1.04228 -0.928626,1.16375 0.08504,0.0195 0.173336,0.0295 0.264067,0.0295 0.655675,0 1.193723,-0.53754 1.193726,-1.19321 -3e-6,-0.65568 -0.538051,-1.19321 -1.193726,-1.19321 z"
         sodipodi:nodetypes="cscsscc" />
      <path
         id="path37373"
         style="color:#000000;fill:#dc1c5c;fill-opacity:1;stroke-width:0.795367;stroke-linecap:round;stroke-linejoin:round;-inkscape-stroke:none"
         d="m 66.386648,256.23607 c -0.641641,0.0164 -1.160653,0.54778 -1.160653,1.19321 3e-6,0.65568 0.535467,1.19321 1.191141,1.19321 0.09091,0 0.179851,-0.01 0.265099,-0.0295 -0.529481,-0.12128 -0.927073,-0.5988 -0.927073,-1.16375 0,-0.56495 0.397592,-1.04246 0.927073,-1.16375 -0.08525,-0.0196 -0.174193,-0.0295 -0.265099,-0.0295 -0.01024,0 -0.0203,-2.6e-4 -0.03049,0 z" />
      <path
         style="color:#000000;fill:#f03866;fill-opacity:1;stroke-width:0.795367;stroke-linecap:round;stroke-linejoin:round;-inkscape-stroke:none"
         d="m 62.456724,255.08993 c -0.655671,0 -1.1914,0.53768 -1.191406,1.19336 -10e-7,0.65567 0.53573,1.19336 1.191406,1.19336 0.655677,0 1.193361,-0.53769 1.19336,-1.19336 -6e-6,-0.65568 -0.537688,-1.19336 -1.19336,-1.19336 z"
         id="path1057586" />
      <path
         id="path32002"
         style="color:#000000;fill:#dc1c5c;fill-opacity:1;stroke-width:0.795367;stroke-linecap:round;stroke-linejoin:round;-inkscape-stroke:none"
         d="m 62.192587,255.11989 c 0.579241,0.0305 0.928105,0.59847 0.928111,1.16324 0,0.56476 -0.398468,1.04228 -0.928111,1.16375 0.08504,0.0195 0.173336,0.03 0.264067,0.03 0.655677,0 1.19321,-0.53805 1.19321,-1.19372 -0.212058,-0.84709 -0.558657,-1.29316 -1.457277,-1.16327 z"
         sodipodi:nodetypes="cscscc" />
      <path
         style="color:#000000;fill:#f03866;fill-opacity:1;stroke-width:0.795367;stroke-linecap:round;stroke-linejoin:round;-inkscape-stroke:none"
         d="m 64.078773,254.84438 c -0.655674,0 -1.191404,0.53768 -1.191406,1.19336 2e-6,0.65568 0.535732,1.19336 1.191406,1.19336 0.655674,0 1.193357,-0.53769 1.193359,-1.19336 -2e-6,-0.65568 -0.537685,-1.19336 -1.193359,-1.19336 z"
         id="path367134" />
      <path
         id="path21810"
         style="color:#000000;fill:#dc1c5c;fill-opacity:1;stroke-width:0.795367;stroke-linecap:round;stroke-linejoin:round;-inkscape-stroke:none"
         d="m 63.814194,254.87393 c 0.529672,0.12145 0.928624,0.59896 0.928627,1.16376 -3e-6,0.56478 -0.398955,1.0423 -0.928627,1.16375 0.08519,0.0195 0.173678,0.03 0.264584,0.03 0.655674,0 1.193207,-0.53805 1.19321,-1.19372 0,-0.89392 -0.732628,-1.31259 -1.457794,-1.16379 z"
         sodipodi:nodetypes="cscscc" />
      <path
         style="color:#000000;fill:#f03866;fill-opacity:1;stroke-width:0.795367;stroke-linecap:round;stroke-linejoin:round;-inkscape-stroke:none"
         d="m 65.704105,254.85607 c -0.655674,0 -1.191404,0.53768 -1.191406,1.19336 2e-6,0.65568 0.535732,1.19336 1.191406,1.19336 0.655674,0 1.193357,-0.53769 1.193359,-1.19336 -2e-6,-0.65568 -0.537685,-1.19336 -1.193359,-1.19336 z"
         id="path367216" />
      <path
         id="path23572"
         style="color:#000000;fill:#dc1c5c;fill-opacity:1;stroke-width:0.795367;stroke-linecap:round;stroke-linejoin:round;-inkscape-stroke:none"
         d="m 65.439935,254.88581 c 0.52964,0.12147 0.928108,0.59898 0.928108,1.16375 0,0.56477 -0.398468,1.04228 -0.928108,1.16375 0.08503,0.0195 0.173336,0.0295 0.264067,0.0295 0.655675,0 1.193207,-0.53754 1.193207,-1.19321 0,-0.65568 -0.537532,-1.19321 -1.193207,-1.19321 z"
         sodipodi:nodetypes="cscsscc" />
      <path
         id="path20048"
         style="color:#000000;fill:#dc1c5c;fill-opacity:1;stroke-width:0.795367;stroke-linecap:round;stroke-linejoin:round;-inkscape-stroke:none"
         d="m 67.763307,256.2831 c 3e-6,0.65568 0.535985,1.19372 1.19166,1.19372 0.0909,0 0.179332,-0.0104 0.264583,-0.03 -0.529484,-0.12129 -0.927073,-0.5988 -0.927076,-1.16375 3e-6,-0.56495 0.3976,-1.04194 0.927076,-1.16324 -0.795973,-0.15855 -1.431812,0.36571 -1.456243,1.16327 z"
         sodipodi:nodetypes="cscscc" />
      <path
         style="color:#000000;fill:#f03866;fill-opacity:1;stroke-width:0.795367;stroke-linecap:round;stroke-linejoin:round;-inkscape-stroke:none"
         d="m 67.317745,254.86776 c -0.655674,0 -1.191404,0.53768 -1.191406,1.19336 2e-6,0.65568 0.535732,1.19336 1.191406,1.19336 0.655674,0 1.193357,-0.53769 1.193359,-1.19336 -2e-6,-0.65568 -0.537685,-1.19336 -1.193359,-1.19336 z"
         id="path369216" />
      <path
         id="path25451"
         style="color:#000000;fill:#dc1c5c;fill-opacity:1;stroke-width:0.795367;stroke-linecap:round;stroke-linejoin:round;-inkscape-stroke:none"
         d="m 67.053274,254.89768 c 0.529632,0.12148 0.928624,0.59847 0.928624,1.16324 0,0.56476 -0.398992,1.04227 -0.928624,1.16375 0.08517,0.0195 0.173696,0.03 0.264583,0.03 0.655675,0 1.193208,-0.53806 1.193208,-1.19373 0,-0.90568 -0.671048,-1.26812 -1.457791,-1.16326 z"
         sodipodi:nodetypes="cscscc" />
      <path
         id="path13585"
         style="color:#000000;fill:#dc1c5c;fill-opacity:1;stroke-width:0.795367;stroke-linecap:round;stroke-linejoin:round;-inkscape-stroke:none"
         d="m 61.265513,256.2831 c -2e-6,0.65567 0.535467,1.19372 1.191141,1.19372 0.09091,0 0.179851,-0.0104 0.2651,-0.03 -0.529485,-0.12129 -0.927077,-0.59881 -0.927074,-1.16375 5e-6,-0.56495 0.223967,-1.12876 0.927074,-1.16324 -1.016833,-0.17215 -1.43992,0.63004 -1.456241,1.16327 z"
         sodipodi:nodetypes="cscscc" />
      <path
         id="path15581"
         style="color:#000000;fill:#dc1c5c;fill-opacity:1;stroke-width:0.795367;stroke-linecap:round;stroke-linejoin:round;-inkscape-stroke:none"
         d="m 62.887118,256.03764 c 3e-6,0.65568 0.535985,1.19372 1.19166,1.19372 0.09088,0 0.179353,-0.0104 0.264583,-0.03 -0.529238,-0.12147 -0.927074,-0.59898 -0.927076,-1.16375 2e-6,-0.56478 0.397838,-1.04229 0.927076,-1.16376 -0.792119,-0.15606 -1.456243,0.41114 -1.456243,1.16379 z"
         sodipodi:nodetypes="cscscc" />
      <path
         id="path17382"
         style="color:#000000;fill:#dc1c5c;fill-opacity:1;stroke-width:0.795367;stroke-linecap:round;stroke-linejoin:round;-inkscape-stroke:none"
         d="m 65.673512,254.85631 c -0.641639,0.0164 -1.160651,0.54778 -1.160653,1.19321 2e-6,0.65568 0.535469,1.19321 1.191143,1.19321 0.09091,0 0.179851,-0.01 0.265099,-0.0295 -0.529481,-0.12129 -0.927073,-0.5988 -0.927076,-1.16375 3e-6,-0.56495 0.397595,-1.04246 0.927076,-1.16375 z"
         sodipodi:nodetypes="csscscc" />
      <path
         id="path18442"
         style="color:#000000;fill:#dc1c5c;fill-opacity:1;stroke-width:0.795367;stroke-linecap:round;stroke-linejoin:round;-inkscape-stroke:none"
         d="m 66.126198,256.06089 c 2e-6,0.65568 0.535985,1.19373 1.191659,1.19373 0.09091,0 0.17933,-0.0104 0.264584,-0.03 -0.529265,-0.12145 -0.927074,-0.59896 -0.927076,-1.16375 2e-6,-0.56479 0.397811,-1.04178 0.927076,-1.16324 -0.780071,-0.15543 -1.456243,0.39877 -1.456243,1.16326 z"
         sodipodi:nodetypes="cscscc" />
      <path
         id="path34271"
         style="color:#000000;fill:#dc1c5c;fill-opacity:1;stroke-width:0.795367;stroke-linecap:round;stroke-linejoin:round;-inkscape-stroke:none"
         d="m 68.690383,255.11989 c 0.529633,0.12148 0.928624,0.59847 0.928624,1.16324 0,0.56476 -0.398986,1.04228 -0.928624,1.16375 0.08503,0.0195 0.173853,0.03 0.264584,0.03 0.655674,0 1.193207,-0.53805 1.193207,-1.19372 0,-0.87702 -0.719892,-1.28888 -1.457791,-1.16327 z"
         sodipodi:nodetypes="cscscc" />
      <path
         style="color:#000000;fill:#50b86b;stroke-width:0.795367;stroke-linecap:round;stroke-linejoin:round;-inkscape-stroke:none"
         d="m 61.736284,251.26583 c -0.152501,0.0596 -0.214851,0.24194 -0.130741,0.38241 0,0 0.447503,0.6615 0.943096,1.15083 -0.196733,0.301 -0.358227,0.64173 -0.441317,0.9586 -0.102214,0.3898 -0.144177,0.71107 -0.144177,0.71107 -0.02033,0.15635 0.09971,0.29568 0.257347,0.29869 0,0 0.432996,0.0101 0.935861,-0.0429 0.620177,-0.11562 1.12822,-0.1895 1.528593,-0.54877 0.341429,0.56756 0.834573,1.0449 0.834573,1.0449 0.103445,0.10398 0.271726,0.10398 0.375171,0 0,0 0.494057,-0.47522 0.835607,-1.04386 0.413399,0.38684 1.039035,0.49599 1.525487,0.54777 0.502864,0.0525 0.937411,0.0429 0.937411,0.0429 0.157846,-0.003 0.278221,-0.14214 0.257865,-0.29869 0,0 -0.04197,-0.32127 -0.144176,-0.71107 -0.0831,-0.31692 -0.246603,-0.65757 -0.443387,-0.9586 0.49615,-0.48948 0.943097,-1.15083 0.943097,-1.15083 0.0843,-0.13987 0.02303,-0.32196 -0.128675,-0.38241 0,0 -0.352478,-0.13978 -0.796851,-0.25631 -0.444373,-0.11654 -0.975711,-0.22767 -1.427818,-0.11679 -0.372015,0.0913 -0.63577,0.31992 -0.857314,0.56637 h -1.779735 c -0.477427,-0.5243 -1.007769,-0.62013 -1.542897,-0.59337 -0.395683,0.0206 -0.93336,0.1801 -1.53702,0.40006 z"
         id="path1058032"
         sodipodi:nodetypes="cccsccccccccccscccsccccc" />
      <path
         style="color:#000000;fill:#032927;fill-opacity:1;stroke-width:0.795367;stroke-linecap:round;stroke-linejoin:round;-inkscape-stroke:none"
         d="m 64.644531,249.84375 a 0.2645835,0.2645835 0 0 0 -0.333984,0.16602 0.2645835,0.2645835 0 0 0 0.167969,0.33593 c 0.61646,0.20549 0.821376,0.56285 0.919921,0.9961 0.09855,0.43325 0.04297,0.92521 0.04297,1.30468 a 0.2645835,0.2645835 0 0 0 0.265625,0.26563 0.2645835,0.2645835 0 0 0 0.263672,-0.26563 c 0,-0.31675 0.06916,-0.86881 -0.05664,-1.42187 -0.125798,-0.55306 -0.493544,-1.1222 -1.269531,-1.38086 z"
         id="path42528" />
      <path
         id="path52807"
         style="color:#000000;fill:#349951;fill-opacity:1;stroke-width:0.795367;stroke-linecap:round;stroke-linejoin:round;-inkscape-stroke:none"
         d="m 63.156351,254.19578 c -0.502864,0.053 -0.93586,0.0429 -0.93586,0.0429 -0.07829,-0.002 -0.151525,-0.0392 -0.199988,-0.10077 -0.03945,0.19803 -0.05736,0.33125 -0.05736,0.33125 -0.02034,0.15635 0.09971,0.29568 0.257347,0.29869 0,0 0.432996,0.0101 0.93586,-0.0429 0.628946,-0.0805 1.12822,-0.1895 1.528593,-0.54877 0.341429,0.56756 0.834572,1.0449 0.834572,1.0449 0.103445,0.10398 0.271726,0.10398 0.375171,0 0,0 0.49406,-0.47523 0.835608,-1.04387 0.31418,0.38684 1.039034,0.49599 1.525487,0.54777 0.502865,0.0525 0.937411,0.0429 0.937411,0.0429 0.157847,-0.003 0.278222,-0.14214 0.257866,-0.29869 0,0 -0.01768,-0.13226 -0.05685,-0.32918 -0.0491,0.061 -0.122708,0.0972 -0.20102,0.0987 0,0 -0.434546,0.01 -0.937411,-0.0429 -0.618796,-0.11552 -1.126245,-0.11099 -1.525487,-0.54777 -0.341548,0.56864 -0.835608,1.04386 -0.835608,1.04386 -0.103445,0.10398 -0.271726,0.10398 -0.375171,0 0,0 -0.493143,-0.47734 -0.834572,-1.0449 -0.420702,0.39155 -0.891718,0.48104 -1.528588,0.54878 z"
         sodipodi:nodetypes="ccccccccccccccccccccc" />
    </g>
    <g
       id="g12600"
       transform="translate(7.5315353,5.9315953)"
       style="stroke-width:0.795367">
      <path
         style="color:#000000;fill:#f03866;fill-opacity:1;stroke-width:0.795367;stroke-linecap:round;stroke-linejoin:round;-inkscape-stroke:none"
         d="m 66.138605,258.83602 c 0,0.65567 0.537533,1.19321 1.193208,1.19321 0.655672,0 1.191657,-0.53754 1.191659,-1.19321 -2e-6,-0.65568 -0.535987,-1.1932 -1.191659,-1.1932 z"
         id="path12518"
         sodipodi:nodetypes="csscc" />
      <path
         id="path12520"
         style="color:#000000;fill:#dc1c5c;fill-opacity:1;stroke-width:0.795367;stroke-linecap:round;stroke-linejoin:round;-inkscape-stroke:none"
         d="m 67.087381,257.67791 c 0.519218,0.12877 0.90692,0.60047 0.906923,1.15806 -3e-6,0.56477 -0.397788,1.04231 -0.927077,1.16376 0.08525,0.0195 0.173678,0.0294 0.264584,0.0294 0.655672,0 1.191657,-0.53754 1.191659,-1.19321 -2e-6,-0.65568 -0.535987,-1.1932 -1.191659,-1.1932 z"
         sodipodi:nodetypes="cscsscc" />
      <g
         id="g12526"
         transform="matrix(-1,0,0,1,131.41345,-1.8750029e-8)"
         style="stroke-width:0.795367">
        <path
           style="color:#000000;fill:#f03866;fill-opacity:1;stroke-width:0.795367;stroke-linecap:round;stroke-linejoin:round;-inkscape-stroke:none"
           d="m 63.39813,256.03133 -1.115234,0.98047 c -0.05725,0.0504 -0.09,0.12297 -0.08984,0.19922 2e-6,0.29626 0.06772,0.60288 0.283203,0.83594 0.215484,0.23306 0.555876,0.35742 0.992184,0.35742 l 1.429685,-1.11328 z"
           id="path12522"
           sodipodi:nodetypes="cccsccc" />
        <path
           id="path12524"
           style="color:#000000;fill:#dc1c5c;fill-opacity:1;stroke-width:0.795367;stroke-linecap:round;stroke-linejoin:round;-inkscape-stroke:none"
           d="m 63.423501,258.31446 c -0.168706,-0.0603 -0.309243,-0.15027 -0.418048,-0.26794 -0.215482,-0.23307 -0.283186,-0.53935 -0.283186,-0.83561 l -0.529166,3.4e-4 c 0,0.29626 0.0677,0.60254 0.283187,0.83561 0.215484,0.23305 0.555879,0.3576 0.992187,0.3576 z"
           sodipodi:nodetypes="ccccscc" />
      </g>
      <path
         id="path12528"
         style="color:#000000;fill:#dc1c5c;fill-opacity:1;stroke-width:0.795367;stroke-linecap:round;stroke-linejoin:round;-inkscape-stroke:none"
         d="m 67.825836,255.96476 a 0.26460996,0.26460996 0 0 0 -0.181385,0.0863 l -1.12913,1.24024 a 0.26460996,0.26460996 0 0 0 0.07028,0.40979 l 1.234548,0.67025 a 0.26460996,0.26460996 0 0 0 0.125058,0.0331 c 0.141621,0 0.272841,-0.0131 0.393258,-0.0388 l -1.223698,-0.66456 a 0.26460996,0.26460996 0 0 1 -0.07028,-0.40979 l 1.068671,-1.17409 -0.09767,-0.0858 a 0.26460996,0.26460996 0 0 0 -0.189654,-0.0667 z" />
      <path
         style="color:#000000;fill:#b01d47;stroke-width:0.795367;stroke-linecap:round;stroke-linejoin:round;-inkscape-stroke:none"
         d="m 69.294615,255.48054 c 0.182924,-0.36012 0.213139,-0.7802 0.002,-1.17773 -0.0407,-0.0781 -0.117579,-0.13079 -0.205078,-0.14063 l -1.460985,-0.15819 c -0.08865,-0.009 -0.17601,0.0267 -0.232422,0.0957 -0.300949,0.36645 -0.382776,0.82312 -0.248046,1.20899 z"
         id="path12530"
         sodipodi:nodetypes="ccccccc" />
      <path
         style="color:#000000;fill:#f03866;fill-opacity:1;stroke-width:0.795367;stroke-linecap:round;stroke-linejoin:round;-inkscape-stroke:none"
         d="m 68.954771,255.08993 c -0.655674,0 -1.191404,0.53768 -1.191406,1.19336 2e-6,0.65568 0.535732,1.19336 1.191406,1.19336 0.655674,0 1.193357,-0.53769 1.193359,-1.19336 -2e-6,-0.65568 -0.537685,-1.19336 -1.193359,-1.19336 z"
         id="path12532" />
      <path
         style="color:#000000;fill:#b01d47;fill-opacity:1;stroke-width:0.795367;stroke-linecap:round;stroke-linejoin:round;-inkscape-stroke:none"
         d="m 63.294615,253.40829 0.476562,1.86132 c 0.0079,0.0323 0.02182,0.0628 0.04102,0.0899 0.216687,0.29801 0.571747,0.49219 0.966797,0.49219 0.400913,0 0.704579,-0.23529 0.927734,-0.53711 0.223178,0.30153 0.52705,0.53711 0.927735,0.53711 0.395049,0 0.748156,-0.19418 0.964843,-0.49219 0.02319,-0.0313 0.0392,-0.0673 0.04687,-0.10547 l 0.38086,-1.95117 z"
         id="path12534"
         sodipodi:nodetypes="cccscscccc" />
      <path
         style="color:#000000;fill:#b01d47;stroke-width:0.795367;stroke-linecap:round;stroke-linejoin:round;-inkscape-stroke:none"
         d="m 64.284851,255.27344 c 0.121766,-0.38645 0.01578,-0.82144 -0.269531,-1.17187 -0.05638,-0.0704 -0.144707,-0.10719 -0.234375,-0.0977 l -2e-6,1.2e-4 -1.460938,0.16016 c -0.0875,0.01 -0.164372,0.0625 -0.205078,0.14062 -0.201113,0.3799 -0.233583,0.82264 0.01758,1.20313 z"
         id="path12536"
         sodipodi:nodetypes="cccccccc" />
      <path
         id="path12538"
         style="fill:#f03866;stroke-width:0.795367;stroke-linecap:round;stroke-linejoin:round"
         d="m 64.082031,257.64258 c -0.655672,0 -1.193359,0.53768 -1.193359,1.19336 0,0.65567 0.537687,1.19336 1.193359,1.19336 0.655674,0 1.193357,-0.53769 1.19336,-1.19336 z"
         sodipodi:nodetypes="csscc" />
      <path
         id="path12540"
         style="color:#000000;fill:#dc1c5c;fill-opacity:1;stroke-width:0.795367;stroke-linecap:round;stroke-linejoin:round;-inkscape-stroke:none"
         d="m 64.081879,257.64271 c -0.655672,0 -1.19321,0.53752 -1.19321,1.1932 0,0.65567 0.537538,1.19321 1.19321,1.19321 0.09073,0 0.179482,-0.01 0.264583,-0.0294 -0.52964,-0.12148 -0.928627,-0.59899 -0.928627,-1.16376 0,-0.55762 0.388856,-1.02979 0.908474,-1.15858 z"
         sodipodi:nodetypes="csscscc" />
      <path
         style="color:#000000;fill:#f03866;fill-opacity:1;stroke-width:0.795367;stroke-linecap:round;stroke-linejoin:round;-inkscape-stroke:none"
         d="m 64.831724,257.52743 c -0.145408,5.1e-4 -0.263156,0.11826 -0.263672,0.26367 v 1.58789 c 0.182703,0.50724 0.722151,0.87083 1.138677,0.88082 0.575772,-0.12588 0.974364,-0.40181 1.138677,-0.85552 l 0.142578,-1.58984 c 0.01312,-0.15369 -0.107471,-0.28598 -0.261719,-0.28711 z"
         id="path12542"
         sodipodi:nodetypes="cccccccc" />
      <path
         id="path12544"
         style="color:#000000;fill:#dc1c5c;fill-opacity:1;stroke-width:0.795367;stroke-linecap:round;stroke-linejoin:round;-inkscape-stroke:none"
         d="m 66.196995,257.52747 c 0.154225,9.8e-4 0.274935,0.13312 0.261998,0.2868 l -0.142626,1.59008 c -0.04995,0.56935 -0.534064,0.74154 -0.874364,0.82579 0.08526,0.0194 0.173651,0.0295 0.264583,0.0295 0.670951,-0.0221 1.101904,-0.42478 1.138948,-0.85525 l 0.142626,-1.59008 c 0.01294,-0.15368 -0.107773,-0.28582 -0.261998,-0.2868 z"
         sodipodi:nodetypes="ccccccccc" />
      <path
         id="path12546"
         style="color:#000000;fill:#dc1c5c;fill-opacity:1;stroke-width:0.795367;stroke-linecap:round;stroke-linejoin:round;-inkscape-stroke:none"
         d="m 64.831702,257.52747 c -0.145313,5.8e-4 -0.262967,0.11824 -0.263548,0.26355 v 1.58801 c 0.02823,0.61888 0.722092,0.88091 1.138428,0.88055 0.09082,0 0.179422,-0.0101 0.264584,-0.0295 -0.596359,-0.0889 -0.836607,-0.36859 -0.873846,-0.85109 v -1.58801 c 5.81e-4,-0.14531 0.118236,-0.26297 0.263549,-0.26355 z"
         sodipodi:nodetypes="ccccccccc" />
      <path
         style="color:#000000;fill:#f03866;fill-opacity:1;stroke-width:0.795367;stroke-linecap:round;stroke-linejoin:round;-inkscape-stroke:none"
         d="m 62.282896,257.0118 c -0.05725,0.0504 -0.09,0.12297 -0.08984,0.19922 2e-6,0.29626 0.06772,0.60288 0.283203,0.83594 0.215484,0.23306 0.555876,0.35742 0.992184,0.35742 0.464426,-0.16157 0.916482,-0.46276 1.359375,-0.70313 0.150797,-0.0816 0.185307,-0.28295 0.07031,-0.41015 l -1.128906,-1.24024 c -0.569497,-0.21088 -1.055355,0.58205 -1.486326,0.96094 z"
         id="path12548"
         sodipodi:nodetypes="ccsccccc" />
      <path
         id="path12550"
         style="color:#000000;fill:#dc1c5c;fill-opacity:1;stroke-width:0.795367;stroke-linecap:round;stroke-linejoin:round;-inkscape-stroke:none"
         d="m 64.298398,257.70115 -1.223182,0.66456 c 0.120282,0.0256 0.251833,0.0388 0.393258,0.0388 0.04378,-5.2e-4 0.08675,-0.0119 0.125058,-0.0331 l 1.234033,-0.67024 z"
         sodipodi:nodetypes="cccccc" />
      <path
         id="path12552"
         style="color:#000000;fill:#dc1c5c;fill-opacity:1;stroke-width:0.795367;stroke-linecap:round;stroke-linejoin:round;-inkscape-stroke:none"
         d="m 62.193101,257.21125 c 0,0.29626 0.0677,0.60254 0.283187,0.83561 0.215484,0.23305 0.555879,0.3576 0.992187,0.3576 0.04378,-5.2e-4 0.08675,-0.0119 0.125058,-0.0331 l 0.01085,-0.006 c -0.250799,-0.0534 -0.453292,-0.16133 -0.59893,-0.31884 -0.215482,-0.23307 -0.283186,-0.53935 -0.283186,-0.83561 z"
         sodipodi:nodetypes="cscscccc" />
      <path
         style="color:#000000;fill:#f03866;fill-opacity:1;stroke-width:0.795367;stroke-linecap:round;stroke-linejoin:round;-inkscape-stroke:none"
         d="m 65.002523,256.25923 c -0.655674,0 -1.191404,0.53768 -1.191406,1.19336 2e-6,0.65568 0.535732,1.19336 1.191406,1.19336 0.655674,0 1.193357,-0.53769 1.193359,-1.19336 -2e-6,-0.65568 -0.537685,-1.19336 -1.193359,-1.19336 z"
         id="path12554" />
      <path
         id="path12556"
         style="color:#000000;fill:#dc1c5c;fill-opacity:1;stroke-width:0.795367;stroke-linecap:round;stroke-linejoin:round;-inkscape-stroke:none"
         d="m 64.73817,256.28873 c 0.529637,0.12147 0.928624,0.59898 0.928624,1.16376 0,0.56476 -0.398987,1.04227 -0.928624,1.16375 0.08503,0.0195 0.173852,0.0294 0.264583,0.0294 0.655675,0 1.193207,-0.53753 1.193207,-1.1932 0,-0.65568 -0.537532,-1.19321 -1.193207,-1.19321 z"
         sodipodi:nodetypes="cscsscc" />
      <path
         id="path12558"
         style="color:#000000;fill:#dc1c5c;fill-opacity:1;stroke-width:0.795367;stroke-linecap:round;stroke-linejoin:round;-inkscape-stroke:none"
         d="m 65.002753,256.25933 c -0.655675,0 -1.191657,0.53753 -1.19166,1.19321 3e-6,0.65568 0.535985,1.1932 1.19166,1.1932 0.0909,0 0.179332,-0.01 0.264583,-0.0294 -0.529484,-0.12129 -0.927073,-0.5988 -0.927076,-1.16375 3e-6,-0.56495 0.397592,-1.04247 0.927076,-1.16376 z"
         sodipodi:nodetypes="csscscc" />
      <path
         style="color:#000000;fill:#f03866;fill-opacity:1;stroke-width:0.795367;stroke-linecap:round;stroke-linejoin:round;-inkscape-stroke:none"
         d="m 66.417381,256.23585 c -0.655674,0 -1.191404,0.53768 -1.191406,1.19336 2e-6,0.65568 0.535732,1.19336 1.191406,1.19336 0.655674,0 1.193357,-0.53769 1.193359,-1.19336 -2e-6,-0.65568 -0.537685,-1.19336 -1.193359,-1.19336 z"
         id="path12560" />
      <path
         id="path12562"
         style="color:#000000;fill:#dc1c5c;fill-opacity:1;stroke-width:0.795367;stroke-linecap:round;stroke-linejoin:round;-inkscape-stroke:none"
         d="m 66.153069,256.26557 c 0.52964,0.12147 0.928624,0.59898 0.928626,1.16375 -2e-6,0.56477 -0.398986,1.04228 -0.928626,1.16375 0.08504,0.0195 0.173336,0.0295 0.264067,0.0295 0.655675,0 1.193723,-0.53754 1.193726,-1.19321 -3e-6,-0.65568 -0.538051,-1.19321 -1.193726,-1.19321 z"
         sodipodi:nodetypes="cscsscc" />
      <path
         id="path12564"
         style="color:#000000;fill:#dc1c5c;fill-opacity:1;stroke-width:0.795367;stroke-linecap:round;stroke-linejoin:round;-inkscape-stroke:none"
         d="m 66.386648,256.23607 c -0.641641,0.0164 -1.160653,0.54778 -1.160653,1.19321 3e-6,0.65568 0.535467,1.19321 1.191141,1.19321 0.09091,0 0.179851,-0.01 0.265099,-0.0295 -0.529481,-0.12128 -0.927073,-0.5988 -0.927073,-1.16375 0,-0.56495 0.397592,-1.04246 0.927073,-1.16375 -0.08525,-0.0196 -0.174193,-0.0295 -0.265099,-0.0295 -0.01024,0 -0.0203,-2.6e-4 -0.03049,0 z" />
      <path
         style="color:#000000;fill:#f03866;fill-opacity:1;stroke-width:0.795367;stroke-linecap:round;stroke-linejoin:round;-inkscape-stroke:none"
         d="m 62.456724,255.08993 c -0.655671,0 -1.1914,0.53768 -1.191406,1.19336 -10e-7,0.65567 0.53573,1.19336 1.191406,1.19336 0.655677,0 1.193361,-0.53769 1.19336,-1.19336 -6e-6,-0.65568 -0.537688,-1.19336 -1.19336,-1.19336 z"
         id="path12566" />
      <path
         id="path12568"
         style="color:#000000;fill:#dc1c5c;fill-opacity:1;stroke-width:0.795367;stroke-linecap:round;stroke-linejoin:round;-inkscape-stroke:none"
         d="m 62.192587,255.11989 c 0.579241,0.0305 0.928105,0.59847 0.928111,1.16324 0,0.56476 -0.398468,1.04228 -0.928111,1.16375 0.08504,0.0195 0.173336,0.03 0.264067,0.03 0.655677,0 1.19321,-0.53805 1.19321,-1.19372 -0.212058,-0.84709 -0.558657,-1.29316 -1.457277,-1.16327 z"
         sodipodi:nodetypes="cscscc" />
      <path
         style="color:#000000;fill:#f03866;fill-opacity:1;stroke-width:0.795367;stroke-linecap:round;stroke-linejoin:round;-inkscape-stroke:none"
         d="m 64.078773,254.84438 c -0.655674,0 -1.191404,0.53768 -1.191406,1.19336 2e-6,0.65568 0.535732,1.19336 1.191406,1.19336 0.655674,0 1.193357,-0.53769 1.193359,-1.19336 -2e-6,-0.65568 -0.537685,-1.19336 -1.193359,-1.19336 z"
         id="path12570" />
      <path
         id="path12572"
         style="color:#000000;fill:#dc1c5c;fill-opacity:1;stroke-width:0.795367;stroke-linecap:round;stroke-linejoin:round;-inkscape-stroke:none"
         d="m 63.814194,254.87393 c 0.529672,0.12145 0.928624,0.59896 0.928627,1.16376 -3e-6,0.56478 -0.398955,1.0423 -0.928627,1.16375 0.08519,0.0195 0.173678,0.03 0.264584,0.03 0.655674,0 1.193207,-0.53805 1.19321,-1.19372 0,-0.89392 -0.732628,-1.31259 -1.457794,-1.16379 z"
         sodipodi:nodetypes="cscscc" />
      <path
         style="color:#000000;fill:#f03866;fill-opacity:1;stroke-width:0.795367;stroke-linecap:round;stroke-linejoin:round;-inkscape-stroke:none"
         d="m 65.704105,254.85607 c -0.655674,0 -1.191404,0.53768 -1.191406,1.19336 2e-6,0.65568 0.535732,1.19336 1.191406,1.19336 0.655674,0 1.193357,-0.53769 1.193359,-1.19336 -2e-6,-0.65568 -0.537685,-1.19336 -1.193359,-1.19336 z"
         id="path12574" />
      <path
         id="path12576"
         style="color:#000000;fill:#dc1c5c;fill-opacity:1;stroke-width:0.795367;stroke-linecap:round;stroke-linejoin:round;-inkscape-stroke:none"
         d="m 65.439935,254.88581 c 0.52964,0.12147 0.928108,0.59898 0.928108,1.16375 0,0.56477 -0.398468,1.04228 -0.928108,1.16375 0.08503,0.0195 0.173336,0.0295 0.264067,0.0295 0.655675,0 1.193207,-0.53754 1.193207,-1.19321 0,-0.65568 -0.537532,-1.19321 -1.193207,-1.19321 z"
         sodipodi:nodetypes="cscsscc" />
      <path
         id="path12578"
         style="color:#000000;fill:#dc1c5c;fill-opacity:1;stroke-width:0.795367;stroke-linecap:round;stroke-linejoin:round;-inkscape-stroke:none"
         d="m 67.763307,256.2831 c 3e-6,0.65568 0.535985,1.19372 1.19166,1.19372 0.0909,0 0.179332,-0.0104 0.264583,-0.03 -0.529484,-0.12129 -0.927073,-0.5988 -0.927076,-1.16375 3e-6,-0.56495 0.3976,-1.04194 0.927076,-1.16324 -0.795973,-0.15855 -1.431812,0.36571 -1.456243,1.16327 z"
         sodipodi:nodetypes="cscscc" />
      <path
         style="color:#000000;fill:#f03866;fill-opacity:1;stroke-width:0.795367;stroke-linecap:round;stroke-linejoin:round;-inkscape-stroke:none"
         d="m 67.317745,254.86776 c -0.655674,0 -1.191404,0.53768 -1.191406,1.19336 2e-6,0.65568 0.535732,1.19336 1.191406,1.19336 0.655674,0 1.193357,-0.53769 1.193359,-1.19336 -2e-6,-0.65568 -0.537685,-1.19336 -1.193359,-1.19336 z"
         id="path12580" />
      <path
         id="path12582"
         style="color:#000000;fill:#dc1c5c;fill-opacity:1;stroke-width:0.795367;stroke-linecap:round;stroke-linejoin:round;-inkscape-stroke:none"
         d="m 67.053274,254.89768 c 0.529632,0.12148 0.928624,0.59847 0.928624,1.16324 0,0.56476 -0.398992,1.04227 -0.928624,1.16375 0.08517,0.0195 0.173696,0.03 0.264583,0.03 0.655675,0 1.193208,-0.53806 1.193208,-1.19373 0,-0.90568 -0.671048,-1.26812 -1.457791,-1.16326 z"
         sodipodi:nodetypes="cscscc" />
      <path
         id="path12584"
         style="color:#000000;fill:#dc1c5c;fill-opacity:1;stroke-width:0.795367;stroke-linecap:round;stroke-linejoin:round;-inkscape-stroke:none"
         d="m 61.265513,256.2831 c -2e-6,0.65567 0.535467,1.19372 1.191141,1.19372 0.09091,0 0.179851,-0.0104 0.2651,-0.03 -0.529485,-0.12129 -0.927077,-0.59881 -0.927074,-1.16375 5e-6,-0.56495 0.223967,-1.12876 0.927074,-1.16324 -1.016833,-0.17215 -1.43992,0.63004 -1.456241,1.16327 z"
         sodipodi:nodetypes="cscscc" />
      <path
         id="path12586"
         style="color:#000000;fill:#dc1c5c;fill-opacity:1;stroke-width:0.795367;stroke-linecap:round;stroke-linejoin:round;-inkscape-stroke:none"
         d="m 62.887118,256.03764 c 3e-6,0.65568 0.535985,1.19372 1.19166,1.19372 0.09088,0 0.179353,-0.0104 0.264583,-0.03 -0.529238,-0.12147 -0.927074,-0.59898 -0.927076,-1.16375 2e-6,-0.56478 0.397838,-1.04229 0.927076,-1.16376 -0.792119,-0.15606 -1.456243,0.41114 -1.456243,1.16379 z"
         sodipodi:nodetypes="cscscc" />
      <path
         id="path12588"
         style="color:#000000;fill:#dc1c5c;fill-opacity:1;stroke-width:0.795367;stroke-linecap:round;stroke-linejoin:round;-inkscape-stroke:none"
         d="m 65.673512,254.85631 c -0.641639,0.0164 -1.160651,0.54778 -1.160653,1.19321 2e-6,0.65568 0.535469,1.19321 1.191143,1.19321 0.09091,0 0.179851,-0.01 0.265099,-0.0295 -0.529481,-0.12129 -0.927073,-0.5988 -0.927076,-1.16375 3e-6,-0.56495 0.397595,-1.04246 0.927076,-1.16375 z"
         sodipodi:nodetypes="csscscc" />
      <path
         id="path12590"
         style="color:#000000;fill:#dc1c5c;fill-opacity:1;stroke-width:0.795367;stroke-linecap:round;stroke-linejoin:round;-inkscape-stroke:none"
         d="m 66.126198,256.06089 c 2e-6,0.65568 0.535985,1.19373 1.191659,1.19373 0.09091,0 0.17933,-0.0104 0.264584,-0.03 -0.529265,-0.12145 -0.927074,-0.59896 -0.927076,-1.16375 2e-6,-0.56479 0.397811,-1.04178 0.927076,-1.16324 -0.780071,-0.15543 -1.456243,0.39877 -1.456243,1.16326 z"
         sodipodi:nodetypes="cscscc" />
      <path
         id="path12592"
         style="color:#000000;fill:#dc1c5c;fill-opacity:1;stroke-width:0.795367;stroke-linecap:round;stroke-linejoin:round;-inkscape-stroke:none"
         d="m 68.690383,255.11989 c 0.529633,0.12148 0.928624,0.59847 0.928624,1.16324 0,0.56476 -0.398986,1.04228 -0.928624,1.16375 0.08503,0.0195 0.173853,0.03 0.264584,0.03 0.655674,0 1.193207,-0.53805 1.193207,-1.19372 0,-0.87702 -0.719892,-1.28888 -1.457791,-1.16327 z"
         sodipodi:nodetypes="cscscc" />
      <path
         style="color:#000000;fill:#50b86b;stroke-width:0.795367;stroke-linecap:round;stroke-linejoin:round;-inkscape-stroke:none"
         d="m 61.736284,251.26583 c -0.152501,0.0596 -0.214851,0.24194 -0.130741,0.38241 0,0 0.447503,0.6615 0.943096,1.15083 -0.196733,0.301 -0.358227,0.64173 -0.441317,0.9586 -0.102214,0.3898 -0.144177,0.71107 -0.144177,0.71107 -0.02033,0.15635 0.09971,0.29568 0.257347,0.29869 0,0 0.432996,0.0101 0.935861,-0.0429 0.620177,-0.11562 1.12822,-0.1895 1.528593,-0.54877 0.341429,0.56756 0.834573,1.0449 0.834573,1.0449 0.103445,0.10398 0.271726,0.10398 0.375171,0 0,0 0.494057,-0.47522 0.835607,-1.04386 0.413399,0.38684 1.039035,0.49599 1.525487,0.54777 0.502864,0.0525 0.937411,0.0429 0.937411,0.0429 0.157846,-0.003 0.278221,-0.14214 0.257865,-0.29869 0,0 -0.04197,-0.32127 -0.144176,-0.71107 -0.0831,-0.31692 -0.246603,-0.65757 -0.443387,-0.9586 0.49615,-0.48948 0.943097,-1.15083 0.943097,-1.15083 0.0843,-0.13987 0.02303,-0.32196 -0.128675,-0.38241 0,0 -0.352478,-0.13978 -0.796851,-0.25631 -0.444373,-0.11654 -0.975711,-0.22767 -1.427818,-0.11679 -0.372015,0.0913 -0.63577,0.31992 -0.857314,0.56637 h -1.779735 c -0.477427,-0.5243 -1.007769,-0.62013 -1.542897,-0.59337 -0.395683,0.0206 -0.93336,0.1801 -1.53702,0.40006 z"
         id="path12594"
         sodipodi:nodetypes="cccsccccccccccscccsccccc" />
      <path
         style="color:#000000;fill:#032927;fill-opacity:1;stroke-width:0.795367;stroke-linecap:round;stroke-linejoin:round;-inkscape-stroke:none"
         d="m 64.644531,249.84375 a 0.2645835,0.2645835 0 0 0 -0.333984,0.16602 0.2645835,0.2645835 0 0 0 0.167969,0.33593 c 0.61646,0.20549 0.821376,0.56285 0.919921,0.9961 0.09855,0.43325 0.04297,0.92521 0.04297,1.30468 a 0.2645835,0.2645835 0 0 0 0.265625,0.26563 0.2645835,0.2645835 0 0 0 0.263672,-0.26563 c 0,-0.31675 0.06916,-0.86881 -0.05664,-1.42187 -0.125798,-0.55306 -0.493544,-1.1222 -1.269531,-1.38086 z"
         id="path12596" />
      <path
         id="path12598"
         style="color:#000000;fill:#349951;fill-opacity:1;stroke-width:0.795367;stroke-linecap:round;stroke-linejoin:round;-inkscape-stroke:none"
         d="m 63.156351,254.19578 c -0.502864,0.053 -0.93586,0.0429 -0.93586,0.0429 -0.07829,-0.002 -0.151525,-0.0392 -0.199988,-0.10077 -0.03945,0.19803 -0.05736,0.33125 -0.05736,0.33125 -0.02034,0.15635 0.09971,0.29568 0.257347,0.29869 0,0 0.432996,0.0101 0.93586,-0.0429 0.628946,-0.0805 1.12822,-0.1895 1.528593,-0.54877 0.341429,0.56756 0.834572,1.0449 0.834572,1.0449 0.103445,0.10398 0.271726,0.10398 0.375171,0 0,0 0.49406,-0.47523 0.835608,-1.04387 0.31418,0.38684 1.039034,0.49599 1.525487,0.54777 0.502865,0.0525 0.937411,0.0429 0.937411,0.0429 0.157847,-0.003 0.278222,-0.14214 0.257866,-0.29869 0,0 -0.01768,-0.13226 -0.05685,-0.32918 -0.0491,0.061 -0.122708,0.0972 -0.20102,0.0987 0,0 -0.434546,0.01 -0.937411,-0.0429 -0.618796,-0.11552 -1.126245,-0.11099 -1.525487,-0.54777 -0.341548,0.56864 -0.835608,1.04386 -0.835608,1.04386 -0.103445,0.10398 -0.271726,0.10398 -0.375171,0 0,0 -0.493143,-0.47734 -0.834572,-1.0449 -0.420702,0.39155 -0.891718,0.48104 -1.528588,0.54878 z"
         sodipodi:nodetypes="ccccccccccccccccccccc" />
    </g>
  </g>
</svg>
