<?xml version="1.0" encoding="UTF-8" standalone="no"?>
<svg
   xmlns:dc="http://purl.org/dc/elements/1.1/"
   xmlns:cc="http://creativecommons.org/ns#"
   xmlns:rdf="http://www.w3.org/1999/02/22-rdf-syntax-ns#"
   xmlns:svg="http://www.w3.org/2000/svg"
   xmlns="http://www.w3.org/2000/svg"
   xmlns:sodipodi="http://sodipodi.sourceforge.net/DTD/sodipodi-0.dtd"
   xmlns:inkscape="http://www.inkscape.org/namespaces/inkscape"
   inkscape:export-ydpi="576"
   inkscape:export-xdpi="576"
   inkscape:export-filename="D:\Project Real\Februari 1\export\flat\png\10 - Kiwi.png"
   width="64pt"
   height="64pt"
   viewBox="0 0 22.577778 22.577778"
   version="1.1"
   id="svg831"
   inkscape:version="1.0 (4035a4fb49, 2020-05-01)"
   sodipodi:docname="11 - Watermelon.svg">
  <defs
     id="defs825">
    <pattern
       id="EMFhbasepattern"
       patternUnits="userSpaceOnUse"
       width="6"
       height="6"
       x="0"
       y="0" />
    <pattern
       id="EMFhbasepattern-9"
       patternUnits="userSpaceOnUse"
       width="6"
       height="6"
       x="0"
       y="0" />
    <pattern
       id="EMFhbasepattern-0"
       patternUnits="userSpaceOnUse"
       width="6"
       height="6"
       x="0"
       y="0" />
    <pattern
       id="EMFhbasepattern-7"
       patternUnits="userSpaceOnUse"
       width="6"
       height="6"
       x="0"
       y="0" />
    <pattern
       id="EMFhbasepattern-2"
       patternUnits="userSpaceOnUse"
       width="6"
       height="6"
       x="0"
       y="0" />
    <pattern
       id="EMFhbasepattern-98"
       patternUnits="userSpaceOnUse"
       width="6"
       height="6"
       x="0"
       y="0" />
    <pattern
       id="EMFhbasepattern-6"
       patternUnits="userSpaceOnUse"
       width="6"
       height="6"
       x="0"
       y="0" />
    <pattern
       id="EMFhbasepattern-01"
       patternUnits="userSpaceOnUse"
       width="6"
       height="6"
       x="0"
       y="0" />
    <pattern
       id="EMFhbasepattern-07"
       patternUnits="userSpaceOnUse"
       width="6"
       height="6"
       x="0"
       y="0" />
    <pattern
       id="EMFhbasepattern-8"
       patternUnits="userSpaceOnUse"
       width="6"
       height="6"
       x="0"
       y="0" />
    <pattern
       id="EMFhbasepattern-4"
       patternUnits="userSpaceOnUse"
       width="6"
       height="6"
       x="0"
       y="0" />
    <pattern
       id="EMFhbasepattern-40"
       patternUnits="userSpaceOnUse"
       width="6"
       height="6"
       x="0"
       y="0" />
    <pattern
       id="EMFhbasepattern-08"
       patternUnits="userSpaceOnUse"
       width="6"
       height="6"
       x="0"
       y="0" />
    <pattern
       id="EMFhbasepattern-04"
       patternUnits="userSpaceOnUse"
       width="6"
       height="6"
       x="0"
       y="0" />
    <pattern
       id="EMFhbasepattern-014"
       patternUnits="userSpaceOnUse"
       width="6"
       height="6"
       x="0"
       y="0" />
    <pattern
       id="EMFhbasepattern-27"
       patternUnits="userSpaceOnUse"
       width="6"
       height="6"
       x="0"
       y="0" />
    <pattern
       id="EMFhbasepattern-09"
       patternUnits="userSpaceOnUse"
       width="6"
       height="6"
       x="0"
       y="0" />
    <pattern
       id="EMFhbasepattern-5"
       patternUnits="userSpaceOnUse"
       width="6"
       height="6"
       x="0"
       y="0" />
    <pattern
       id="EMFhbasepattern-018"
       patternUnits="userSpaceOnUse"
       width="6"
       height="6"
       x="0"
       y="0" />
  </defs>
  <sodipodi:namedview
     id="base"
     pagecolor="#ffffff"
     bordercolor="#666666"
     borderopacity="1.0"
     inkscape:pageopacity="0.0"
     inkscape:pageshadow="2"
     inkscape:zoom="6.2578125"
     inkscape:cx="42.666667"
     inkscape:cy="42.666667"
     inkscape:document-units="pt"
     inkscape:current-layer="layer1"
     showgrid="false"
     units="pt"
     inkscape:window-width="1366"
     inkscape:window-height="705"
     inkscape:window-x="-8"
     inkscape:window-y="-8"
     inkscape:window-maximized="1"
     inkscape:pagecheckerboard="true"
     inkscape:showpageshadow="false"
     inkscape:object-paths="true"
     inkscape:snap-intersection-paths="true"
     inkscape:snap-smooth-nodes="true"
     inkscape:snap-midpoints="true"
     showguides="true"
     inkscape:snap-bbox="true"
     inkscape:bbox-nodes="true"
     inkscape:snap-nodes="false"
     inkscape:snap-global="true"
     inkscape:document-rotation="0">
    <inkscape:grid
       type="xygrid"
       id="grid1378" />
    <sodipodi:guide
       position="0.97013831,21.607643"
       orientation="78.000048,0"
       id="guide1380"
       inkscape:locked="false" />
    <sodipodi:guide
       position="0.97013831,0.97013129"
       orientation="0,78.000005"
       id="guide1382"
       inkscape:locked="false" />
    <sodipodi:guide
       position="21.607639,0.97013129"
       orientation="-78.000048,0"
       id="guide1384"
       inkscape:locked="false" />
    <sodipodi:guide
       position="21.607639,21.607643"
       orientation="0,-78.000005"
       id="guide1386"
       inkscape:locked="false" />
  </sodipodi:namedview>
  <metadata
     id="metadata828">
    <rdf:RDF>
      <cc:Work
         rdf:about="">
        <dc:format>image/svg+xml</dc:format>
        <dc:type
           rdf:resource="http://purl.org/dc/dcmitype/StillImage" />
        <dc:title></dc:title>
      </cc:Work>
    </rdf:RDF>
  </metadata>
  <g
     inkscape:label="Icon"
     inkscape:groupmode="layer"
     id="layer1"
     transform="translate(0,-274.42223)">
    <g
       transform="matrix(1.2419668,0,0,1.2419668,38.656725,-72.637121)"
       style="display:inline;stroke-width:0.805174"
       id="g537">
      <path
         id="path380"
         d="m -25.660156,280.22461 c -0.573597,-0.006 -1.254496,0.17666 -1.78711,0.4043 -0.266583,0.11393 -0.491813,0.2355 -0.658203,0.3789 -0.08319,0.0717 -0.158508,0.14819 -0.203125,0.26758 -0.04462,0.11939 -0.01495,0.30569 0.08008,0.4082 0.902434,0.97358 1.790426,1.30207 2.59961,1.31446 0.809183,0.0124 1.524744,-0.26411 2.15039,-0.41797 a 0.26460996,0.26460996 0 0 0 0.142578,-0.0899 c 0.08859,-0.11002 0.12755,-0.18883 0.169922,-0.23242 0.04237,-0.0436 0.08726,-0.0799 0.242188,-0.11133 a 0.26460996,0.26460996 0 0 0 0.121094,-0.45898 c -1.089956,-0.94925 -1.897967,-1.46191 -2.855469,-1.46289 z"
         style="color:#000000;font-style:normal;font-variant:normal;font-weight:normal;font-stretch:normal;font-size:medium;line-height:normal;font-family:sans-serif;font-variant-ligatures:normal;font-variant-position:normal;font-variant-caps:normal;font-variant-numeric:normal;font-variant-alternates:normal;font-variant-east-asian:normal;font-feature-settings:normal;font-variation-settings:normal;text-indent:0;text-align:start;text-decoration:none;text-decoration-line:none;text-decoration-style:solid;text-decoration-color:#000000;letter-spacing:normal;word-spacing:normal;text-transform:none;writing-mode:lr-tb;direction:ltr;text-orientation:mixed;dominant-baseline:auto;baseline-shift:baseline;text-anchor:start;white-space:normal;shape-padding:0;shape-margin:0;inline-size:0;clip-rule:nonzero;display:inline;overflow:visible;visibility:visible;isolation:auto;mix-blend-mode:normal;color-interpolation:sRGB;color-interpolation-filters:linearRGB;solid-color:#000000;solid-opacity:1;vector-effect:none;fill:#50b86b;fill-opacity:1;fill-rule:nonzero;stroke:none;stroke-width:0.426072;stroke-linecap:round;stroke-linejoin:round;stroke-miterlimit:4;stroke-dasharray:none;stroke-dashoffset:0;stroke-opacity:1;color-rendering:auto;image-rendering:auto;shape-rendering:auto;text-rendering:auto;enable-background:accumulate;stop-color:#000000" />
      <path
         d="m -25.659938,280.22479 c -0.573597,-0.006 -1.254874,0.17647 -1.787488,0.40411 -0.266583,0.11393 -0.491451,0.23539 -0.657841,0.37879 -0.08319,0.0717 -0.158471,0.14829 -0.203088,0.26768 -0.0055,0.0147 -0.0066,0.0327 -0.0098,0.0491 0.104542,-0.0579 0.217288,-0.11327 0.341582,-0.16639 0.532614,-0.22764 1.21389,-0.41011 1.787487,-0.40411 h 0.0016 c 0.957502,9.8e-4 1.765684,0.51319 2.855639,1.46244 a 0.26460996,0.26460996 0 0 1 0.0863,0.15038 c 0.02382,-0.0355 0.05973,-0.0886 0.07958,-0.10904 0.04237,-0.0436 0.08743,-0.0797 0.242362,-0.1111 a 0.26460996,0.26460996 0 0 0 0.120923,-0.45941 c -1.089956,-0.94925 -1.898137,-1.46146 -2.855639,-1.46244 z"
         style="color:#000000;font-style:normal;font-variant:normal;font-weight:normal;font-stretch:normal;font-size:medium;line-height:normal;font-family:sans-serif;font-variant-ligatures:normal;font-variant-position:normal;font-variant-caps:normal;font-variant-numeric:normal;font-variant-alternates:normal;font-variant-east-asian:normal;font-feature-settings:normal;font-variation-settings:normal;text-indent:0;text-align:start;text-decoration:none;text-decoration-line:none;text-decoration-style:solid;text-decoration-color:#000000;letter-spacing:normal;word-spacing:normal;text-transform:none;writing-mode:lr-tb;direction:ltr;text-orientation:mixed;dominant-baseline:auto;baseline-shift:baseline;text-anchor:start;white-space:normal;shape-padding:0;shape-margin:0;inline-size:0;clip-rule:nonzero;display:inline;overflow:visible;visibility:visible;isolation:auto;mix-blend-mode:normal;color-interpolation:sRGB;color-interpolation-filters:linearRGB;solid-color:#000000;solid-opacity:1;vector-effect:none;fill:#349951;fill-opacity:1;fill-rule:nonzero;stroke:none;stroke-width:0.426072;stroke-linecap:round;stroke-linejoin:round;stroke-miterlimit:4;stroke-dasharray:none;stroke-dashoffset:0;stroke-opacity:1;color-rendering:auto;image-rendering:auto;shape-rendering:auto;text-rendering:auto;enable-background:accumulate;stop-color:#000000"
         id="path515" />
      <path
         sodipodi:nodetypes="ccscccscscsssccccc"
         id="path374"
         d="m -21.152344,280.45312 c -0.843115,0.0715 -1.312754,0.65987 -1.513672,1.23438 -0.291155,-0.0463 -0.619563,-0.0446 -0.875,0.19922 -0.293065,0.27977 -0.464007,0.74869 -0.498046,1.46484 -0.0061,0.14549 0.106496,0.26857 0.251953,0.27539 0.144765,0.006 0.267533,-0.10532 0.27539,-0.25 0.03046,-0.64093 0.188765,-0.96692 0.335938,-1.10742 0.128154,-0.12234 0.273079,-0.11653 0.435547,-0.0859 -0.0044,0.20361 -0.03861,0.41657 0.07422,0.58008 0.0849,0.12304 0.225581,0.22426 0.386719,0.25195 0.161138,0.0277 0.325885,-0.0106 0.488281,-0.0918 0.07712,-0.0386 0.153019,-0.11086 0.189454,-0.19727 0.03643,-0.0864 0.03594,-0.17439 0.02148,-0.24609 -0.02892,-0.14341 -0.103405,-0.24768 -0.19336,-0.34961 -0.09837,-0.11148 -0.273523,-0.1714 -0.417968,-0.25781 0.133075,-0.40753 0.452453,-0.83904 1.083984,-0.89258 0.145613,-0.0119 0.254034,-0.13954 0.242188,-0.28516 -0.01186,-0.14644 -0.140763,-0.25518 -0.28711,-0.24219 z"
         style="color:#000000;font-style:normal;font-variant:normal;font-weight:normal;font-stretch:normal;font-size:medium;line-height:normal;font-family:sans-serif;font-variant-ligatures:normal;font-variant-position:normal;font-variant-caps:normal;font-variant-numeric:normal;font-variant-alternates:normal;font-variant-east-asian:normal;font-feature-settings:normal;font-variation-settings:normal;text-indent:0;text-align:start;text-decoration:none;text-decoration-line:none;text-decoration-style:solid;text-decoration-color:#000000;letter-spacing:normal;word-spacing:normal;text-transform:none;writing-mode:lr-tb;direction:ltr;text-orientation:mixed;dominant-baseline:auto;baseline-shift:baseline;text-anchor:start;white-space:normal;shape-padding:0;shape-margin:0;inline-size:0;clip-rule:nonzero;display:inline;overflow:visible;visibility:visible;opacity:1;isolation:auto;mix-blend-mode:normal;color-interpolation:sRGB;color-interpolation-filters:linearRGB;solid-color:#000000;solid-opacity:1;vector-effect:none;fill:#26783f;fill-opacity:1;fill-rule:nonzero;stroke:none;stroke-width:0.426072;stroke-linecap:round;stroke-linejoin:round;stroke-miterlimit:4;stroke-dasharray:none;stroke-dashoffset:0;stroke-opacity:1;color-rendering:auto;image-rendering:auto;shape-rendering:auto;text-rendering:auto;enable-background:accumulate;stop-color:#000000;stop-opacity:1" />
      <path
         id="path395"
         d="m -23.775391,283.09961 c -2.780427,0 -5.027343,2.24691 -5.027343,5.02734 v 1.32227 c 0,2.80181 2.563437,5.08398 5.347656,5.08398 a 0.26460996,0.26460996 0 0 0 0.08789,-0.0156 c 1.265165,-0.45109 2.510329,-0.96949 3.404297,-1.93555 0.892341,-0.9643 1.396166,-2.37006 1.212891,-4.46875 -0.0078,-2.74293 -2.247593,-5.01367 -5.025391,-5.01367 z"
         style="color:#000000;font-style:normal;font-variant:normal;font-weight:normal;font-stretch:normal;font-size:medium;line-height:normal;font-family:sans-serif;font-variant-ligatures:normal;font-variant-position:normal;font-variant-caps:normal;font-variant-numeric:normal;font-variant-alternates:normal;font-variant-east-asian:normal;font-feature-settings:normal;font-variation-settings:normal;text-indent:0;text-align:start;text-decoration:none;text-decoration-line:none;text-decoration-style:solid;text-decoration-color:#000000;letter-spacing:normal;word-spacing:normal;text-transform:none;writing-mode:lr-tb;direction:ltr;text-orientation:mixed;dominant-baseline:auto;baseline-shift:baseline;text-anchor:start;white-space:normal;shape-padding:0;shape-margin:0;inline-size:0;clip-rule:nonzero;display:inline;overflow:visible;visibility:visible;isolation:auto;mix-blend-mode:normal;color-interpolation:sRGB;color-interpolation-filters:linearRGB;solid-color:#000000;solid-opacity:1;vector-effect:none;fill:#50b86b;fill-opacity:1;fill-rule:nonzero;stroke:none;stroke-width:0.426072;stroke-linecap:round;stroke-linejoin:round;stroke-miterlimit:4;stroke-dasharray:none;stroke-dashoffset:0;stroke-opacity:1;color-rendering:auto;image-rendering:auto;shape-rendering:auto;text-rendering:auto;enable-background:accumulate;stop-color:#000000" />
      <path
         id="path370"
         d="m -24.056641,284.35156 a 0.2645835,0.2645835 0 0 0 -0.201171,0.1211 c -0.374761,0.59364 -0.285662,1.2195 -0.07031,1.77343 0.215349,0.55393 0.543882,1.08477 0.722656,1.6211 0.132762,0.39828 -0.0089,0.76716 -0.24414,1.19531 -0.235197,0.42815 -0.565474,0.87331 -0.654297,1.40625 -0.07551,0.45305 0.03197,0.85473 0.171875,1.20898 0.139903,0.35426 0.310421,0.67301 0.404297,0.99219 a 0.2645835,0.2645835 0 0 0 0.328125,0.17969 0.2645835,0.2645835 0 0 0 0.177734,-0.33008 c -0.114221,-0.38836 -0.293358,-0.72158 -0.417969,-1.03711 -0.12461,-0.31553 -0.196711,-0.60098 -0.142578,-0.92578 0.05918,-0.35506 0.340654,-0.77399 0.595703,-1.23828 0.255049,-0.46429 0.483887,-1.01709 0.283203,-1.61914 -0.205318,-0.61596 -0.541285,-1.15791 -0.730468,-1.64453 -0.189183,-0.48663 -0.246342,-0.86839 0.02539,-1.29883 a 0.2645835,0.2645835 0 0 0 -0.08398,-0.36524 0.2645835,0.2645835 0 0 0 -0.164063,-0.0391 z"
         style="color:#000000;font-style:normal;font-variant:normal;font-weight:normal;font-stretch:normal;font-size:medium;line-height:normal;font-family:sans-serif;font-variant-ligatures:normal;font-variant-position:normal;font-variant-caps:normal;font-variant-numeric:normal;font-variant-alternates:normal;font-variant-east-asian:normal;font-feature-settings:normal;font-variation-settings:normal;text-indent:0;text-align:start;text-decoration:none;text-decoration-line:none;text-decoration-style:solid;text-decoration-color:#000000;letter-spacing:normal;word-spacing:normal;text-transform:none;writing-mode:lr-tb;direction:ltr;text-orientation:mixed;dominant-baseline:auto;baseline-shift:baseline;text-anchor:start;white-space:normal;shape-padding:0;shape-margin:0;inline-size:0;clip-rule:nonzero;display:inline;overflow:visible;visibility:visible;opacity:1;isolation:auto;mix-blend-mode:normal;color-interpolation:sRGB;color-interpolation-filters:linearRGB;solid-color:#000000;solid-opacity:1;vector-effect:none;fill:#26783f;fill-opacity:1;fill-rule:nonzero;stroke:none;stroke-width:0.426072;stroke-linecap:round;stroke-linejoin:round;stroke-miterlimit:4;stroke-dasharray:none;stroke-dashoffset:0;stroke-opacity:1;color-rendering:auto;image-rendering:auto;shape-rendering:auto;text-rendering:auto;enable-background:accumulate;stop-color:#000000;stop-opacity:1" />
      <path
         id="path362"
         d="m -25.904297,285.05859 a 0.2645835,0.2645835 0 0 0 -0.177734,0.0781 c -0.485812,0.49014 -0.71798,1.00332 -0.763672,1.51953 -0.04569,0.51621 0.0817,1.0202 0.253906,1.54102 0.09771,0.29551 -0.0044,0.57221 -0.1875,0.9082 -0.18308,0.33599 -0.448655,0.69032 -0.521484,1.13086 -0.04559,0.27578 0.0509,0.53064 0.185547,0.73633 0.134643,0.20569 0.30984,0.38099 0.478515,0.54882 0.337351,0.33567 0.607422,0.63601 0.607422,0.8711 a 0.2645835,0.2645835 0 0 0 0.263672,0.26562 0.2645835,0.2645835 0 0 0 0.265625,-0.26562 c 0,-0.55012 -0.431991,-0.91607 -0.763672,-1.2461 -0.16584,-0.16501 -0.316075,-0.32214 -0.408203,-0.46289 -0.09213,-0.14074 -0.124185,-0.24616 -0.105469,-0.35937 0.04364,-0.26398 0.260168,-0.59476 0.462891,-0.9668 0.202723,-0.37204 0.389309,-0.82805 0.224609,-1.32617 -0.164246,-0.49675 -0.263641,-0.9313 -0.228515,-1.32813 0.03513,-0.39682 0.19248,-0.77077 0.611328,-1.19335 a 0.2645835,0.2645835 0 0 0 -0.002,-0.37305 0.2645835,0.2645835 0 0 0 -0.195313,-0.0781 z"
         style="color:#000000;font-style:normal;font-variant:normal;font-weight:normal;font-stretch:normal;font-size:medium;line-height:normal;font-family:sans-serif;font-variant-ligatures:normal;font-variant-position:normal;font-variant-caps:normal;font-variant-numeric:normal;font-variant-alternates:normal;font-variant-east-asian:normal;font-feature-settings:normal;font-variation-settings:normal;text-indent:0;text-align:start;text-decoration:none;text-decoration-line:none;text-decoration-style:solid;text-decoration-color:#000000;letter-spacing:normal;word-spacing:normal;text-transform:none;writing-mode:lr-tb;direction:ltr;text-orientation:mixed;dominant-baseline:auto;baseline-shift:baseline;text-anchor:start;white-space:normal;shape-padding:0;shape-margin:0;inline-size:0;clip-rule:nonzero;display:inline;overflow:visible;visibility:visible;opacity:1;isolation:auto;mix-blend-mode:normal;color-interpolation:sRGB;color-interpolation-filters:linearRGB;solid-color:#000000;solid-opacity:1;vector-effect:none;fill:#26783f;fill-opacity:1;fill-rule:nonzero;stroke:none;stroke-width:0.426072;stroke-linecap:round;stroke-linejoin:round;stroke-miterlimit:4;stroke-dasharray:none;stroke-dashoffset:0;stroke-opacity:1;color-rendering:auto;image-rendering:auto;shape-rendering:auto;text-rendering:auto;enable-background:accumulate;stop-color:#000000;stop-opacity:1" />
      <path
         id="path366"
         d="m -21.525391,285.05859 a 0.2645835,0.2645835 0 0 0 -0.177734,0.0781 c -0.264342,0.2667 -0.389614,0.57719 -0.380859,0.87305 0.0088,0.29585 0.130615,0.56033 0.277343,0.80664 0.293457,0.49261 0.702194,0.95273 0.84375,1.38086 0.09771,0.29551 -0.0064,0.57221 -0.189453,0.9082 -0.18308,0.33599 -0.446701,0.69032 -0.519531,1.13086 a 0.2645835,0.2645835 0 0 0 0.21875,0.30469 0.2645835,0.2645835 0 0 0 0.302734,-0.2168 c 0.04364,-0.26398 0.260168,-0.59476 0.462891,-0.9668 0.202723,-0.37204 0.391262,-0.82805 0.226562,-1.32617 -0.19489,-0.58944 -0.640174,-1.06591 -0.890624,-1.48633 -0.125226,-0.21021 -0.198566,-0.39671 -0.203126,-0.55078 -0.0046,-0.15407 0.03857,-0.29471 0.226563,-0.48437 a 0.2645835,0.2645835 0 0 0 -0.002,-0.37305 0.2645835,0.2645835 0 0 0 -0.195313,-0.0781 z"
         style="color:#000000;font-style:normal;font-variant:normal;font-weight:normal;font-stretch:normal;font-size:medium;line-height:normal;font-family:sans-serif;font-variant-ligatures:normal;font-variant-position:normal;font-variant-caps:normal;font-variant-numeric:normal;font-variant-alternates:normal;font-variant-east-asian:normal;font-feature-settings:normal;font-variation-settings:normal;text-indent:0;text-align:start;text-decoration:none;text-decoration-line:none;text-decoration-style:solid;text-decoration-color:#000000;letter-spacing:normal;word-spacing:normal;text-transform:none;writing-mode:lr-tb;direction:ltr;text-orientation:mixed;dominant-baseline:auto;baseline-shift:baseline;text-anchor:start;white-space:normal;shape-padding:0;shape-margin:0;inline-size:0;clip-rule:nonzero;display:inline;overflow:visible;visibility:visible;opacity:1;isolation:auto;mix-blend-mode:normal;color-interpolation:sRGB;color-interpolation-filters:linearRGB;solid-color:#000000;solid-opacity:1;vector-effect:none;fill:#26783f;fill-opacity:1;fill-rule:nonzero;stroke:none;stroke-width:0.426072;stroke-linecap:round;stroke-linejoin:round;stroke-miterlimit:4;stroke-dasharray:none;stroke-dashoffset:0;stroke-opacity:1;color-rendering:auto;image-rendering:auto;shape-rendering:auto;text-rendering:auto;enable-background:accumulate;stop-color:#000000;stop-opacity:1" />
      <path
         transform="matrix(0.26458334,0,0,0.26458334,0,280.06666)"
         d="m -70.773438,31.753906 -22.373046,22.378906 c 1.465249,0.343117 2.970551,0.542969 4.498046,0.542969 a 1.0001006,1.0001006 0 0 0 0.332032,-0.05859 c 4.781726,-1.704908 9.486457,-3.663203 12.865234,-7.314454 3.178509,-3.434825 5.052346,-8.354477 4.677734,-15.548828 z"
         style="color:#000000;font-style:normal;font-variant:normal;font-weight:normal;font-stretch:normal;font-size:medium;line-height:normal;font-family:sans-serif;font-variant-ligatures:normal;font-variant-position:normal;font-variant-caps:normal;font-variant-numeric:normal;font-variant-alternates:normal;font-variant-east-asian:normal;font-feature-settings:normal;font-variation-settings:normal;text-indent:0;text-align:start;text-decoration:none;text-decoration-line:none;text-decoration-style:solid;text-decoration-color:#000000;letter-spacing:normal;word-spacing:normal;text-transform:none;writing-mode:lr-tb;direction:ltr;text-orientation:mixed;dominant-baseline:auto;baseline-shift:baseline;text-anchor:start;white-space:normal;shape-padding:0;shape-margin:0;inline-size:0;clip-rule:nonzero;display:inline;overflow:visible;visibility:visible;isolation:auto;mix-blend-mode:normal;color-interpolation:sRGB;color-interpolation-filters:linearRGB;solid-color:#000000;solid-opacity:1;vector-effect:none;fill:#349951;fill-opacity:1;fill-rule:nonzero;stroke:none;stroke-width:1.61035;stroke-linecap:round;stroke-linejoin:round;stroke-miterlimit:4;stroke-dasharray:none;stroke-dashoffset:0;stroke-opacity:1;color-rendering:auto;image-rendering:auto;shape-rendering:auto;text-rendering:auto;enable-background:accumulate;stop-color:#000000"
         id="path509" />
      <path
         id="path427"
         d="m -17.066406,287.54492 a 0.26460996,0.26460996 0 0 0 -0.179688,0.0781 l -7.242187,7.24218 a 0.26460996,0.26460996 0 0 0 0,0.375 c 2.120423,2.12038 5.552224,2.13723 7.654297,0.0352 2.102071,-2.10207 2.083313,-5.53191 -0.03711,-7.65234 a 0.26460996,0.26460996 0 0 0 -0.195312,-0.0781 z"
         style="color:#000000;font-style:normal;font-variant:normal;font-weight:normal;font-stretch:normal;font-size:medium;line-height:normal;font-family:sans-serif;font-variant-ligatures:normal;font-variant-position:normal;font-variant-caps:normal;font-variant-numeric:normal;font-variant-alternates:normal;font-variant-east-asian:normal;font-feature-settings:normal;font-variation-settings:normal;text-indent:0;text-align:start;text-decoration:none;text-decoration-line:none;text-decoration-style:solid;text-decoration-color:#000000;letter-spacing:normal;word-spacing:normal;text-transform:none;writing-mode:lr-tb;direction:ltr;text-orientation:mixed;dominant-baseline:auto;baseline-shift:baseline;text-anchor:start;white-space:normal;shape-padding:0;shape-margin:0;inline-size:0;clip-rule:nonzero;display:inline;overflow:visible;visibility:visible;isolation:auto;mix-blend-mode:normal;color-interpolation:sRGB;color-interpolation-filters:linearRGB;solid-color:#000000;solid-opacity:1;vector-effect:none;fill:#87e59d;fill-opacity:1;fill-rule:nonzero;stroke:none;stroke-width:0.426072;stroke-linecap:round;stroke-linejoin:round;stroke-miterlimit:4;stroke-dasharray:none;stroke-dashoffset:0;stroke-opacity:1;color-rendering:auto;image-rendering:auto;shape-rendering:auto;text-rendering:auto;enable-background:accumulate;stop-color:#000000" />
      <path
         transform="matrix(0.26458334,0,0,0.26458334,0,280.06666)"
         d="m -67.513672,30.890625 -22.58789,22.587891 a 1.0001006,1.0001006 0 0 0 0.146484,0.1875 c 6.235192,6.2352 16.929663,7.007832 23.222656,0.714843 6.292993,-6.293026 5.647174,-17.102818 -0.597656,-23.347656 a 1.0001006,1.0001006 0 0 0 -0.183594,-0.142578 z"
         style="color:#000000;font-style:normal;font-variant:normal;font-weight:normal;font-stretch:normal;font-size:medium;line-height:normal;font-family:sans-serif;font-variant-ligatures:normal;font-variant-position:normal;font-variant-caps:normal;font-variant-numeric:normal;font-variant-alternates:normal;font-variant-east-asian:normal;font-feature-settings:normal;font-variation-settings:normal;text-indent:0;text-align:start;text-decoration:none;text-decoration-line:none;text-decoration-style:solid;text-decoration-color:#000000;letter-spacing:normal;word-spacing:normal;text-transform:none;writing-mode:lr-tb;direction:ltr;text-orientation:mixed;dominant-baseline:auto;baseline-shift:baseline;text-anchor:start;white-space:normal;shape-padding:0;shape-margin:0;inline-size:0;clip-rule:nonzero;display:inline;overflow:visible;visibility:visible;isolation:auto;mix-blend-mode:normal;color-interpolation:sRGB;color-interpolation-filters:linearRGB;solid-color:#000000;solid-opacity:1;vector-effect:none;fill:#dc1c4b;fill-opacity:1;fill-rule:nonzero;stroke:none;stroke-width:1.61035;stroke-linecap:round;stroke-linejoin:round;stroke-miterlimit:4;stroke-dasharray:none;stroke-dashoffset:0;stroke-opacity:1;color-rendering:auto;image-rendering:auto;shape-rendering:auto;text-rendering:auto;enable-background:accumulate;stop-color:#000000"
         id="path411" />
      <path
         id="path473"
         d="m -21.046875,292.8457 a 0.26460996,0.26460996 0 0 0 -0.244141,0.15235 l -0.433593,0.91797 a 0.26460996,0.26460996 0 0 0 -0.02344,0.15039 c 0.06631,0.44888 0.490473,0.76352 0.939453,0.69726 0.44904,-0.0661 0.765496,-0.48852 0.699219,-0.9375 a 0.26460996,0.26460996 0 0 0 -0.06641,-0.13867 l -0.679688,-0.75391 a 0.26460996,0.26460996 0 0 0 -0.191406,-0.0879 z"
         style="color:#000000;font-style:normal;font-variant:normal;font-weight:normal;font-stretch:normal;font-size:medium;line-height:normal;font-family:sans-serif;font-variant-ligatures:normal;font-variant-position:normal;font-variant-caps:normal;font-variant-numeric:normal;font-variant-alternates:normal;font-variant-east-asian:normal;font-feature-settings:normal;font-variation-settings:normal;text-indent:0;text-align:start;text-decoration:none;text-decoration-line:none;text-decoration-style:solid;text-decoration-color:#000000;letter-spacing:normal;word-spacing:normal;text-transform:none;writing-mode:lr-tb;direction:ltr;text-orientation:mixed;dominant-baseline:auto;baseline-shift:baseline;text-anchor:start;white-space:normal;shape-padding:0;shape-margin:0;inline-size:0;clip-rule:nonzero;display:inline;overflow:visible;visibility:visible;isolation:auto;mix-blend-mode:normal;color-interpolation:sRGB;color-interpolation-filters:linearRGB;solid-color:#000000;solid-opacity:1;vector-effect:none;fill:#3a4d5c;fill-opacity:1;fill-rule:nonzero;stroke:none;stroke-width:0.426072;stroke-linecap:round;stroke-linejoin:round;stroke-miterlimit:4;stroke-dasharray:none;stroke-dashoffset:0;stroke-opacity:1;color-rendering:auto;image-rendering:auto;shape-rendering:auto;text-rendering:auto;enable-background:accumulate;stop-color:#000000" />
      <path
         id="path442"
         d="m -18.146484,290.33008 a 0.26460996,0.26460996 0 0 0 -0.107422,0.0312 l -0.896485,0.47265 a 0.26460996,0.26460996 0 0 0 -0.04687,0.4375 l 0.783204,0.64649 a 0.26460996,0.26460996 0 0 0 0.140624,0.0605 c 0.451379,0.0466 0.861603,-0.28683 0.908204,-0.73829 0.04673,-0.45147 -0.286836,-0.86161 -0.738282,-0.9082 a 0.26460996,0.26460996 0 0 0 -0.04297,-0.002 z"
         style="color:#000000;font-style:normal;font-variant:normal;font-weight:normal;font-stretch:normal;font-size:medium;line-height:normal;font-family:sans-serif;font-variant-ligatures:normal;font-variant-position:normal;font-variant-caps:normal;font-variant-numeric:normal;font-variant-alternates:normal;font-variant-east-asian:normal;font-feature-settings:normal;font-variation-settings:normal;text-indent:0;text-align:start;text-decoration:none;text-decoration-line:none;text-decoration-style:solid;text-decoration-color:#000000;letter-spacing:normal;word-spacing:normal;text-transform:none;writing-mode:lr-tb;direction:ltr;text-orientation:mixed;dominant-baseline:auto;baseline-shift:baseline;text-anchor:start;white-space:normal;shape-padding:0;shape-margin:0;inline-size:0;clip-rule:nonzero;display:inline;overflow:visible;visibility:visible;isolation:auto;mix-blend-mode:normal;color-interpolation:sRGB;color-interpolation-filters:linearRGB;solid-color:#000000;solid-opacity:1;vector-effect:none;fill:#3a4d5c;fill-opacity:1;fill-rule:nonzero;stroke:none;stroke-width:0.426072;stroke-linecap:round;stroke-linejoin:round;stroke-miterlimit:4;stroke-dasharray:none;stroke-dashoffset:0;stroke-opacity:1;color-rendering:auto;image-rendering:auto;shape-rendering:auto;text-rendering:auto;enable-background:accumulate;stop-color:#000000" />
      <path
         id="path457"
         d="m -19.953125,291.875 a 0.26460996,0.26460996 0 0 0 -0.269531,0.31641 l 0.197265,0.99414 a 0.26460996,0.26460996 0 0 0 0.07227,0.13672 c 0.320342,0.32136 0.848539,0.32083 1.169922,0 0.321588,-0.32031 0.32228,-0.84847 0.002,-1.16993 a 0.26460996,0.26460996 0 0 0 -0.134766,-0.0723 l -0.99414,-0.20117 a 0.26460996,0.26460996 0 0 0 -0.04297,-0.004 z"
         style="color:#000000;font-style:normal;font-variant:normal;font-weight:normal;font-stretch:normal;font-size:medium;line-height:normal;font-family:sans-serif;font-variant-ligatures:normal;font-variant-position:normal;font-variant-caps:normal;font-variant-numeric:normal;font-variant-alternates:normal;font-variant-east-asian:normal;font-feature-settings:normal;font-variation-settings:normal;text-indent:0;text-align:start;text-decoration:none;text-decoration-line:none;text-decoration-style:solid;text-decoration-color:#000000;letter-spacing:normal;word-spacing:normal;text-transform:none;writing-mode:lr-tb;direction:ltr;text-orientation:mixed;dominant-baseline:auto;baseline-shift:baseline;text-anchor:start;white-space:normal;shape-padding:0;shape-margin:0;inline-size:0;clip-rule:nonzero;display:inline;overflow:visible;visibility:visible;isolation:auto;mix-blend-mode:normal;color-interpolation:sRGB;color-interpolation-filters:linearRGB;solid-color:#000000;solid-opacity:1;vector-effect:none;fill:#3a4d5c;fill-opacity:1;fill-rule:nonzero;stroke:none;stroke-width:0.426072;stroke-linecap:round;stroke-linejoin:round;stroke-miterlimit:4;stroke-dasharray:none;stroke-dashoffset:0;stroke-opacity:1;color-rendering:auto;image-rendering:auto;shape-rendering:auto;text-rendering:auto;enable-background:accumulate;stop-color:#000000" />
      <path
         d="m -21.046775,292.84573 a 0.26460996,0.26460996 0 0 0 -0.244428,0.15244 l -0.0124,0.0258 0.598413,0.66352 a 0.26460996,0.26460996 0 0 1 0.06666,0.1385 c 0.05868,0.39754 -0.183087,0.77321 -0.550871,0.9002 0.119507,0.0403 0.248508,0.0567 0.380857,0.0372 0.449038,-0.0661 0.765459,-0.48843 0.69918,-0.93741 a 0.26460996,0.26460996 0 0 0 -0.06666,-0.1385 l -0.679546,-0.75395 a 0.26460996,0.26460996 0 0 0 -0.191203,-0.0879 z"
         style="color:#000000;font-style:normal;font-variant:normal;font-weight:normal;font-stretch:normal;font-size:medium;line-height:normal;font-family:sans-serif;font-variant-ligatures:normal;font-variant-position:normal;font-variant-caps:normal;font-variant-numeric:normal;font-variant-alternates:normal;font-variant-east-asian:normal;font-feature-settings:normal;font-variation-settings:normal;text-indent:0;text-align:start;text-decoration:none;text-decoration-line:none;text-decoration-style:solid;text-decoration-color:#000000;letter-spacing:normal;word-spacing:normal;text-transform:none;writing-mode:lr-tb;direction:ltr;text-orientation:mixed;dominant-baseline:auto;baseline-shift:baseline;text-anchor:start;white-space:normal;shape-padding:0;shape-margin:0;inline-size:0;clip-rule:nonzero;display:inline;overflow:visible;visibility:visible;isolation:auto;mix-blend-mode:normal;color-interpolation:sRGB;color-interpolation-filters:linearRGB;solid-color:#000000;solid-opacity:1;vector-effect:none;fill:#143441;fill-opacity:1;fill-rule:nonzero;stroke:none;stroke-width:0.426072;stroke-linecap:round;stroke-linejoin:round;stroke-miterlimit:4;stroke-dasharray:none;stroke-dashoffset:0;stroke-opacity:1;color-rendering:auto;image-rendering:auto;shape-rendering:auto;text-rendering:auto;enable-background:accumulate;stop-color:#000000"
         id="path486" />
      <path
         d="m -19.953307,291.87473 v 5.1e-4 a 0.26460996,0.26460996 0 0 0 -0.183452,0.0646 l 0.691431,0.14004 a 0.26460996,0.26460996 0 0 1 0.134875,0.0723 c 0.32028,0.32146 0.319521,0.84964 -0.0021,1.16995 -0.09267,0.0925 -0.203278,0.15561 -0.320394,0.19482 0.288636,0.0965 0.62097,0.0334 0.849561,-0.19482 0.321588,-0.32031 0.322347,-0.84849 0.0021,-1.16995 a 0.26460996,0.26460996 0 0 0 -0.134875,-0.0723 l -0.993738,-0.20102 a 0.26460996,0.26460996 0 0 0 -0.04341,-0.004 z"
         style="color:#000000;font-style:normal;font-variant:normal;font-weight:normal;font-stretch:normal;font-size:medium;line-height:normal;font-family:sans-serif;font-variant-ligatures:normal;font-variant-position:normal;font-variant-caps:normal;font-variant-numeric:normal;font-variant-alternates:normal;font-variant-east-asian:normal;font-feature-settings:normal;font-variation-settings:normal;text-indent:0;text-align:start;text-decoration:none;text-decoration-line:none;text-decoration-style:solid;text-decoration-color:#000000;letter-spacing:normal;word-spacing:normal;text-transform:none;writing-mode:lr-tb;direction:ltr;text-orientation:mixed;dominant-baseline:auto;baseline-shift:baseline;text-anchor:start;white-space:normal;shape-padding:0;shape-margin:0;inline-size:0;clip-rule:nonzero;display:inline;overflow:visible;visibility:visible;isolation:auto;mix-blend-mode:normal;color-interpolation:sRGB;color-interpolation-filters:linearRGB;solid-color:#000000;solid-opacity:1;vector-effect:none;fill:#143441;fill-opacity:1;fill-rule:nonzero;stroke:none;stroke-width:0.426072;stroke-linecap:round;stroke-linejoin:round;stroke-miterlimit:4;stroke-dasharray:none;stroke-dashoffset:0;stroke-opacity:1;color-rendering:auto;image-rendering:auto;shape-rendering:auto;text-rendering:auto;enable-background:accumulate;stop-color:#000000"
         id="path492" />
      <path
         d="m -18.146699,290.33012 a 0.26460996,0.26460996 0 0 0 -0.10697,0.031 l -0.101802,0.0537 c 0.301357,0.14911 0.497374,0.4734 0.460953,0.82527 -0.03241,0.31393 -0.242167,0.56733 -0.517798,0.67903 a 0.26460996,0.26460996 0 0 0 0.13901,0.0594 c 0.451379,0.0466 0.861354,-0.28699 0.907955,-0.73845 0.04673,-0.45147 -0.286493,-0.86137 -0.737939,-0.90796 a 0.26460996,0.26460996 0 0 0 -0.04341,-0.002 z"
         style="color:#000000;font-style:normal;font-variant:normal;font-weight:normal;font-stretch:normal;font-size:medium;line-height:normal;font-family:sans-serif;font-variant-ligatures:normal;font-variant-position:normal;font-variant-caps:normal;font-variant-numeric:normal;font-variant-alternates:normal;font-variant-east-asian:normal;font-feature-settings:normal;font-variation-settings:normal;text-indent:0;text-align:start;text-decoration:none;text-decoration-line:none;text-decoration-style:solid;text-decoration-color:#000000;letter-spacing:normal;word-spacing:normal;text-transform:none;writing-mode:lr-tb;direction:ltr;text-orientation:mixed;dominant-baseline:auto;baseline-shift:baseline;text-anchor:start;white-space:normal;shape-padding:0;shape-margin:0;inline-size:0;clip-rule:nonzero;display:inline;overflow:visible;visibility:visible;isolation:auto;mix-blend-mode:normal;color-interpolation:sRGB;color-interpolation-filters:linearRGB;solid-color:#000000;solid-opacity:1;vector-effect:none;fill:#143441;fill-opacity:1;fill-rule:nonzero;stroke:none;stroke-width:0.426072;stroke-linecap:round;stroke-linejoin:round;stroke-miterlimit:4;stroke-dasharray:none;stroke-dashoffset:0;stroke-opacity:1;color-rendering:auto;image-rendering:auto;shape-rendering:auto;text-rendering:auto;enable-background:accumulate;stop-color:#000000"
         id="path497" />
      <path
         d="m -17.06666,287.54476 a 0.26460996,0.26460996 0 0 0 -0.179318,0.078 l -0.07958,0.0796 c 2.043958,2.12573 2.038723,5.49674 -0.03772,7.57318 -0.977104,0.97708 -2.241484,1.4904 -3.52795,1.55339 1.464012,0.0706 2.946078,-0.44237 4.057117,-1.55339 2.102071,-2.10207 2.083216,-5.53182 -0.03721,-7.65225 a 0.26460996,0.26460996 0 0 0 -0.195337,-0.0785 z"
         style="color:#000000;font-style:normal;font-variant:normal;font-weight:normal;font-stretch:normal;font-size:medium;line-height:normal;font-family:sans-serif;font-variant-ligatures:normal;font-variant-position:normal;font-variant-caps:normal;font-variant-numeric:normal;font-variant-alternates:normal;font-variant-east-asian:normal;font-feature-settings:normal;font-variation-settings:normal;text-indent:0;text-align:start;text-decoration:none;text-decoration-line:none;text-decoration-style:solid;text-decoration-color:#000000;letter-spacing:normal;word-spacing:normal;text-transform:none;writing-mode:lr-tb;direction:ltr;text-orientation:mixed;dominant-baseline:auto;baseline-shift:baseline;text-anchor:start;white-space:normal;shape-padding:0;shape-margin:0;inline-size:0;clip-rule:nonzero;display:inline;overflow:visible;visibility:visible;isolation:auto;mix-blend-mode:normal;color-interpolation:sRGB;color-interpolation-filters:linearRGB;solid-color:#000000;solid-opacity:1;vector-effect:none;fill:#50b86b;fill-opacity:1;fill-rule:nonzero;stroke:none;stroke-width:0.426072;stroke-linecap:round;stroke-linejoin:round;stroke-miterlimit:4;stroke-dasharray:none;stroke-dashoffset:0;stroke-opacity:1;color-rendering:auto;image-rendering:auto;shape-rendering:auto;text-rendering:auto;enable-background:accumulate;stop-color:#000000"
         id="path503" />
    </g>
  </g>
</svg>
